<?xml version="1.0" standalone="no"?>
<!DOCTYPE svg PUBLIC "-//W3C//DTD SVG 1.1//EN" "http://www.w3.org/Graphics/SVG/1.1/DTD/svg11.dtd" >
<svg xmlns="http://www.w3.org/2000/svg" xmlns:xlink="http://www.w3.org/1999/xlink" version="1.1">
<metadata>
Created by FontForge 20141024 at Sat Jul 11 16:15:45 2015
 By System Administrator
Copyright \(c\) 2014 by Ryoichi Tsunekawa. All rights reserved.
</metadata>
<defs>
<font id="Kiro-ExtraLight" horiz-adv-x="330" >
  <font-face 
    font-family="Kiro ExtraLight"
    font-weight="300"
    font-stretch="normal"
    units-per-em="1000"
    panose-1="2 15 4 6 2 2 3 4 2 4"
    ascent="770"
    descent="-230"
    x-height="491"
    cap-height="664"
    bbox="-153.409 -172 1027 911"
    underline-thickness="27"
    underline-position="-54"
    stemh="38"
    stemv="42"
    unicode-range="U+0020-FB04"
  />
<missing-glyph horiz-adv-x="600" 
d="M69 0v664h462v-664h-462zM144 623l156 -248l156 248h-312zM114 585v-506l159 253zM486 79v506l-159 -253zM300 289l-156 -248h312z" />
    <glyph glyph-name="ff" unicode="ff" horiz-adv-x="597" 
d="M621 688c7 -4 8 -10 4 -16l-7 -12c-4 -7 -10 -7 -15 -4c-22 14 -46 19 -76 19c-71 0 -106 -43 -106 -128v-56h164c8 0 12 -4 12 -12v-13c0 -8 -4 -12 -12 -12h-164v-442c0 -8 -4 -12 -12 -12h-17c-8 0 -12 4 -12 12v442h-240v-442c0 -8 -4 -12 -12 -12h-17
c-8 0 -12 4 -12 12v442h-68c-8 0 -12 4 -12 12v13c0 8 4 12 12 12h68v42c0 105 61 169 162 169c59 0 110 -21 142 -51c23 40 65 61 122 61c38 0 68 -7 96 -24zM380 491v61c0 22 2 43 7 60c-24 31 -68 53 -124 53c-77 0 -123 -50 -123 -136v-38h240z" />
    <glyph glyph-name="fi" unicode="fi" horiz-adv-x="496" 
d="M258 675c-78 0 -118 -45 -118 -128v-56h144c8 0 12 -4 12 -12v-13c0 -8 -4 -12 -12 -12h-144v-442c0 -8 -4 -12 -12 -12h-17c-8 0 -12 4 -12 12v442h-68c-8 0 -12 4 -12 12v13c0 8 4 12 12 12h68v61c0 101 57 160 158 160c54 0 92 -14 125 -40c6 -5 8 -11 3 -17l-9 -11
c-5 -7 -11 -7 -18 -1c-22 18 -52 32 -100 32zM390 491h17c8 0 12 -4 12 -12v-467c0 -8 -4 -12 -12 -12h-17c-8 0 -12 4 -12 12v467c0 8 4 12 12 12z" />
    <glyph glyph-name="fl" unicode="fl" horiz-adv-x="506" 
d="M400 700h17c8 0 12 -4 12 -12v-676c0 -8 -4 -12 -12 -12h-17c-8 0 -12 4 -12 12v611c-24 30 -70 52 -125 52c-77 0 -123 -50 -123 -136v-48h152c8 0 12 -4 12 -12v-13c0 -8 -4 -12 -12 -12h-152v-442c0 -8 -4 -12 -12 -12h-17c-8 0 -12 4 -12 12v442h-68
c-8 0 -12 4 -12 12v13c0 8 4 12 12 12h68v52c0 105 61 169 162 169c49 0 95 -16 127 -39v15c0 8 4 12 12 12z" />
    <glyph glyph-name="ffi" unicode="ffi" horiz-adv-x="777" 
d="M666 655l-9 -11c-5 -7 -11 -7 -18 -1c-22 18 -52 32 -100 32c-78 0 -118 -45 -118 -128v-56h144c8 0 12 -4 12 -12v-13c0 -8 -4 -12 -12 -12h-144v-442c0 -8 -4 -12 -12 -12h-17c-8 0 -12 4 -12 12v442h-240v-442c0 -8 -4 -12 -12 -12h-17c-8 0 -12 4 -12 12v442h-68
c-8 0 -12 4 -12 12v13c0 8 4 12 12 12h68v42c0 105 61 169 162 169c60 0 112 -22 144 -53c26 41 71 63 133 63c54 0 92 -14 125 -40c6 -5 8 -11 3 -17zM380 491v61c0 22 3 42 8 59c-24 32 -69 54 -125 54c-77 0 -123 -50 -123 -136v-38h240zM671 491h17c8 0 12 -4 12 -12
v-467c0 -8 -4 -12 -12 -12h-17c-8 0 -12 4 -12 12v467c0 8 4 12 12 12z" />
    <glyph glyph-name="ffl" unicode="ffl" horiz-adv-x="787" 
d="M681 700h17c8 0 12 -4 12 -12v-676c0 -8 -4 -12 -12 -12h-17c-8 0 -12 4 -12 12v611c-24 30 -70 52 -125 52c-77 0 -123 -50 -123 -136v-48h152c8 0 12 -4 12 -12v-13c0 -8 -4 -12 -12 -12h-152v-442c0 -8 -4 -12 -12 -12h-17c-8 0 -12 4 -12 12v442h-240v-442
c0 -8 -4 -12 -12 -12h-17c-8 0 -12 4 -12 12v442h-68c-8 0 -12 4 -12 12v13c0 8 4 12 12 12h68v42c0 105 61 169 162 169c62 0 114 -23 146 -55c27 42 74 65 135 65c49 0 95 -16 127 -39v15c0 8 4 12 12 12zM380 491v52c0 24 4 47 9 67c-25 32 -69 55 -126 55
c-77 0 -123 -50 -123 -136v-38h240z" />
    <glyph glyph-name="f_b" unicode="fb" horiz-adv-x="803" 
d="M388 623c-24 30 -70 52 -125 52c-77 0 -123 -50 -123 -136v-48h152c8 0 12 -4 12 -12v-13c0 -8 -4 -12 -12 -12h-152v-442c0 -8 -4 -12 -12 -12h-17c-8 0 -12 4 -12 12v442h-68c-8 0 -12 4 -12 12v13c0 8 4 12 12 12h68v52c0 105 61 169 162 169c49 0 95 -16 127 -39v15
c0 8 4 12 12 12h17c8 0 12 -4 12 -12v-259h1c25 49 73 74 141 74c115 0 175 -63 175 -186v-142c0 -122 -62 -187 -179 -187s-179 65 -179 187v448zM705 184v124c0 108 -43 158 -138 158c-92 0 -138 -53 -138 -158v-124c0 -109 43 -159 138 -159s138 50 138 159z" />
    <glyph glyph-name="f_f_b" unicode="ffb" horiz-adv-x="1084" 
d="M380 491v52c0 24 4 47 9 67c-25 32 -69 55 -126 55c-77 0 -123 -50 -123 -136v-38h240zM669 175v448c-24 30 -70 52 -125 52c-77 0 -123 -50 -123 -136v-48h152c8 0 12 -4 12 -12v-13c0 -8 -4 -12 -12 -12h-152v-442c0 -8 -4 -12 -12 -12h-17c-8 0 -12 4 -12 12v442h-240
v-442c0 -8 -4 -12 -12 -12h-17c-8 0 -12 4 -12 12v442h-68c-8 0 -12 4 -12 12v13c0 8 4 12 12 12h68v42c0 105 61 169 162 169c62 0 114 -23 146 -55c27 42 74 65 135 65c49 0 95 -16 127 -39v15c0 8 4 12 12 12h17c8 0 12 -4 12 -12v-259h1c25 49 73 74 141 74
c115 0 175 -63 175 -186v-142c0 -122 -62 -187 -179 -187s-179 65 -179 187zM986 184v124c0 108 -43 158 -138 158c-92 0 -138 -53 -138 -158v-124c0 -109 43 -159 138 -159s138 50 138 159z" />
    <glyph glyph-name="f_h" unicode="fh" horiz-adv-x="811" 
d="M388 623c-24 30 -70 52 -125 52c-77 0 -123 -50 -123 -136v-48h152c8 0 12 -4 12 -12v-13c0 -8 -4 -12 -12 -12h-152v-442c0 -8 -4 -12 -12 -12h-17c-8 0 -12 4 -12 12v442h-68c-8 0 -12 4 -12 12v13c0 8 4 12 12 12h68v52c0 105 61 169 162 169c49 0 95 -16 127 -39v15
c0 8 4 12 12 12h17c8 0 12 -4 12 -12v-256h1c25 47 72 71 138 71c112 0 171 -62 171 -182v-309c0 -8 -4 -12 -12 -12h-17c-8 0 -12 4 -12 12v300c0 105 -43 154 -135 154c-90 0 -134 -52 -134 -154v-300c0 -8 -4 -12 -12 -12h-17c-8 0 -12 4 -12 12v611z" />
    <glyph glyph-name="f_f_h" unicode="ffh" horiz-adv-x="1092" 
d="M669 673v15c0 8 4 12 12 12h17c8 0 12 -4 12 -12v-256h1c25 47 72 71 138 71c112 0 171 -62 171 -182v-309c0 -8 -4 -12 -12 -12h-17c-8 0 -12 4 -12 12v300c0 105 -43 154 -135 154c-90 0 -134 -52 -134 -154v-300c0 -8 -4 -12 -12 -12h-17c-8 0 -12 4 -12 12v611
c-24 30 -70 52 -125 52c-77 0 -123 -50 -123 -136v-48h152c8 0 12 -4 12 -12v-13c0 -8 -4 -12 -12 -12h-152v-442c0 -8 -4 -12 -12 -12h-17c-8 0 -12 4 -12 12v442h-240v-442c0 -8 -4 -12 -12 -12h-17c-8 0 -12 4 -12 12v442h-68c-8 0 -12 4 -12 12v13c0 8 4 12 12 12h68v42
c0 105 61 169 162 169c62 0 114 -23 146 -55c27 42 74 65 135 65c49 0 95 -16 127 -39zM380 491v52c0 24 4 47 9 67c-25 32 -69 55 -126 55c-77 0 -123 -50 -123 -136v-38h240z" />
    <glyph glyph-name="f_j" unicode="fj" horiz-adv-x="496" 
d="M258 675c-78 0 -118 -45 -118 -128v-56h144c8 0 12 -4 12 -12v-13c0 -8 -4 -12 -12 -12h-144v-442c0 -8 -4 -12 -12 -12h-17c-8 0 -12 4 -12 12v442h-68c-8 0 -12 4 -12 12v13c0 8 4 12 12 12h68v61c0 101 57 160 158 160c54 0 92 -14 125 -40c6 -4 8 -11 3 -17l-9 -11
c-5 -7 -11 -7 -18 -1c-22 18 -52 32 -100 32zM291 -123h1c57 0 86 31 86 94v508c0 8 4 12 12 12h17c8 0 12 -4 12 -12v-508c0 -86 -42 -131 -123 -131h-5c-8 0 -12 4 -12 12v13c0 8 4 12 12 12z" />
    <glyph glyph-name="f_f_j" unicode="ffj" horiz-adv-x="777" 
d="M577 479v-13c0 -8 -4 -12 -12 -12h-144v-442c0 -8 -4 -12 -12 -12h-17c-8 0 -12 4 -12 12v442h-240v-442c0 -8 -4 -12 -12 -12h-17c-8 0 -12 4 -12 12v442h-68c-8 0 -12 4 -12 12v13c0 8 4 12 12 12h68v42c0 105 61 169 162 169c60 0 112 -22 144 -53c26 41 71 63 133 63
c54 0 92 -14 125 -40c6 -4 8 -11 3 -17l-9 -11c-5 -7 -11 -7 -18 -1c-22 18 -52 32 -100 32c-78 0 -118 -45 -118 -128v-56h144c8 0 12 -4 12 -12zM380 491v61c0 22 3 42 8 59c-24 32 -69 54 -125 54c-77 0 -123 -50 -123 -136v-38h240zM671 491h17c8 0 12 -4 12 -12v-508
c0 -86 -42 -131 -123 -131h-5c-8 0 -12 4 -12 12v13c0 8 4 12 12 12h1c57 0 86 31 86 94v508c0 8 4 12 12 12z" />
    <glyph glyph-name="f_k" unicode="fk" horiz-adv-x="733" 
d="M388 623c-24 30 -70 52 -125 52c-77 0 -123 -50 -123 -136v-48h152c8 0 12 -4 12 -12v-13c0 -8 -4 -12 -12 -12h-152v-442c0 -8 -4 -12 -12 -12h-17c-8 0 -12 4 -12 12v442h-68c-8 0 -12 4 -12 12v13c0 8 4 12 12 12h68v52c0 105 61 169 162 169c49 0 95 -16 127 -39v15
c0 8 4 12 12 12h17c8 0 12 -4 12 -12v-426l222 223c4 4 9 6 15 6h27c11 0 14 -7 6 -15l-227 -225l238 -236c8 -8 5 -15 -6 -15h-28c-6 0 -11 2 -15 6l-232 233v-227c0 -8 -4 -12 -12 -12h-17c-8 0 -12 4 -12 12v611z" />
    <glyph glyph-name="f_f_k" unicode="ffk" horiz-adv-x="1022" 
d="M669 673v15c0 8 4 12 12 12h17c8 0 12 -4 12 -12v-426l222 223c4 4 9 6 15 6h27c11 0 14 -7 6 -15l-227 -225l238 -236c8 -8 5 -15 -6 -15h-28c-6 0 -11 2 -15 6l-232 233v-227c0 -8 -4 -12 -12 -12h-17c-8 0 -12 4 -12 12v611c-24 30 -70 52 -125 52
c-77 0 -123 -50 -123 -136v-48h152c8 0 12 -4 12 -12v-13c0 -8 -4 -12 -12 -12h-152v-442c0 -8 -4 -12 -12 -12h-17c-8 0 -12 4 -12 12v442h-240v-442c0 -8 -4 -12 -12 -12h-17c-8 0 -12 4 -12 12v442h-68c-8 0 -12 4 -12 12v13c0 8 4 12 12 12h68v42c0 105 61 169 162 169
c62 0 114 -23 146 -55c27 42 74 65 135 65c49 0 95 -16 127 -39zM380 491v52c0 24 4 47 9 67c-25 32 -69 55 -126 55c-77 0 -123 -50 -123 -136v-38h240z" />
    <glyph glyph-name="f_t" unicode="ft" horiz-adv-x="629" 
d="M603 43l6 -11c3 -7 3 -12 -4 -17c-25 -18 -58 -27 -91 -27c-88 0 -135 50 -135 141v325h-239v-442c0 -8 -4 -12 -12 -12h-17c-8 0 -12 4 -12 12v442h-68c-8 0 -12 4 -12 12v13c0 8 4 12 12 12h68v61c0 101 57 160 156 160c53 0 90 -15 121 -38c6 -5 8 -11 3 -17l-10 -12
c-5 -6 -11 -6 -18 0c-21 17 -50 30 -94 30c-77 0 -117 -45 -117 -128v-56h239v94c0 8 4 12 12 12h17c8 0 12 -4 12 -12v-94h164c8 0 12 -4 12 -12v-13c0 -8 -4 -12 -12 -12h-164v-320c0 -73 32 -109 97 -109c25 0 47 7 70 22c6 4 12 3 16 -4z" />
    <glyph glyph-name="f_f_t" unicode="fft" horiz-adv-x="910" 
d="M884 43l6 -11c3 -7 3 -12 -4 -17c-25 -18 -58 -27 -91 -27c-88 0 -135 50 -135 141v325h-239v-442c0 -8 -4 -12 -12 -12h-17c-8 0 -12 4 -12 12v442h-240v-442c0 -8 -4 -12 -12 -12h-17c-8 0 -12 4 -12 12v442h-68c-8 0 -12 4 -12 12v13c0 8 4 12 12 12h68v42
c0 105 61 169 162 169c60 0 112 -22 144 -53c25 41 70 63 131 63c53 0 90 -15 121 -38c6 -5 8 -11 3 -17l-10 -12c-5 -6 -11 -6 -18 0c-21 17 -50 30 -94 30c-77 0 -117 -45 -117 -128v-56h239v94c0 8 4 12 12 12h17c8 0 12 -4 12 -12v-94h164c8 0 12 -4 12 -12v-13
c0 -8 -4 -12 -12 -12h-164v-320c0 -73 32 -109 97 -109c25 0 47 7 70 22c6 4 12 3 16 -4zM380 491v61c0 22 3 42 8 59c-24 32 -69 54 -125 54c-77 0 -123 -50 -123 -136v-38h240z" />
    <glyph glyph-name=".notdef" horiz-adv-x="600" 
d="M69 0v664h462v-664h-462zM144 623l156 -248l156 248h-312zM114 585v-506l159 253zM486 79v506l-159 -253zM300 289l-156 -248h312z" />
    <glyph glyph-name="space" unicode=" " horiz-adv-x="215" 
 />
    <glyph glyph-name="exclam" unicode="!" horiz-adv-x="212" 
d="M126 363l-8 -201c0 -5 -3 -8 -8 -8h-8c-5 0 -8 3 -8 8l-9 201v289c0 8 4 12 12 12h17c8 0 12 -4 12 -12v-289zM106 -12c-20 0 -35 15 -35 35s15 34 35 34s34 -14 34 -34s-14 -35 -34 -35z" />
    <glyph glyph-name="quotedbl" unicode="&#x22;" horiz-adv-x="334" 
d="M116 652l-8 -181c0 -6 -3 -9 -9 -9h-9c-6 0 -9 3 -9 9l-8 181c0 8 4 12 12 12h19c8 0 12 -4 12 -12zM261 652l-8 -181c0 -6 -3 -9 -9 -9h-9c-6 0 -9 3 -9 9l-8 181c0 8 4 12 12 12h19c8 0 12 -4 12 -12z" />
    <glyph glyph-name="numbersign" unicode="#" horiz-adv-x="528" 
d="M362 237h98c8 0 12 -5 10 -13l-2 -12c-1 -7 -6 -11 -13 -11h-99l-33 -190c-1 -7 -6 -11 -13 -11h-13c-8 0 -12 5 -11 13l33 188h-152l-33 -190c-1 -7 -6 -11 -13 -11h-13c-8 0 -12 5 -11 13l33 188h-97c-8 0 -12 5 -11 13l2 12c1 7 6 11 13 11h99l30 170h-97
c-8 0 -12 5 -11 13l2 12c1 7 6 11 13 11h99l30 170c1 7 6 11 13 11h13c8 0 12 -5 11 -13l-30 -168h152l30 170c1 7 6 11 13 11h13c8 0 12 -5 11 -13l-30 -168h98c8 0 12 -5 10 -13l-2 -12c-1 -7 -6 -11 -13 -11h-99zM173 237h152l30 170h-152z" />
    <glyph glyph-name="dollar" unicode="$" horiz-adv-x="528" 
d="M473 173c0 -93 -74 -160 -184 -165v-67c0 -7 -4 -11 -11 -11h-16c-7 0 -11 4 -11 11v68c-87 5 -150 36 -193 96c-4 7 -3 12 3 17l12 10c6 5 12 4 17 -3c36 -51 87 -77 161 -82v246c-134 13 -185 61 -185 158c0 93 75 160 185 165v61c0 7 4 11 11 11h16c7 0 11 -4 11 -11
v-62c73 -5 127 -33 164 -84c4 -7 3 -12 -3 -17l-13 -10c-6 -4 -12 -3 -17 3c-29 41 -74 65 -131 70v-249c135 -13 184 -60 184 -155zM108 451c0 -69 40 -105 143 -118v245c-87 -5 -143 -55 -143 -127zM289 288v-242c87 6 142 56 142 127c0 69 -40 104 -142 115z" />
    <glyph glyph-name="percent" unicode="%" horiz-adv-x="620" 
d="M34 438v76c0 79 41 122 116 122c74 0 115 -43 115 -122v-76c0 -80 -41 -122 -115 -122c-75 0 -116 42 -116 122zM93 13l396 604c3 5 8 7 14 7h16c9 0 12 -6 7 -13l-395 -604c-3 -5 -8 -7 -14 -7h-17c-9 0 -12 6 -7 13zM70 511v-69c0 -65 23 -93 80 -93c56 0 79 28 79 93
v69c0 64 -23 92 -79 92c-57 0 -80 -28 -80 -92zM355 110v76c0 79 41 122 116 122c74 0 115 -43 115 -122v-76c0 -80 -41 -122 -115 -122c-75 0 -116 42 -116 122zM391 183v-69c0 -65 23 -93 80 -93c56 0 79 28 79 93v69c0 64 -23 92 -79 92c-57 0 -80 -28 -80 -92z" />
    <glyph glyph-name="ampersand" unicode="&#x26;" horiz-adv-x="576" 
d="M512 6l-73 76c-51 -64 -115 -94 -193 -94c-131 0 -208 76 -208 189c0 82 38 148 114 204c-36 46 -53 87 -53 132c0 102 64 163 170 163c52 0 104 -16 140 -47c5 -5 6 -11 1 -17l-9 -12c-5 -6 -13 -7 -19 -1c-28 26 -67 39 -111 39c-83 0 -130 -46 -130 -125
c0 -50 24 -93 76 -146l216 -223c26 43 47 98 63 165c2 8 7 12 15 10l17 -4c8 -2 11 -7 9 -15c-21 -76 -46 -137 -75 -185l97 -100c7 -8 4 -15 -7 -15h-25c-6 0 -11 2 -15 6zM411 110l-233 240c-66 -47 -98 -101 -98 -172c0 -89 62 -152 168 -152c65 0 119 28 163 84z" />
    <glyph glyph-name="quotesingle" unicode="'" horiz-adv-x="189" 
d="M116 652l-8 -181c0 -6 -3 -9 -9 -9h-9c-6 0 -9 3 -9 9l-8 181c0 8 4 12 12 12h19c8 0 12 -4 12 -12z" />
    <glyph glyph-name="parenleft" unicode="(" horiz-adv-x="312" 
d="M225 664h15c10 0 13 -6 7 -15c-77 -111 -116 -239 -116 -362s39 -251 116 -362c6 -9 3 -15 -7 -15h-15c-6 0 -11 2 -15 7c-83 109 -121 242 -121 370s38 261 121 370c4 5 9 7 15 7z" />
    <glyph glyph-name="parenright" unicode=")" horiz-adv-x="312" 
d="M87 -90h-15c-10 0 -13 6 -7 15c77 111 116 239 116 362s-39 251 -116 362c-6 9 -3 15 7 15h15c6 0 11 -2 15 -7c83 -109 121 -242 121 -370s-38 -261 -121 -370c-4 -5 -9 -7 -15 -7z" />
    <glyph glyph-name="asterisk" unicode="*" horiz-adv-x="471" 
d="M255 479l115 -144c5 -7 4 -13 -2 -17l-13 -9c-6 -4 -13 -4 -17 3l-102 155l-103 -155c-4 -7 -11 -7 -17 -3l-13 9c-6 4 -7 10 -2 17l115 144l-177 52c-8 2 -10 7 -8 15l4 14c2 8 8 11 16 8l172 -64l-8 184c0 8 4 12 12 12h17c8 0 12 -4 12 -12l-8 -184l172 64
c8 3 14 0 16 -8l4 -14c2 -8 0 -13 -8 -15z" />
    <glyph glyph-name="plus" unicode="+" horiz-adv-x="528" 
d="M283 260v-212c0 -8 -4 -12 -12 -12h-14c-8 0 -12 4 -12 12v212h-212c-8 0 -12 4 -12 12v14c0 8 4 12 12 12h212v212c0 8 4 12 12 12h14c8 0 12 -4 12 -12v-212h212c8 0 12 -4 12 -12v-14c0 -8 -4 -12 -12 -12h-212z" />
    <glyph glyph-name="comma" unicode="," horiz-adv-x="210" 
d="M105 57c20 0 34 -14 34 -39c0 -42 -19 -81 -53 -108c-4 -3 -8 -3 -11 1l-4 5c-3 4 -3 7 1 11c19 17 29 38 32 66c-20 0 -34 12 -34 32s15 32 35 32z" />
    <glyph glyph-name="hyphen" unicode="-" horiz-adv-x="327" 
d="M285 251h-243c-8 0 -12 4 -12 12v16c0 8 4 12 12 12h243c8 0 12 -4 12 -12v-16c0 -8 -4 -12 -12 -12z" />
    <glyph glyph-name="period" unicode="." horiz-adv-x="210" 
d="M105 -12c-20 0 -35 15 -35 35s15 34 35 34s34 -14 34 -34s-14 -35 -34 -35z" />
    <glyph glyph-name="slash" unicode="/" horiz-adv-x="347" 
d="M31 14l246 641c2 6 7 9 14 9h15c9 0 13 -5 10 -14l-246 -641c-2 -6 -7 -9 -14 -9h-15c-9 0 -13 5 -10 14z" />
    <glyph glyph-name="zero" unicode="0" horiz-adv-x="528" 
d="M58 205v215c0 142 71 216 206 216s206 -74 206 -216v-215c0 -142 -71 -217 -206 -217s-206 75 -206 217zM100 412v-199c0 -128 52 -187 164 -187s164 59 164 187v199c0 127 -52 186 -164 186s-164 -59 -164 -186z" />
    <glyph glyph-name="one" unicode="1" horiz-adv-x="528" 
d="M362 612v-600c0 -8 -4 -12 -12 -12h-18c-8 0 -12 4 -12 12v557l-167 -124c-7 -4 -12 -4 -17 3l-7 11c-5 7 -4 12 2 17l194 143c5 4 9 5 15 5h10c8 0 12 -4 12 -12z" />
    <glyph glyph-name="two" unicode="2" horiz-adv-x="528" 
d="M468 26v-14c0 -8 -4 -12 -12 -12h-373c-8 0 -12 4 -12 12v14c0 6 2 11 6 15l257 255c68 68 90 107 90 170c0 82 -58 132 -155 132c-75 0 -131 -34 -163 -98c-4 -7 -9 -9 -16 -4l-13 8c-7 4 -8 10 -5 16c39 75 111 116 198 116c120 0 196 -66 196 -170
c0 -74 -28 -124 -101 -195l-237 -233h328c8 0 12 -4 12 -12z" />
    <glyph glyph-name="three" unicode="3" horiz-adv-x="528" 
d="M359 330v-1c82 -20 129 -77 129 -160c0 -114 -80 -181 -213 -181c-93 0 -162 30 -209 92c-5 6 -5 12 1 17l11 10c7 6 14 4 18 -2c40 -53 97 -79 178 -79c109 0 172 53 172 145c0 89 -64 138 -181 138h-58c-8 0 -12 4 -12 12v14c0 8 4 12 12 12h53c110 0 169 42 169 122
c0 82 -58 129 -160 129c-74 0 -129 -27 -167 -79c-5 -6 -10 -7 -17 -1l-11 9c-6 5 -7 11 -2 17c47 60 114 92 198 92c126 0 201 -62 201 -165c0 -72 -41 -122 -112 -141z" />
    <glyph glyph-name="four" unicode="4" horiz-adv-x="528" 
d="M425 153v-141c0 -8 -4 -12 -12 -12h-18c-8 0 -12 4 -12 12v141h-327c-8 0 -12 4 -12 12v20c0 6 1 10 5 15l326 417c4 5 9 7 15 7h23c8 0 12 -4 12 -12v-421h66c8 0 12 -4 12 -12v-14c0 -8 -4 -12 -12 -12h-66zM92 191h291v370h-1z" />
    <glyph glyph-name="five" unicode="5" horiz-adv-x="528" 
d="M277 396c124 0 205 -80 205 -203c0 -125 -82 -205 -211 -205c-95 0 -164 30 -210 92c-4 6 -4 12 1 17l12 11c7 6 13 4 18 -3c40 -54 96 -79 178 -79c105 0 170 64 170 167c0 101 -65 165 -169 165c-66 0 -120 -21 -158 -60c-4 -5 -9 -7 -15 -6l-9 1c-7 1 -11 6 -10 13
l20 306c1 8 5 12 13 12h324c8 0 12 -4 12 -12v-14c0 -8 -4 -12 -12 -12h-299l-16 -242h1c40 34 93 52 155 52z" />
    <glyph glyph-name="six" unicode="6" horiz-adv-x="528" 
d="M279 396c122 0 201 -81 201 -204s-82 -204 -206 -204c-125 0 -206 81 -206 204v237c0 128 79 207 207 207c75 0 137 -27 177 -76c5 -6 4 -12 -2 -17l-13 -11c-6 -5 -11 -4 -16 2c-33 42 -81 64 -144 64c-108 0 -167 -62 -167 -178v-112h1c31 55 90 88 168 88zM274 26
c100 0 164 64 164 166c0 101 -64 166 -164 166c-98 0 -164 -66 -164 -166c0 -102 64 -166 164 -166z" />
    <glyph glyph-name="seven" unicode="7" horiz-adv-x="528" 
d="M497 612v-19c0 -6 -1 -10 -4 -16l-296 -568c-3 -6 -7 -9 -14 -9h-21c-9 0 -13 6 -9 14l299 572h-353v-99c0 -8 -4 -12 -12 -12h-16c-8 0 -12 4 -12 12v125c0 8 4 12 12 12h414c8 0 12 -4 12 -12z" />
    <glyph glyph-name="eight" unicode="8" horiz-adv-x="528" 
d="M359 330v-1c79 -23 125 -79 125 -160c0 -114 -82 -181 -220 -181s-219 67 -219 181c0 81 46 136 125 159v1c-69 22 -109 72 -109 142c0 103 76 165 203 165s203 -62 203 -165c0 -70 -40 -120 -108 -141zM103 469c0 -76 60 -122 161 -122s161 46 161 122
c0 82 -58 129 -161 129c-102 0 -161 -47 -161 -129zM264 26c113 0 178 53 178 145c0 86 -66 138 -178 138c-111 0 -177 -52 -177 -138c0 -92 65 -145 177 -145z" />
    <glyph glyph-name="nine" unicode="9" horiz-adv-x="528" 
d="M254 636c125 0 206 -81 206 -204v-237c0 -128 -78 -207 -206 -207c-76 0 -137 27 -178 76c-5 6 -4 12 2 17l13 12c6 5 11 3 16 -3c33 -42 81 -64 144 -64c109 0 167 62 167 178v112h-1c-31 -55 -90 -88 -167 -88c-123 0 -202 81 -202 204s82 204 206 204zM254 266
c99 0 164 66 164 166c0 102 -64 166 -164 166s-164 -64 -164 -166c0 -101 64 -166 164 -166z" />
    <glyph glyph-name="colon" unicode=":" horiz-adv-x="210" 
d="M105 -12c-20 0 -35 15 -35 35s15 34 35 34s34 -14 34 -34s-14 -35 -34 -35zM105 391c-20 0 -35 15 -35 35s15 34 35 34s34 -14 34 -34s-14 -35 -34 -35z" />
    <glyph glyph-name="semicolon" unicode=";" horiz-adv-x="210" 
d="M105 57c20 0 34 -14 34 -39c0 -42 -19 -81 -53 -108c-4 -3 -8 -3 -11 1l-4 5c-3 4 -3 7 1 11c19 17 29 38 32 66c-20 0 -34 12 -34 32s15 32 35 32zM105 391c-20 0 -35 15 -35 35s15 34 35 34s34 -14 34 -34s-14 -35 -34 -35z" />
    <glyph glyph-name="less" unicode="&#x3c;" horiz-adv-x="528" 
d="M89 279l388 -188c6 -3 9 -7 9 -14v-15c0 -10 -6 -13 -14 -9l-421 205c-6 3 -9 7 -9 14v14c0 7 3 11 9 14l421 205c8 4 14 1 14 -9v-15c0 -7 -3 -11 -9 -14z" />
    <glyph glyph-name="equal" unicode="=" horiz-adv-x="528" 
d="M477 371h-425c-8 0 -12 4 -12 12v14c0 8 4 12 12 12h425c8 0 12 -4 12 -12v-14c0 -8 -4 -12 -12 -12zM477 149h-425c-8 0 -12 4 -12 12v14c0 8 4 12 12 12h425c8 0 12 -4 12 -12v-14c0 -8 -4 -12 -12 -12z" />
    <glyph glyph-name="greater" unicode="&#x3e;" horiz-adv-x="528" 
d="M438 279l-388 188c-6 3 -9 7 -9 14v15c0 10 6 13 14 9l421 -205c6 -3 9 -7 9 -14v-14c0 -7 -3 -11 -9 -14l-421 -205c-8 -4 -14 -1 -14 9v15c0 7 3 11 9 14z" />
    <glyph glyph-name="question" unicode="?" horiz-adv-x="446" 
d="M226 676c121 0 196 -67 196 -173c0 -76 -26 -123 -111 -174c-72 -43 -95 -78 -95 -135v-28c0 -8 -4 -12 -12 -12h-14c-8 0 -12 4 -12 12v31c0 68 26 110 103 157s99 86 99 149c0 84 -58 135 -154 135c-72 0 -127 -34 -162 -98c-4 -7 -10 -9 -17 -5l-14 9
c-7 4 -8 10 -5 16c38 74 110 116 198 116zM198 -12c-20 0 -35 15 -35 35s15 34 35 34s34 -14 34 -34s-14 -35 -34 -35z" />
    <glyph glyph-name="at" unicode="@" horiz-adv-x="726" 
d="M388 644c-190 0 -304 -132 -304 -364c0 -207 111 -324 298 -324c70 0 129 19 177 50c7 4 12 3 15 -4l5 -10c3 -6 2 -11 -3 -15c-51 -37 -121 -53 -195 -53c-208 0 -332 131 -332 356c0 250 131 396 340 396c183 0 288 -136 288 -337c0 -154 -41 -235 -123 -235
c-47 0 -75 27 -85 67h-1c-22 -45 -66 -67 -117 -67c-82 0 -127 43 -127 113c0 69 49 111 134 111h99v13c0 85 -32 122 -103 122c-36 0 -66 -15 -89 -37c-6 -5 -11 -5 -16 0l-7 7c-5 5 -5 11 0 16c32 31 70 46 114 46c91 0 137 -50 137 -144v-133c0 -47 19 -82 61 -82
c55 0 88 64 88 204c0 184 -92 304 -254 304zM354 136c56 0 103 35 103 117v43h-95c-64 0 -102 -27 -102 -79c0 -53 31 -81 94 -81z" />
    <glyph glyph-name="A" unicode="A" horiz-adv-x="577" 
d="M128 162l-54 -152c-2 -7 -6 -10 -13 -10h-19c-9 0 -13 5 -10 14l231 640c3 7 6 10 14 10h23c8 0 11 -3 14 -10l231 -640c3 -9 -1 -14 -10 -14h-21c-7 0 -11 3 -13 10l-54 152h-319zM142 201h291l-145 408h-1z" />
    <glyph glyph-name="B" unicode="B" horiz-adv-x="561" 
d="M385 340v-1c90 -18 132 -71 132 -164c0 -120 -68 -175 -219 -175h-198c-8 0 -12 4 -12 12v640c0 8 4 12 12 12h180c151 0 219 -53 219 -170c0 -83 -36 -134 -114 -154zM131 357h149c122 0 176 41 176 134s-54 134 -176 134h-149v-268zM131 39h167c122 0 176 43 176 139
c0 97 -54 140 -176 140h-167v-279z" />
    <glyph glyph-name="C" unicode="C" horiz-adv-x="534" 
d="M286 27c85 0 142 35 173 103c3 7 9 9 16 6l14 -7c7 -3 10 -8 6 -16c-38 -84 -107 -125 -209 -125c-147 0 -224 83 -224 240v208c0 157 77 240 224 240c102 0 171 -41 209 -125c4 -8 1 -13 -6 -16l-14 -7c-7 -3 -13 -1 -16 6c-31 68 -88 103 -173 103
c-123 0 -181 -69 -181 -211v-188c0 -142 58 -211 181 -211z" />
    <glyph glyph-name="D" unicode="D" horiz-adv-x="590" 
d="M100 664h198c151 0 229 -77 229 -226v-212c0 -149 -78 -226 -229 -226h-198c-8 0 -12 4 -12 12v640c0 8 4 12 12 12zM484 237v190c0 134 -60 198 -187 198h-166v-586h166c127 0 187 64 187 198z" />
    <glyph glyph-name="E" unicode="E" horiz-adv-x="537" 
d="M131 355h303c8 0 12 -4 12 -12v-15c0 -8 -4 -12 -12 -12h-303v-277h347c8 0 12 -4 12 -12v-15c0 -8 -4 -12 -12 -12h-378c-8 0 -12 4 -12 12v640c0 8 4 12 12 12h378c8 0 12 -4 12 -12v-15c0 -8 -4 -12 -12 -12h-347v-270z" />
    <glyph glyph-name="F" unicode="F" horiz-adv-x="500" 
d="M131 352h293c8 0 12 -4 12 -12v-15c0 -8 -4 -12 -12 -12h-293v-301c0 -8 -4 -12 -12 -12h-19c-8 0 -12 4 -12 12v640c0 8 4 12 12 12h368c8 0 12 -4 12 -12v-15c0 -8 -4 -12 -12 -12h-337v-273z" />
    <glyph glyph-name="G" unicode="G" horiz-adv-x="570" 
d="M516 325v-96c0 -158 -78 -241 -226 -241c-149 0 -228 83 -228 240v208c0 157 79 240 229 240c103 0 173 -41 212 -125c3 -7 1 -13 -6 -16l-14 -7c-7 -3 -13 -1 -16 6c-33 68 -90 103 -176 103c-126 0 -186 -68 -186 -212v-186c0 -144 60 -212 185 -212
c124 0 184 69 184 213v58h-162c-8 0 -12 4 -12 12v15c0 8 4 12 12 12h192c8 0 12 -4 12 -12z" />
    <glyph glyph-name="H" unicode="H" horiz-adv-x="624" 
d="M524 0h-19c-8 0 -12 4 -12 12v304h-362v-304c0 -8 -4 -12 -12 -12h-19c-8 0 -12 4 -12 12v640c0 8 4 12 12 12h19c8 0 12 -4 12 -12v-297h362v297c0 8 4 12 12 12h19c8 0 12 -4 12 -12v-640c0 -8 -4 -12 -12 -12z" />
    <glyph glyph-name="I" unicode="I" horiz-adv-x="219" 
d="M131 652v-640c0 -8 -4 -12 -12 -12h-19c-8 0 -12 4 -12 12v640c0 8 4 12 12 12h19c8 0 12 -4 12 -12z" />
    <glyph glyph-name="J" unicode="J" horiz-adv-x="516" 
d="M441 652v-433c0 -151 -74 -231 -214 -231c-91 0 -158 38 -201 113c-4 7 -2 13 5 17l13 8c7 4 13 3 17 -4c35 -64 91 -95 165 -95c117 0 172 65 172 202v423c0 8 4 12 12 12h19c8 0 12 -4 12 -12z" />
    <glyph glyph-name="K" unicode="K" horiz-adv-x="541" 
d="M119 0h-19c-8 0 -12 4 -12 12v640c0 8 4 12 12 12h19c8 0 12 -4 12 -12v-304l312 310c4 4 9 6 15 6h28c11 0 14 -7 6 -15l-315 -312l326 -322c8 -8 5 -15 -6 -15h-31c-6 0 -11 2 -15 6l-320 319v-313c0 -8 -4 -12 -12 -12z" />
    <glyph glyph-name="L" unicode="L" horiz-adv-x="495" 
d="M475 27v-15c0 -8 -4 -12 -12 -12h-363c-8 0 -12 4 -12 12v640c0 8 4 12 12 12h19c8 0 12 -4 12 -12v-613h332c8 0 12 -4 12 -12z" />
    <glyph glyph-name="M" unicode="M" horiz-adv-x="808" 
d="M708 0h-19c-8 0 -12 4 -12 12v592h-1l-251 -595c-3 -6 -7 -9 -14 -9h-15c-7 0 -11 3 -14 9l-251 595h-1v-592c0 -8 -4 -12 -12 -12h-18c-8 0 -12 4 -12 12v640c0 8 4 12 12 12h42c7 0 11 -3 14 -9l248 -592l247 592c3 6 7 9 14 9h43c8 0 12 -4 12 -12v-640
c0 -8 -4 -12 -12 -12z" />
    <glyph glyph-name="N" unicode="N" horiz-adv-x="624" 
d="M524 0h-22c-6 0 -10 2 -14 8l-357 584h-1v-580c0 -8 -4 -12 -12 -12h-18c-8 0 -12 4 -12 12v640c0 8 4 12 12 12h26c6 0 10 -2 14 -8l353 -578h1v574c0 8 4 12 12 12h18c8 0 12 -4 12 -12v-640c0 -8 -4 -12 -12 -12z" />
    <glyph glyph-name="O" unicode="O" horiz-adv-x="582" 
d="M62 228v208c0 157 79 240 229 240s229 -83 229 -240v-208c0 -157 -79 -240 -229 -240s-229 83 -229 240zM105 426v-188c0 -143 60 -211 186 -211s186 68 186 211v188c0 143 -60 211 -186 211s-186 -68 -186 -211z" />
    <glyph glyph-name="P" unicode="P" horiz-adv-x="538" 
d="M100 664h184c155 0 226 -60 226 -193c0 -132 -71 -192 -226 -192h-153v-267c0 -8 -4 -12 -12 -12h-19c-8 0 -12 4 -12 12v640c0 8 4 12 12 12zM131 318h153c126 0 183 49 183 153c0 106 -57 154 -183 154h-153v-307z" />
    <glyph glyph-name="Q" unicode="Q" horiz-adv-x="582" 
d="M538 -92l8 -12c4 -6 3 -12 -2 -16c-28 -23 -65 -36 -103 -36c-88 0 -139 51 -143 144h-7c-150 0 -229 83 -229 240v208c0 157 79 240 229 240s229 -83 229 -240v-208c0 -138 -61 -219 -179 -237c2 -73 34 -109 101 -109c31 0 56 11 79 29c7 5 12 4 17 -3zM105 426v-188
c0 -143 60 -211 186 -211s186 68 186 211v188c0 143 -60 211 -186 211s-186 -68 -186 -211z" />
    <glyph glyph-name="R" unicode="R" horiz-adv-x="567" 
d="M131 280v-268c0 -8 -4 -12 -12 -12h-19c-8 0 -12 4 -12 12v640c0 8 4 12 12 12h177c156 0 228 -61 228 -192c0 -111 -52 -172 -164 -188l175 -269c6 -9 2 -15 -8 -15h-26c-6 0 -11 2 -14 8l-173 272h-164zM131 319h146c127 0 185 48 185 153s-58 153 -185 153h-146v-306z
" />
    <glyph glyph-name="S" unicode="S" horiz-adv-x="505" 
d="M256 676c89 0 155 -30 196 -88c5 -8 4 -13 -2 -18l-13 -10c-6 -4 -13 -3 -18 4c-33 48 -88 73 -162 73c-99 0 -165 -57 -165 -144c0 -80 45 -120 178 -142c152 -25 204 -75 204 -180c0 -110 -82 -183 -206 -183c-100 0 -178 35 -227 103c-4 6 -3 11 3 16l12 11
c6 5 12 4 17 -3c42 -58 108 -88 194 -88c99 0 165 57 165 144c0 80 -43 118 -176 139c-153 24 -206 77 -206 183c0 110 82 183 206 183z" />
    <glyph glyph-name="T" unicode="T" horiz-adv-x="477" 
d="M260 625v-613c0 -8 -4 -12 -12 -12h-19c-8 0 -12 4 -12 12v613h-185c-8 0 -12 4 -12 12v15c0 8 4 12 12 12h413c8 0 12 -4 12 -12v-15c0 -8 -4 -12 -12 -12h-185z" />
    <glyph glyph-name="U" unicode="U" horiz-adv-x="588" 
d="M512 652v-433c0 -151 -75 -231 -218 -231s-218 80 -218 231v433c0 8 4 12 12 12h19c8 0 12 -4 12 -12v-423c0 -138 56 -202 175 -202s176 64 176 202v423c0 8 4 12 12 12h18c8 0 12 -4 12 -12z" />
    <glyph glyph-name="V" unicode="V" horiz-adv-x="559" 
d="M290 0h-21c-7 0 -12 4 -14 11l-223 639c-3 9 1 14 10 14h21c7 0 11 -3 13 -10l204 -591h1l203 591c2 7 6 10 13 10h20c9 0 13 -5 10 -14l-223 -639c-2 -7 -7 -11 -14 -11z" />
    <glyph glyph-name="W" unicode="W" horiz-adv-x="848" 
d="M621 0h-23c-8 0 -13 4 -15 11l-158 568h-1l-159 -568c-2 -7 -7 -11 -15 -11h-23c-8 0 -13 4 -15 11l-179 640c-2 8 1 13 10 13h21c8 0 12 -3 14 -10l161 -584h1l162 583c2 7 7 11 15 11h15c8 0 13 -4 15 -11l163 -583h1l160 584c2 7 6 10 14 10h20c9 0 12 -5 10 -13
l-179 -640c-2 -7 -7 -11 -15 -11z" />
    <glyph glyph-name="X" unicode="X" horiz-adv-x="548" 
d="M273 307l-184 -299c-3 -6 -8 -8 -14 -8h-23c-10 0 -13 6 -8 14l203 325l-194 311c-5 8 -2 14 8 14h26c6 0 11 -2 14 -8l174 -283l173 283c4 6 8 8 14 8h24c10 0 13 -6 8 -14l-193 -310l203 -326c5 -8 2 -14 -8 -14h-26c-6 0 -10 2 -14 8z" />
    <glyph glyph-name="Y" unicode="Y" horiz-adv-x="509" 
d="M264 0h-19c-8 0 -12 4 -12 12v285l-219 353c-5 8 -2 14 8 14h25c6 0 11 -2 14 -8l195 -317l193 317c4 6 8 8 14 8h24c10 0 13 -6 8 -14l-219 -353v-285c0 -8 -4 -12 -12 -12z" />
    <glyph glyph-name="Z" unicode="Z" horiz-adv-x="514" 
d="M461 0h-409c-8 0 -12 4 -12 12v21c0 6 1 10 4 15l373 577h-350c-8 0 -12 4 -12 12v15c0 8 4 12 12 12h389c8 0 12 -4 12 -12v-21c0 -6 -1 -10 -4 -15l-374 -577h371c8 0 12 -4 12 -12v-15c0 -8 -4 -12 -12 -12z" />
    <glyph glyph-name="bracketleft" unicode="[" horiz-adv-x="312" 
d="M138 -55h119c8 0 12 -4 12 -12v-11c0 -8 -4 -12 -12 -12h-148c-8 0 -12 4 -12 12v730c0 8 4 12 12 12h148c8 0 12 -4 12 -12v-11c0 -8 -4 -12 -12 -12h-119v-684z" />
    <glyph glyph-name="backslash" unicode="\" horiz-adv-x="347" 
d="M41 664h15c7 0 12 -3 14 -9l246 -641c3 -9 -1 -14 -10 -14h-15c-7 0 -12 3 -14 9l-246 641c-3 9 1 14 10 14z" />
    <glyph glyph-name="bracketright" unicode="]" horiz-adv-x="312" 
d="M174 629h-119c-8 0 -12 4 -12 12v11c0 8 4 12 12 12h148c8 0 12 -4 12 -12v-730c0 -8 -4 -12 -12 -12h-148c-8 0 -12 4 -12 12v11c0 8 4 12 12 12h119v684z" />
    <glyph glyph-name="asciicircum" unicode="^" horiz-adv-x="528" 
d="M264 581l-195 -315c-4 -6 -8 -8 -14 -8h-18c-10 0 -13 6 -8 14l212 343c4 6 9 9 15 9h17c6 0 11 -3 15 -9l212 -343c5 -8 2 -14 -8 -14h-19c-6 0 -10 2 -14 8z" />
    <glyph glyph-name="underscore" unicode="_" horiz-adv-x="500" 
d="M0 -94v28h500v-28h-500z" />
    <glyph glyph-name="grave" unicode="`" horiz-adv-x="500" 
d="M265 567h-16c-5 0 -9 2 -13 7l-88 124c-6 8 -2 15 8 15h20c6 0 10 -2 14 -8l82 -125c5 -7 2 -13 -7 -13z" />
    <glyph glyph-name="a" unicode="a" horiz-adv-x="451" 
d="M216 503c117 0 178 -63 178 -187v-141c0 -122 -61 -187 -181 -187c-108 0 -169 53 -169 145c0 91 63 146 174 146h135v27c0 110 -44 160 -139 160c-48 0 -91 -18 -120 -50c-6 -6 -11 -6 -17 0l-10 10c-6 6 -5 12 0 18c41 40 92 59 149 59zM213 25c97 0 140 50 140 159v58
h-130c-89 0 -138 -39 -138 -109s45 -108 128 -108z" />
    <glyph glyph-name="b" unicode="b" horiz-adv-x="487" 
d="M255 503c115 0 175 -63 175 -186v-142c0 -122 -62 -187 -179 -187s-179 65 -179 187v513c0 8 4 12 12 12h17c8 0 12 -4 12 -12v-259h1c25 49 73 74 141 74zM389 184v124c0 108 -43 158 -138 158c-92 0 -138 -53 -138 -158v-124c0 -109 43 -159 138 -159s138 50 138 159z
" />
    <glyph glyph-name="c" unicode="c" horiz-adv-x="412" 
d="M370 76l10 -11c5 -5 5 -11 0 -17c-38 -40 -86 -60 -144 -60c-116 0 -179 65 -179 188v140c0 124 62 187 177 187c58 0 105 -17 138 -51c6 -6 5 -12 0 -17l-9 -10c-6 -6 -13 -6 -18 0c-28 28 -62 41 -109 41c-94 0 -138 -50 -138 -160v-121c0 -110 46 -160 142 -160
c45 0 81 16 113 50c6 7 11 7 17 1z" />
    <glyph glyph-name="d" unicode="d" horiz-adv-x="487" 
d="M415 688v-513c0 -122 -62 -187 -179 -187s-179 65 -179 187v142c0 123 60 186 175 186c67 0 115 -24 141 -73h1v258c0 8 4 12 12 12h17c8 0 12 -4 12 -12zM374 184v124c0 105 -45 158 -138 158c-95 0 -138 -50 -138 -158v-124c0 -109 43 -159 138 -159s138 50 138 159z
" />
    <glyph glyph-name="e" unicode="e" horiz-adv-x="453" 
d="M233 503c115 0 175 -63 175 -186v-73c0 -8 -4 -12 -12 -12h-298v-47c0 -111 46 -160 149 -160c48 0 85 16 120 56c6 7 12 7 18 1l9 -10c5 -5 6 -11 1 -17c-40 -45 -90 -67 -150 -67c-123 0 -188 63 -188 188v141c0 123 61 186 176 186zM368 269v39
c0 109 -42 158 -135 158s-135 -49 -135 -158v-39h270z" />
    <glyph glyph-name="f" unicode="f" horiz-adv-x="316" 
d="M246 675c-71 0 -106 -43 -106 -128v-56h164c8 0 12 -4 12 -12v-13c0 -8 -4 -12 -12 -12h-164v-442c0 -8 -4 -12 -12 -12h-17c-8 0 -12 4 -12 12v442h-68c-8 0 -12 4 -12 12v13c0 8 4 12 12 12h68v61c0 103 51 160 145 160c38 0 68 -7 96 -24c7 -4 8 -10 4 -16l-7 -12
c-4 -7 -10 -7 -15 -4c-22 14 -46 19 -76 19z" />
    <glyph glyph-name="g" unicode="g" horiz-adv-x="487" 
d="M236 503c117 0 179 -65 179 -187v-318c0 -105 -68 -170 -177 -170c-66 0 -118 19 -160 59c-5 5 -6 11 -1 17l10 12c5 6 11 6 17 0c35 -33 76 -51 133 -51c89 0 137 51 137 142v68h-1c-25 -49 -73 -74 -141 -74c-115 0 -175 64 -175 186v129c0 122 62 187 179 187zM236 38
c93 0 138 52 138 159v110c0 109 -43 159 -138 159s-138 -50 -138 -159v-110c0 -109 43 -159 138 -159z" />
    <glyph glyph-name="h" unicode="h" horiz-adv-x="501" 
d="M258 503c112 0 171 -62 171 -182v-309c0 -8 -4 -12 -12 -12h-17c-8 0 -12 4 -12 12v300c0 105 -43 154 -135 154c-90 0 -134 -52 -134 -154v-300c0 -8 -4 -12 -12 -12h-17c-8 0 -12 4 -12 12v676c0 8 4 12 12 12h17c8 0 12 -4 12 -12v-256h1c25 47 72 71 138 71z" />
    <glyph glyph-name="i" unicode="i" horiz-adv-x="196" 
d="M98 598c-19 0 -33 15 -33 33c0 19 14 33 33 33s33 -14 33 -33c0 -18 -14 -33 -33 -33zM107 0h-17c-8 0 -12 4 -12 12v467c0 8 4 12 12 12h17c8 0 12 -4 12 -12v-467c0 -8 -4 -12 -12 -12z" />
    <glyph glyph-name="j" unicode="j" horiz-adv-x="196" 
d="M98 598c-19 0 -33 15 -33 33c0 19 14 33 33 33s33 -14 33 -33c0 -18 -14 -33 -33 -33zM-9 -123h1c57 0 86 31 86 94v508c0 8 4 12 12 12h17c8 0 12 -4 12 -12v-508c0 -86 -42 -131 -123 -131h-5c-8 0 -12 4 -12 12v13c0 8 4 12 12 12z" />
    <glyph glyph-name="k" unicode="k" horiz-adv-x="423" 
d="M119 239v-227c0 -8 -4 -12 -12 -12h-17c-8 0 -12 4 -12 12v676c0 8 4 12 12 12h17c8 0 12 -4 12 -12v-426l222 223c4 4 9 6 15 6h27c11 0 14 -7 6 -15l-227 -225l238 -236c8 -8 5 -15 -6 -15h-28c-6 0 -11 2 -15 6z" />
    <glyph glyph-name="l" unicode="l" horiz-adv-x="196" 
d="M107 0h-17c-8 0 -12 4 -12 12v676c0 8 4 12 12 12h17c8 0 12 -4 12 -12v-676c0 -8 -4 -12 -12 -12z" />
    <glyph glyph-name="m" unicode="m" horiz-adv-x="763" 
d="M526 503c108 0 165 -62 165 -180v-311c0 -8 -4 -12 -12 -12h-17c-8 0 -12 4 -12 12v302c0 104 -39 152 -126 152c-84 0 -122 -48 -122 -152v-302c0 -8 -4 -12 -12 -12h-17c-8 0 -12 4 -12 12v302c0 104 -40 152 -126 152c-83 0 -122 -48 -122 -152v-302
c0 -8 -4 -12 -12 -12h-17c-8 0 -12 4 -12 12v311c0 118 56 180 162 180c75 0 124 -28 147 -86h1c21 58 68 86 144 86z" />
    <glyph glyph-name="n" unicode="n" horiz-adv-x="496" 
d="M383 12v300c0 105 -42 154 -135 154c-92 0 -135 -49 -135 -154v-300c0 -8 -4 -12 -12 -12h-17c-8 0 -12 4 -12 12v309c0 120 61 182 176 182s176 -62 176 -182v-309c0 -8 -4 -12 -12 -12h-17c-8 0 -12 4 -12 12z" />
    <glyph glyph-name="o" unicode="o" horiz-adv-x="472" 
d="M236 503c117 0 179 -63 179 -186v-143c0 -122 -62 -186 -179 -186s-179 64 -179 186v143c0 123 62 186 179 186zM374 184v124c0 108 -43 158 -138 158s-138 -50 -138 -158v-124c0 -109 43 -159 138 -159s138 50 138 159z" />
    <glyph glyph-name="p" unicode="p" horiz-adv-x="487" 
d="M251 503c117 0 179 -65 179 -187v-142c0 -122 -60 -186 -175 -186c-68 0 -116 25 -141 74h-1v-210c0 -8 -4 -12 -12 -12h-17c-8 0 -12 4 -12 12v464c0 122 62 187 179 187zM389 184v123c0 109 -43 159 -138 159s-138 -50 -138 -159v-123c0 -107 46 -159 138 -159
c95 0 138 50 138 159z" />
    <glyph glyph-name="q" unicode="q" horiz-adv-x="487" 
d="M236 503c117 0 179 -65 179 -187v-464c0 -8 -4 -12 -12 -12h-17c-8 0 -12 4 -12 12v210h-1c-25 -49 -73 -74 -141 -74c-115 0 -175 64 -175 186v142c0 122 62 187 179 187zM98 307v-123c0 -109 43 -159 138 -159c92 0 138 52 138 159v123c0 109 -43 159 -138 159
s-138 -50 -138 -159z" />
    <glyph glyph-name="r" unicode="r" horiz-adv-x="361" 
d="M72 12v322c0 111 53 169 155 169c43 0 80 -11 110 -34c6 -4 7 -10 2 -17l-8 -11c-4 -6 -10 -7 -17 -2c-23 18 -53 27 -85 27c-80 0 -116 -43 -116 -140v-314c0 -8 -4 -12 -12 -12h-17c-8 0 -12 4 -12 12z" />
    <glyph glyph-name="s" unicode="s" horiz-adv-x="411" 
d="M379 129c0 -86 -63 -141 -163 -141c-78 0 -135 21 -177 65c-5 5 -5 11 0 17l9 10c5 6 11 6 17 0c35 -36 85 -55 148 -55c79 0 125 39 125 105c0 60 -34 89 -136 102c-116 15 -156 52 -156 130c0 86 65 141 169 141c55 0 107 -17 143 -47c6 -5 5 -11 1 -17l-7 -10
c-5 -7 -12 -7 -19 -1c-28 24 -70 38 -115 38c-83 0 -131 -38 -131 -104c0 -55 31 -79 129 -93c78 -11 163 -26 163 -140z" />
    <glyph glyph-name="t" unicode="t" horiz-adv-x="349" 
d="M323 43l6 -11c3 -7 2 -12 -4 -17c-26 -18 -58 -27 -91 -27c-88 0 -135 50 -135 141v325h-68c-8 0 -12 4 -12 12v13c0 8 4 12 12 12h68v124c0 8 4 12 12 12h17c8 0 12 -4 12 -12v-124h164c8 0 12 -4 12 -12v-13c0 -8 -4 -12 -12 -12h-164v-320c0 -73 32 -109 97 -109
c25 0 47 7 70 22c6 4 12 3 16 -4z" />
    <glyph glyph-name="u" unicode="u" horiz-adv-x="490" 
d="M418 479v-312c0 -117 -60 -179 -173 -179s-173 62 -173 179v312c0 8 4 12 12 12h17c8 0 12 -4 12 -12v-303c0 -104 42 -151 132 -151c91 0 133 47 133 151v303c0 8 4 12 12 12h16c8 0 12 -4 12 -12z" />
    <glyph glyph-name="v" unicode="v" horiz-adv-x="441" 
d="M230 0h-19c-7 0 -12 4 -15 11l-172 466c-3 9 1 14 10 14h21c8 0 12 -4 14 -11l152 -422h1l152 422c2 7 6 11 13 11h20c9 0 13 -5 10 -14l-172 -466c-3 -7 -8 -11 -15 -11z" />
    <glyph glyph-name="w" unicode="w" horiz-adv-x="676" 
d="M498 0h-23c-7 0 -12 4 -14 11l-122 402h-1l-123 -402c-2 -7 -7 -11 -14 -11h-23c-7 0 -12 4 -14 11l-139 466c-3 9 1 14 10 14h20c8 0 12 -3 14 -10l121 -415h1l126 414c2 7 7 11 14 11h16c7 0 12 -4 14 -11l126 -414h1l121 415c2 7 6 10 13 10h19c9 0 13 -5 10 -14
l-139 -466c-2 -7 -7 -11 -14 -11z" />
    <glyph glyph-name="x" unicode="x" horiz-adv-x="449" 
d="M223 226l-144 -218c-4 -6 -8 -8 -14 -8h-20c-9 0 -13 6 -7 15l159 239l-148 222c-6 9 -2 15 7 15h23c6 0 10 -2 14 -8l132 -202l133 202c4 6 8 8 14 8h20c10 0 14 -6 8 -15l-149 -222l160 -239c6 -9 2 -15 -7 -15h-24c-6 0 -10 2 -14 8z" />
    <glyph glyph-name="y" unicode="y" horiz-adv-x="501" 
d="M424 479v-481c0 -105 -68 -170 -177 -170c-66 0 -118 19 -160 59c-5 5 -5 11 0 17l9 11c5 6 11 6 17 0c35 -32 76 -50 132 -50c90 0 138 51 138 142v65h-1c-25 -47 -73 -71 -139 -71c-112 0 -171 63 -171 182v296c0 8 4 12 12 12h17c8 0 12 -4 12 -12v-286
c0 -107 43 -155 135 -155c91 0 135 51 135 155v286c0 8 4 12 12 12h17c8 0 12 -4 12 -12z" />
    <glyph glyph-name="z" unicode="z" horiz-adv-x="418" 
d="M368 0h-318c-8 0 -12 4 -12 12v18c0 6 1 10 5 16l282 408h-260c-8 0 -12 4 -12 12v13c0 8 4 12 12 12h298c8 0 12 -4 12 -12v-19c0 -6 -1 -10 -5 -16l-284 -407h282c8 0 12 -4 12 -12v-13c0 -8 -4 -12 -12 -12z" />
    <glyph glyph-name="braceleft" unicode="{" horiz-adv-x="322" 
d="M168 531v-135c0 -62 -20 -96 -63 -108v-1c43 -12 63 -47 63 -109v-135c0 -71 28 -98 99 -98c8 0 12 -4 12 -12v-11c0 -8 -4 -12 -12 -12h-4c-95 0 -136 39 -136 129v146c0 57 -26 84 -69 84c-8 0 -12 4 -12 12v12c0 8 4 12 12 12c43 0 69 27 69 84v146
c0 90 41 129 136 129h4c8 0 12 -4 12 -12v-11c0 -8 -4 -12 -12 -12c-71 0 -99 -27 -99 -98z" />
    <glyph glyph-name="bar" unicode="|" horiz-adv-x="264" 
d="M139 -160h-14c-7 0 -11 4 -11 11v838c0 7 4 11 11 11h14c7 0 11 -4 11 -11v-838c0 -7 -4 -11 -11 -11z" />
    <glyph glyph-name="braceright" unicode="}" horiz-adv-x="322" 
d="M154 43v135c0 62 20 96 63 108v1c-43 12 -63 47 -63 109v135c0 71 -28 98 -99 98c-8 0 -12 4 -12 12v11c0 8 4 12 12 12h4c95 0 136 -39 136 -129v-146c0 -57 26 -84 69 -84c8 0 12 -4 12 -12v-12c0 -8 -4 -12 -12 -12c-43 0 -69 -27 -69 -84v-146
c0 -90 -41 -129 -136 -129h-4c-8 0 -12 4 -12 12v11c0 8 4 12 12 12c71 0 99 27 99 98z" />
    <glyph glyph-name="asciitilde" unicode="~" horiz-adv-x="528" 
d="M157 298c-42 0 -71 -20 -102 -69c-4 -7 -10 -9 -16 -5l-13 8c-6 4 -8 10 -4 16c38 61 79 88 133 88c40 0 74 -12 119 -42c42 -28 67 -36 97 -36c43 0 71 19 103 69c4 6 10 8 16 4l12 -7c6 -4 8 -10 4 -17c-38 -60 -79 -87 -133 -87c-40 0 -75 12 -119 42
c-45 30 -67 36 -97 36z" />
    <glyph glyph-name="uni00A0" unicode="&#xa0;" horiz-adv-x="215" 
 />
    <glyph glyph-name="exclamdown" unicode="&#xa1;" horiz-adv-x="212" 
d="M86 301l8 201c0 5 3 8 8 8h8c5 0 8 -3 8 -8l9 -201v-289c0 -8 -4 -12 -12 -12h-17c-8 0 -12 4 -12 12v289zM106 676c20 0 35 -15 35 -35s-15 -34 -35 -34s-34 14 -34 34s14 35 34 35z" />
    <glyph glyph-name="cent" unicode="&#xa2;" horiz-adv-x="528" 
d="M442 99l10 -11c5 -5 5 -11 0 -17c-36 -36 -79 -57 -136 -62v-68c0 -7 -4 -11 -11 -11h-16c-7 0 -11 4 -11 11v67c-122 5 -184 72 -184 197v124c0 124 61 191 184 195v61c0 7 4 11 11 11h16c7 0 11 -4 11 -11v-62c56 -5 96 -22 127 -53c6 -6 6 -12 1 -17l-10 -11
c-5 -6 -12 -5 -17 0c-26 27 -56 40 -101 44v-440c46 4 78 21 109 53c5 6 11 6 17 0zM135 318v-105c0 -109 43 -162 143 -168v442c-100 -4 -143 -58 -143 -169z" />
    <glyph glyph-name="sterling" unicode="&#xa3;" horiz-adv-x="528" 
d="M473 551c4 -7 3 -12 -3 -17l-13 -10c-6 -5 -12 -4 -17 3c-31 47 -83 71 -153 71c-98 0 -157 -52 -157 -139c0 -35 8 -64 30 -111c6 -13 13 -27 18 -42h208c8 0 12 -4 12 -12v-13c0 -8 -4 -12 -12 -12h-197c4 -17 6 -36 6 -58c0 -68 -19 -119 -64 -172v-1h321
c8 0 12 -4 12 -12v-14c0 -8 -4 -12 -12 -12h-357c-8 0 -12 4 -12 12v14c0 7 2 11 6 15c49 53 67 98 67 167c0 23 -3 43 -8 61h-68c-8 0 -12 4 -12 12v13c0 8 4 12 12 12h56c-4 11 -9 21 -14 31c-24 48 -34 84 -34 127c0 105 77 172 197 172c83 0 148 -29 188 -85z" />
    <glyph glyph-name="currency" unicode="&#xa4;" horiz-adv-x="528" 
d="M440 309c0 -43 -14 -82 -38 -111l75 -75c5 -5 5 -11 0 -16l-9 -10c-5 -5 -11 -5 -16 0l-76 75c-30 -24 -68 -38 -112 -38s-82 14 -112 38l-75 -75c-5 -5 -11 -5 -16 0l-10 10c-5 5 -5 11 0 16l75 75c-24 29 -38 68 -38 111s14 82 38 112l-75 75c-5 5 -5 11 0 16l10 10
c5 5 11 5 16 0l75 -75c30 25 68 39 112 39s83 -14 113 -39l75 75c5 5 11 5 16 0l10 -10c4 -5 4 -11 -1 -16l-75 -75c24 -30 38 -69 38 -112zM124 309c0 -82 60 -141 140 -141c81 0 142 60 142 141c0 82 -61 143 -142 143c-80 0 -140 -61 -140 -143z" />
    <glyph glyph-name="yen" unicode="&#xa5;" horiz-adv-x="528" 
d="M292 316h154c8 0 12 -4 12 -12v-12c0 -8 -4 -12 -12 -12h-161v-104h160c8 0 12 -4 12 -12v-12c0 -8 -4 -12 -12 -12h-160v-128c0 -8 -4 -12 -12 -12h-18c-8 0 -12 4 -12 12v128h-164c-8 0 -12 4 -12 12v12c0 8 4 12 12 12h164v104h-163c-8 0 -12 4 -12 12v12
c0 8 4 12 12 12h157l-193 293c-6 9 -2 15 7 15h23c6 0 11 -2 14 -8l177 -275l177 275c3 6 8 8 14 8h23c9 0 13 -6 7 -15z" />
    <glyph glyph-name="brokenbar" unicode="&#xa6;" horiz-adv-x="264" 
d="M139 350h-14c-7 0 -11 4 -11 11v328c0 7 4 11 11 11h14c7 0 11 -4 11 -11v-328c0 -7 -4 -11 -11 -11zM139 -160h-14c-7 0 -11 4 -11 11v328c0 7 4 11 11 11h14c7 0 11 -4 11 -11v-328c0 -7 -4 -11 -11 -11z" />
    <glyph glyph-name="section" unicode="&#xa7;" horiz-adv-x="559" 
d="M385 123v-1c57 -18 99 -51 99 -130c0 -99 -78 -164 -199 -164c-100 0 -170 31 -217 91c-5 6 -4 12 2 17l11 9c7 5 12 4 17 -2c41 -52 100 -79 186 -79c98 0 161 49 161 128c0 69 -42 100 -173 112c-157 14 -212 62 -212 162c0 70 40 124 111 149v1c-56 19 -96 53 -96 132
c0 99 79 164 200 164c85 0 148 -25 189 -79c5 -7 3 -12 -3 -17l-11 -9c-6 -5 -12 -3 -17 3c-34 44 -83 66 -158 66c-98 0 -160 -50 -160 -128c0 -71 43 -103 175 -115c155 -14 209 -61 209 -159c0 -71 -42 -126 -114 -151zM100 269c0 -79 44 -112 177 -128l41 -5
c87 11 142 61 142 135c0 77 -44 110 -180 126l-43 5c-85 -11 -137 -61 -137 -133z" />
    <glyph glyph-name="dieresis" unicode="&#xa8;" horiz-adv-x="500" 
d="M173 599c-19 0 -33 14 -33 32c0 19 14 33 33 33c18 0 32 -14 32 -33c0 -18 -14 -32 -32 -32zM327 599c-18 0 -32 14 -32 32c0 19 14 33 32 33c19 0 33 -14 33 -33c0 -18 -14 -32 -33 -32z" />
    <glyph glyph-name="copyright" unicode="&#xa9;" horiz-adv-x="776" 
d="M388 676c196 0 344 -148 344 -344s-148 -344 -344 -344s-344 148 -344 344s148 344 344 344zM388 19c176 0 310 135 310 313s-134 313 -310 313s-310 -135 -310 -313s134 -313 310 -313zM387 492c-63 0 -92 -35 -92 -108v-104c0 -73 29 -108 92 -108c42 0 69 18 88 49
c4 6 8 9 15 5l9 -5c6 -3 7 -8 3 -15c-23 -43 -61 -65 -115 -65c-83 0 -127 46 -127 133v116c0 87 44 133 127 133c55 0 92 -23 115 -65c4 -7 2 -12 -4 -15l-9 -5c-6 -3 -12 -3 -15 3c-16 33 -45 51 -87 51z" />
    <glyph glyph-name="ordfeminine" unicode="&#xaa;" horiz-adv-x="345" 
d="M164 636c91 0 139 -50 139 -145v-108c0 -94 -48 -144 -141 -144c-84 0 -132 42 -132 113s49 113 135 113h100v18c0 83 -33 119 -103 119c-35 0 -67 -12 -90 -36c-5 -5 -11 -6 -16 0l-8 10c-4 5 -4 11 1 16c32 29 71 44 115 44zM162 273c72 0 103 36 103 117v42h-95
c-65 0 -102 -27 -102 -79c0 -51 34 -80 94 -80z" />
    <glyph glyph-name="guillemotleft" unicode="&#xab;" horiz-adv-x="395" 
d="M237 246l111 -173c5 -8 2 -14 -8 -14h-14c-6 0 -11 3 -14 8l-110 171c-3 5 -3 11 0 16l110 170c3 5 8 8 14 8h14c10 0 13 -6 8 -14zM69 246l111 -173c5 -8 2 -14 -8 -14h-14c-6 0 -11 3 -14 8l-110 171c-3 5 -3 11 0 16l110 170c3 5 8 8 14 8h14c10 0 13 -6 8 -14z" />
    <glyph glyph-name="logicalnot" unicode="&#xac;" horiz-adv-x="528" 
d="M507 353v-238c0 -8 -4 -12 -12 -12h-14c-8 0 -12 4 -12 12v212h-436c-8 0 -12 4 -12 12v14c0 8 4 12 12 12h462c8 0 12 -4 12 -12z" />
    <glyph glyph-name="uni00AD" unicode="&#xad;" horiz-adv-x="327" 
d="M285 251h-243c-8 0 -12 4 -12 12v16c0 8 4 12 12 12h243c8 0 12 -4 12 -12v-16c0 -8 -4 -12 -12 -12z" />
    <glyph glyph-name="registered" unicode="&#xae;" horiz-adv-x="776" 
d="M388 676c196 0 344 -148 344 -344s-148 -344 -344 -344s-344 148 -344 344s148 344 344 344zM388 19c176 0 310 135 310 313s-134 313 -310 313s-310 -135 -310 -313s134 -313 310 -313zM518 408c0 -60 -28 -95 -86 -106l89 -141c4 -7 1 -13 -8 -13h-16c-6 0 -11 2 -14 7
l-87 144h-80v-140c0 -7 -4 -11 -11 -11h-13c-7 0 -11 4 -11 11v346c0 7 4 11 11 11h98c86 0 128 -34 128 -108zM316 330h74c64 0 94 25 94 79c0 53 -30 76 -94 76h-74v-155z" />
    <glyph glyph-name="macron" unicode="&#xaf;" horiz-adv-x="500" 
d="M374 634v-12c0 -8 -4 -12 -12 -12h-223c-8 0 -12 4 -12 12v12c0 8 4 12 12 12h223c8 0 12 -4 12 -12z" />
    <glyph glyph-name="degree" unicode="&#xb0;" horiz-adv-x="349" 
d="M175 353c-81 0 -142 60 -142 141c0 82 61 142 142 142s141 -60 141 -142c0 -81 -60 -141 -141 -141zM175 389c59 0 103 45 103 105c0 61 -44 106 -103 106s-104 -45 -104 -106c0 -60 45 -105 104 -105z" />
    <glyph glyph-name="plusminus" unicode="&#xb1;" horiz-adv-x="528" 
d="M498 319v-14c0 -8 -4 -12 -12 -12h-203v-191c0 -8 -4 -12 -12 -12h-14c-8 0 -12 4 -12 12v191h-203c-8 0 -12 4 -12 12v14c0 8 4 12 12 12h203v190c0 8 4 12 12 12h14c8 0 12 -4 12 -12v-190h203c8 0 12 -4 12 -12zM42 38h444c8 0 12 -4 12 -12v-14c0 -8 -4 -12 -12 -12
h-444c-8 0 -12 4 -12 12v14c0 8 4 12 12 12z" />
    <glyph glyph-name="twosuperior" unicode="&#xb2;" 
d="M289 384v-10c0 -7 -4 -11 -11 -11h-219c-7 0 -11 4 -11 11v11c0 6 2 10 6 14l150 153c37 37 49 62 49 96c0 49 -31 76 -85 76c-41 0 -70 -18 -90 -52c-3 -6 -8 -8 -15 -4l-9 6c-6 4 -7 9 -4 15c25 43 68 67 119 67c75 0 119 -40 119 -108c0 -43 -13 -72 -57 -117
l-134 -136h181c7 0 11 -4 11 -11z" />
    <glyph glyph-name="threesuperior" unicode="&#xb3;" 
d="M230 567v-1c45 -13 72 -48 72 -97c0 -72 -48 -113 -129 -113c-56 0 -97 18 -126 54c-4 5 -4 10 1 15l8 8c6 6 11 4 16 -2c22 -28 55 -43 99 -43c61 0 96 30 96 82s-35 79 -103 79h-29c-7 0 -11 4 -11 11v10c0 7 4 11 11 11h26c64 0 97 24 97 70c0 47 -33 73 -90 73
c-41 0 -71 -15 -92 -42c-5 -6 -10 -7 -16 -1l-7 6c-5 5 -6 10 -2 15c28 35 71 54 119 54c76 0 123 -39 123 -104c0 -43 -23 -72 -63 -85z" />
    <glyph glyph-name="acute" unicode="&#xb4;" horiz-adv-x="500" 
d="M352 698l-88 -124c-4 -5 -8 -7 -13 -7h-16c-9 0 -12 6 -7 13l82 125c4 6 8 8 14 8h20c10 0 14 -7 8 -15z" />
    <glyph glyph-name="uni00B5" unicode="&#xb5;" horiz-adv-x="501" 
d="M429 479v-309c0 -119 -59 -182 -171 -182c-66 0 -113 24 -138 71h-1v-207c0 -8 -4 -12 -12 -12h-17c-8 0 -12 4 -12 12v627c0 8 4 12 12 12h17c8 0 12 -4 12 -12v-299c0 -104 44 -155 134 -155c92 0 135 48 135 155v299c0 8 4 12 12 12h17c8 0 12 -4 12 -12z" />
    <glyph glyph-name="paragraph" unicode="&#xb6;" horiz-adv-x="562" 
d="M476 689v-838c0 -7 -4 -11 -11 -11h-14c-7 0 -11 4 -11 11v813h-153v-813c0 -7 -4 -11 -11 -11h-14c-7 0 -11 4 -11 11v464c-155 0 -227 60 -227 192c0 133 72 193 227 193h214c7 0 11 -4 11 -11z" />
    <glyph glyph-name="periodcentered" unicode="&#xb7;" horiz-adv-x="210" 
d="M105 277c-20 0 -35 15 -35 35s15 34 35 34s34 -14 34 -34s-14 -35 -34 -35z" />
    <glyph glyph-name="cedilla" unicode="&#xb8;" horiz-adv-x="500" 
d="M267 2l-12 -56c48 -1 72 -21 72 -55c0 -39 -29 -63 -83 -63c-27 0 -54 6 -73 19c-5 4 -7 8 -3 15l5 9c3 6 8 8 15 4c15 -9 35 -16 55 -16c35 0 50 15 50 33c-1 22 -18 32 -59 32h-3c-7 0 -11 5 -9 12l14 66h31z" />
    <glyph glyph-name="onesuperior" unicode="&#xb9;" 
d="M240 738v-364c0 -7 -4 -11 -11 -11h-13c-7 0 -11 4 -11 11v328l-91 -68c-6 -5 -11 -4 -15 2l-6 8c-4 6 -3 11 3 16l111 84c5 4 9 5 14 5h8c7 0 11 -4 11 -11z" />
    <glyph glyph-name="ordmasculine" unicode="&#xba;" horiz-adv-x="364" 
d="M182 636c91 0 139 -50 139 -144v-109c0 -94 -48 -144 -139 -144s-139 50 -139 144v109c0 94 48 144 139 144zM283 390v94c0 81 -32 118 -101 118s-101 -37 -101 -118v-94c0 -81 32 -117 101 -117s101 36 101 117z" />
    <glyph glyph-name="guillemotright" unicode="&#xbb;" horiz-adv-x="395" 
d="M326 245l-111 173c-5 8 -2 14 8 14h14c6 0 11 -3 14 -8l110 -171c3 -5 3 -11 0 -16l-110 -170c-3 -5 -8 -8 -14 -8h-14c-10 0 -13 6 -8 14zM158 245l-111 173c-5 8 -2 14 8 14h14c6 0 11 -3 14 -8l110 -171c3 -5 3 -11 0 -16l-110 -170c-3 -5 -8 -8 -14 -8h-14
c-10 0 -13 6 -8 14z" />
    <glyph glyph-name="onequarter" unicode="&#xbc;" horiz-adv-x="790" 
d="M219 13l396 604c3 5 8 7 14 7h15c9 0 12 -6 7 -13l-396 -604c-3 -5 -8 -7 -14 -7h-15c-9 0 -12 6 -7 13zM724 92v-81c0 -7 -4 -11 -11 -11h-13c-7 0 -11 4 -11 11v81h-186c-7 0 -11 4 -11 11v15c0 5 1 9 5 14l186 247c4 5 7 7 13 7h17c7 0 11 -4 11 -11v-251h36
c7 0 11 -4 11 -11v-10c0 -7 -4 -11 -11 -11h-36zM531 124h158v209h-1zM240 613v-364c0 -7 -4 -11 -11 -11h-13c-7 0 -11 4 -11 11v328l-91 -68c-6 -5 -11 -4 -15 2l-6 8c-4 6 -3 11 3 16l111 84c5 4 9 5 14 5h8c7 0 11 -4 11 -11z" />
    <glyph glyph-name="onehalf" unicode="&#xbd;" horiz-adv-x="790" 
d="M179 13l396 604c3 5 8 7 14 7h15c9 0 12 -6 7 -13l-396 -604c-3 -5 -8 -7 -14 -7h-15c-9 0 -12 6 -7 13zM749 21v-10c0 -7 -4 -11 -11 -11h-219c-7 0 -11 4 -11 11v11c0 6 2 10 6 14l150 153c37 37 49 62 49 96c0 49 -31 76 -85 76c-41 0 -70 -18 -90 -52
c-3 -6 -8 -8 -15 -4l-9 6c-6 4 -7 9 -4 15c25 43 68 67 119 67c75 0 119 -40 119 -108c0 -43 -13 -72 -57 -117l-134 -136h181c7 0 11 -4 11 -11zM240 613v-364c0 -7 -4 -11 -11 -11h-13c-7 0 -11 4 -11 11v328l-91 -68c-6 -5 -11 -4 -15 2l-6 8c-4 6 -3 11 3 16l111 84
c5 4 9 5 14 5h8c7 0 11 -4 11 -11z" />
    <glyph glyph-name="threequarters" unicode="&#xbe;" horiz-adv-x="790" 
d="M227 13l396 604c3 5 8 7 14 7h15c9 0 12 -6 7 -13l-396 -604c-3 -5 -8 -7 -14 -7h-15c-9 0 -12 6 -7 13zM724 92v-81c0 -7 -4 -11 -11 -11h-13c-7 0 -11 4 -11 11v81h-186c-7 0 -11 4 -11 11v15c0 5 1 9 5 14l186 247c4 5 7 7 13 7h17c7 0 11 -4 11 -11v-251h36
c7 0 11 -4 11 -11v-10c0 -7 -4 -11 -11 -11h-36zM531 124h158v209h-1zM230 442v-1c45 -13 72 -48 72 -97c0 -72 -48 -113 -129 -113c-56 0 -97 18 -126 54c-4 5 -4 10 1 15l8 8c6 6 11 4 16 -2c22 -28 55 -43 99 -43c61 0 96 30 96 82s-35 79 -103 79h-29c-7 0 -11 4 -11 11
v10c0 7 4 11 11 11h26c64 0 97 24 97 70c0 47 -33 73 -90 73c-41 0 -71 -15 -92 -42c-5 -6 -10 -7 -16 -1l-7 6c-5 5 -6 10 -2 15c28 35 71 54 119 54c76 0 123 -39 123 -104c0 -43 -23 -72 -63 -85z" />
    <glyph glyph-name="questiondown" unicode="&#xbf;" horiz-adv-x="446" 
d="M220 -12c-121 0 -196 67 -196 173c0 76 26 123 111 174c72 43 95 78 95 135v28c0 8 4 12 12 12h14c8 0 12 -4 12 -12v-31c0 -68 -26 -110 -103 -157s-99 -86 -99 -149c0 -84 58 -135 154 -135c72 0 127 34 162 98c4 7 10 9 17 5l14 -9c7 -4 8 -10 5 -16
c-38 -74 -110 -116 -198 -116zM248 676c20 0 35 -15 35 -35s-15 -34 -35 -34s-34 14 -34 34s14 35 34 35z" />
    <glyph glyph-name="Agrave" unicode="&#xc0;" horiz-adv-x="577" 
d="M128 162l-54 -152c-2 -7 -6 -10 -13 -10h-19c-9 0 -13 5 -10 14l231 640c3 7 6 10 14 10h23c8 0 11 -3 14 -10l231 -640c3 -9 -1 -14 -10 -14h-21c-7 0 -11 3 -13 10l-54 152h-319zM142 201h291l-145 408h-1zM303 734h-16c-5 0 -9 2 -13 7l-88 124c-6 8 -2 15 8 15h20
c6 0 10 -2 14 -8l82 -125c5 -7 2 -13 -7 -13z" />
    <glyph glyph-name="Aacute" unicode="&#xc1;" horiz-adv-x="577" 
d="M128 162l-54 -152c-2 -7 -6 -10 -13 -10h-19c-9 0 -13 5 -10 14l231 640c3 7 6 10 14 10h23c8 0 11 -3 14 -10l231 -640c3 -9 -1 -14 -10 -14h-21c-7 0 -11 3 -13 10l-54 152h-319zM142 201h291l-145 408h-1zM390 865l-88 -124c-4 -5 -8 -7 -13 -7h-16c-9 0 -12 6 -7 13
l82 125c4 6 8 8 14 8h20c10 0 14 -7 8 -15z" />
    <glyph glyph-name="Acircumflex" unicode="&#xc2;" horiz-adv-x="577" 
d="M128 162l-54 -152c-2 -7 -6 -10 -13 -10h-19c-9 0 -13 5 -10 14l231 640c3 7 6 10 14 10h23c8 0 11 -3 14 -10l231 -640c3 -9 -1 -14 -10 -14h-21c-7 0 -11 3 -13 10l-54 152h-319zM142 201h291l-145 408h-1zM288 846l-75 -105c-4 -5 -8 -7 -13 -7h-15c-9 0 -12 6 -7 13
l86 125c4 6 8 8 14 8h18c6 0 10 -2 14 -8l87 -125c5 -7 2 -13 -7 -13h-15c-5 0 -9 2 -13 7z" />
    <glyph glyph-name="Atilde" unicode="&#xc3;" horiz-adv-x="577" 
d="M128 162l-54 -152c-2 -7 -6 -10 -13 -10h-19c-9 0 -13 5 -10 14l231 640c3 7 6 10 14 10h23c8 0 11 -3 14 -10l231 -640c3 -9 -1 -14 -10 -14h-21c-7 0 -11 3 -13 10l-54 152h-319zM142 201h291l-145 408h-1zM177 751h-12c-7 0 -11 4 -10 11c8 52 37 83 79 83
c23 0 40 -9 65 -33c19 -19 31 -26 45 -26c25 0 39 15 45 49c1 6 4 9 10 9h12c7 0 11 -4 10 -11c-8 -52 -37 -83 -79 -83c-23 0 -40 9 -65 33c-19 19 -31 26 -45 26c-25 0 -39 -15 -45 -49c-1 -6 -4 -9 -10 -9z" />
    <glyph glyph-name="Adieresis" unicode="&#xc4;" horiz-adv-x="577" 
d="M128 162l-54 -152c-2 -7 -6 -10 -13 -10h-19c-9 0 -13 5 -10 14l231 640c3 7 6 10 14 10h23c8 0 11 -3 14 -10l231 -640c3 -9 -1 -14 -10 -14h-21c-7 0 -11 3 -13 10l-54 152h-319zM142 201h291l-145 408h-1zM211 766c-19 0 -33 14 -33 32c0 19 14 33 33 33
c18 0 32 -14 32 -33c0 -18 -14 -32 -32 -32zM365 766c-18 0 -32 14 -32 32c0 19 14 33 32 33c19 0 33 -14 33 -33c0 -18 -14 -32 -33 -32z" />
    <glyph glyph-name="Aring" unicode="&#xc5;" horiz-adv-x="577" 
d="M128 162l-54 -152c-2 -7 -6 -10 -13 -10h-19c-9 0 -13 5 -10 14l231 640c3 7 6 10 14 10h23c8 0 11 -3 14 -10l231 -640c3 -9 -1 -14 -10 -14h-21c-7 0 -11 3 -13 10l-54 152h-319zM142 201h291l-145 408h-1zM288 731c-43 0 -76 33 -76 76s33 76 76 76s76 -33 76 -76
s-33 -76 -76 -76zM288 763c25 0 43 18 43 44s-18 44 -43 44s-43 -18 -43 -44s18 -44 43 -44z" />
    <glyph glyph-name="AE" unicode="&#xc6;" horiz-adv-x="885" 
d="M479 355h303c8 0 12 -4 12 -12v-15c0 -8 -4 -12 -12 -12h-303v-277h347c8 0 12 -4 12 -12v-15c0 -8 -4 -12 -12 -12h-378c-8 0 -12 4 -12 12v142h-285l-90 -146c-3 -6 -8 -8 -14 -8h-23c-10 0 -13 6 -8 14l401 641c4 6 8 9 15 9h394c8 0 12 -4 12 -12v-15
c0 -8 -4 -12 -12 -12h-347v-270zM436 193v422h-1l-260 -422h261z" />
    <glyph glyph-name="Ccedilla" unicode="&#xc7;" horiz-adv-x="534" 
d="M475 136l14 -7c7 -3 10 -8 6 -16c-36 -80 -100 -121 -194 -125l-9 -42c48 -1 72 -21 72 -55c0 -39 -29 -63 -83 -63c-27 0 -53 7 -73 19c-5 4 -7 8 -3 15l5 9c3 6 8 8 15 4c15 -10 35 -16 55 -16c35 0 50 15 50 33c-1 22 -18 32 -59 32h-3c-7 0 -11 5 -9 12l11 52
c-137 6 -208 89 -208 240v208c0 157 77 240 224 240c102 0 171 -41 209 -125c4 -8 1 -13 -6 -16l-14 -7c-7 -3 -13 -1 -16 6c-31 68 -88 103 -173 103c-123 0 -181 -69 -181 -211v-188c0 -142 58 -211 181 -211c85 0 142 35 173 103c3 7 9 9 16 6z" />
    <glyph glyph-name="Egrave" unicode="&#xc8;" horiz-adv-x="537" 
d="M131 355h303c8 0 12 -4 12 -12v-15c0 -8 -4 -12 -12 -12h-303v-277h347c8 0 12 -4 12 -12v-15c0 -8 -4 -12 -12 -12h-378c-8 0 -12 4 -12 12v640c0 8 4 12 12 12h378c8 0 12 -4 12 -12v-15c0 -8 -4 -12 -12 -12h-347v-270zM304 734h-16c-5 0 -9 2 -13 7l-88 124
c-6 8 -2 15 8 15h20c6 0 10 -2 14 -8l82 -125c5 -7 2 -13 -7 -13z" />
    <glyph glyph-name="Eacute" unicode="&#xc9;" horiz-adv-x="537" 
d="M131 355h303c8 0 12 -4 12 -12v-15c0 -8 -4 -12 -12 -12h-303v-277h347c8 0 12 -4 12 -12v-15c0 -8 -4 -12 -12 -12h-378c-8 0 -12 4 -12 12v640c0 8 4 12 12 12h378c8 0 12 -4 12 -12v-15c0 -8 -4 -12 -12 -12h-347v-270zM391 865l-88 -124c-4 -5 -8 -7 -13 -7h-16
c-9 0 -12 6 -7 13l82 125c4 6 8 8 14 8h20c10 0 14 -7 8 -15z" />
    <glyph glyph-name="Ecircumflex" unicode="&#xca;" horiz-adv-x="537" 
d="M131 355h303c8 0 12 -4 12 -12v-15c0 -8 -4 -12 -12 -12h-303v-277h347c8 0 12 -4 12 -12v-15c0 -8 -4 -12 -12 -12h-378c-8 0 -12 4 -12 12v640c0 8 4 12 12 12h378c8 0 12 -4 12 -12v-15c0 -8 -4 -12 -12 -12h-347v-270zM289 846l-75 -105c-4 -5 -8 -7 -13 -7h-15
c-9 0 -12 6 -7 13l86 125c4 6 8 8 14 8h18c6 0 10 -2 14 -8l87 -125c5 -7 2 -13 -7 -13h-15c-5 0 -9 2 -13 7z" />
    <glyph glyph-name="Edieresis" unicode="&#xcb;" horiz-adv-x="537" 
d="M131 355h303c8 0 12 -4 12 -12v-15c0 -8 -4 -12 -12 -12h-303v-277h347c8 0 12 -4 12 -12v-15c0 -8 -4 -12 -12 -12h-378c-8 0 -12 4 -12 12v640c0 8 4 12 12 12h378c8 0 12 -4 12 -12v-15c0 -8 -4 -12 -12 -12h-347v-270zM212 766c-19 0 -33 14 -33 32c0 19 14 33 33 33
c18 0 32 -14 32 -33c0 -18 -14 -32 -32 -32zM366 766c-18 0 -32 14 -32 32c0 19 14 33 32 33c19 0 33 -14 33 -33c0 -18 -14 -32 -33 -32z" />
    <glyph glyph-name="Igrave" unicode="&#xcc;" horiz-adv-x="219" 
d="M131 652v-640c0 -8 -4 -12 -12 -12h-19c-8 0 -12 4 -12 12v640c0 8 4 12 12 12h19c8 0 12 -4 12 -12zM125 734h-16c-5 0 -9 2 -13 7l-88 124c-6 8 -2 15 8 15h20c6 0 10 -2 14 -8l82 -125c5 -7 2 -13 -7 -13z" />
    <glyph glyph-name="Iacute" unicode="&#xcd;" horiz-adv-x="219" 
d="M131 652v-640c0 -8 -4 -12 -12 -12h-19c-8 0 -12 4 -12 12v640c0 8 4 12 12 12h19c8 0 12 -4 12 -12zM212 865l-88 -124c-4 -5 -8 -7 -13 -7h-16c-9 0 -12 6 -7 13l82 125c4 6 8 8 14 8h20c10 0 14 -7 8 -15z" />
    <glyph glyph-name="Icircumflex" unicode="&#xce;" horiz-adv-x="219" 
d="M131 652v-640c0 -8 -4 -12 -12 -12h-19c-8 0 -12 4 -12 12v640c0 8 4 12 12 12h19c8 0 12 -4 12 -12zM110 846l-75 -105c-4 -5 -8 -7 -13 -7h-15c-9 0 -12 6 -7 13l86 125c4 6 8 8 14 8h18c6 0 10 -2 14 -8l87 -125c5 -7 2 -13 -7 -13h-15c-5 0 -9 2 -13 7z" />
    <glyph glyph-name="Idieresis" unicode="&#xcf;" horiz-adv-x="219" 
d="M131 652v-640c0 -8 -4 -12 -12 -12h-19c-8 0 -12 4 -12 12v640c0 8 4 12 12 12h19c8 0 12 -4 12 -12zM33 766c-19 0 -33 14 -33 32c0 19 14 33 33 33c18 0 32 -14 32 -33c0 -18 -14 -32 -32 -32zM187 766c-18 0 -32 14 -32 32c0 19 14 33 32 33c19 0 33 -14 33 -33
c0 -18 -14 -32 -33 -32z" />
    <glyph glyph-name="Eth" unicode="&#xd0;" horiz-adv-x="599" 
d="M109 664h198c151 0 229 -77 229 -226v-212c0 -149 -78 -226 -229 -226h-198c-8 0 -12 4 -12 12v304h-60c-8 0 -12 4 -12 12v15c0 8 4 12 12 12h60v297c0 8 4 12 12 12zM493 237v190c0 134 -60 198 -187 198h-166v-270h157c8 0 12 -4 12 -12v-15c0 -8 -4 -12 -12 -12h-157
v-277h166c127 0 187 64 187 198z" />
    <glyph glyph-name="Ntilde" unicode="&#xd1;" horiz-adv-x="624" 
d="M524 0h-22c-6 0 -10 2 -14 8l-357 584h-1v-580c0 -8 -4 -12 -12 -12h-18c-8 0 -12 4 -12 12v640c0 8 4 12 12 12h26c6 0 10 -2 14 -8l353 -578h1v574c0 8 4 12 12 12h18c8 0 12 -4 12 -12v-640c0 -8 -4 -12 -12 -12zM201 751h-12c-7 0 -11 4 -10 11c8 52 37 83 79 83
c23 0 40 -9 65 -33c19 -19 31 -26 45 -26c25 0 39 15 45 49c1 6 4 9 10 9h12c7 0 11 -4 10 -11c-8 -52 -37 -83 -79 -83c-23 0 -40 9 -65 33c-19 19 -31 26 -45 26c-25 0 -39 -15 -45 -49c-1 -6 -4 -9 -10 -9z" />
    <glyph glyph-name="Ograve" unicode="&#xd2;" horiz-adv-x="582" 
d="M62 228v208c0 157 79 240 229 240s229 -83 229 -240v-208c0 -157 -79 -240 -229 -240s-229 83 -229 240zM105 426v-188c0 -143 60 -211 186 -211s186 68 186 211v188c0 143 -60 211 -186 211s-186 -68 -186 -211zM306 734h-16c-5 0 -9 2 -13 7l-88 124c-6 8 -2 15 8 15
h20c6 0 10 -2 14 -8l82 -125c5 -7 2 -13 -7 -13z" />
    <glyph glyph-name="Oacute" unicode="&#xd3;" horiz-adv-x="582" 
d="M62 228v208c0 157 79 240 229 240s229 -83 229 -240v-208c0 -157 -79 -240 -229 -240s-229 83 -229 240zM105 426v-188c0 -143 60 -211 186 -211s186 68 186 211v188c0 143 -60 211 -186 211s-186 -68 -186 -211zM393 865l-88 -124c-4 -5 -8 -7 -13 -7h-16
c-9 0 -12 6 -7 13l82 125c4 6 8 8 14 8h20c10 0 14 -7 8 -15z" />
    <glyph glyph-name="Ocircumflex" unicode="&#xd4;" horiz-adv-x="582" 
d="M62 228v208c0 157 79 240 229 240s229 -83 229 -240v-208c0 -157 -79 -240 -229 -240s-229 83 -229 240zM105 426v-188c0 -143 60 -211 186 -211s186 68 186 211v188c0 143 -60 211 -186 211s-186 -68 -186 -211zM291 846l-75 -105c-4 -5 -8 -7 -13 -7h-15
c-9 0 -12 6 -7 13l86 125c4 6 8 8 14 8h18c6 0 10 -2 14 -8l87 -125c5 -7 2 -13 -7 -13h-15c-5 0 -9 2 -13 7z" />
    <glyph glyph-name="Otilde" unicode="&#xd5;" horiz-adv-x="582" 
d="M62 228v208c0 157 79 240 229 240s229 -83 229 -240v-208c0 -157 -79 -240 -229 -240s-229 83 -229 240zM105 426v-188c0 -143 60 -211 186 -211s186 68 186 211v188c0 143 -60 211 -186 211s-186 -68 -186 -211zM180 751h-12c-7 0 -11 4 -10 11c8 52 37 83 79 83
c23 0 40 -9 65 -33c19 -19 31 -26 45 -26c25 0 39 15 45 49c1 6 4 9 10 9h12c7 0 11 -4 10 -11c-8 -52 -37 -83 -79 -83c-23 0 -40 9 -65 33c-19 19 -31 26 -45 26c-25 0 -39 -15 -45 -49c-1 -6 -4 -9 -10 -9z" />
    <glyph glyph-name="Odieresis" unicode="&#xd6;" horiz-adv-x="582" 
d="M62 228v208c0 157 79 240 229 240s229 -83 229 -240v-208c0 -157 -79 -240 -229 -240s-229 83 -229 240zM105 426v-188c0 -143 60 -211 186 -211s186 68 186 211v188c0 143 -60 211 -186 211s-186 -68 -186 -211zM214 766c-19 0 -33 14 -33 32c0 19 14 33 33 33
c18 0 32 -14 32 -33c0 -18 -14 -32 -32 -32zM368 766c-18 0 -32 14 -32 32c0 19 14 33 32 33c19 0 33 -14 33 -33c0 -18 -14 -32 -33 -32z" />
    <glyph glyph-name="multiply" unicode="&#xd7;" horiz-adv-x="528" 
d="M293 279l187 -187c5 -5 5 -11 0 -16l-12 -12c-5 -5 -11 -5 -16 0l-187 187l-187 -187c-5 -5 -11 -5 -16 0l-12 12c-5 5 -5 11 0 16l187 187l-187 187c-5 5 -5 11 0 16l12 12c5 5 11 5 16 0l187 -187l187 187c5 5 11 5 16 0l12 -12c5 -5 5 -11 0 -16z" />
    <glyph glyph-name="Oslash" unicode="&#xd8;" horiz-adv-x="582" 
d="M515 646l-35 -54c27 -39 40 -91 40 -156v-208c0 -157 -79 -240 -229 -240c-71 0 -126 19 -164 55l-29 -45c-4 -6 -9 -7 -15 -3l-13 8c-6 4 -7 9 -3 15l35 54c-27 39 -40 91 -40 156v208c0 157 79 240 229 240c71 0 126 -19 164 -55l29 45c4 6 9 7 15 3l13 -8
c6 -4 7 -9 3 -15zM105 426v-188c0 -50 8 -92 23 -124h1l303 471c-31 35 -78 52 -141 52c-126 0 -186 -68 -186 -211zM477 238v188c0 50 -8 92 -23 124h-1l-303 -471c31 -35 78 -52 141 -52c126 0 186 68 186 211z" />
    <glyph glyph-name="Ugrave" unicode="&#xd9;" horiz-adv-x="588" 
d="M512 652v-433c0 -151 -75 -231 -218 -231s-218 80 -218 231v433c0 8 4 12 12 12h19c8 0 12 -4 12 -12v-423c0 -138 56 -202 175 -202s176 64 176 202v423c0 8 4 12 12 12h18c8 0 12 -4 12 -12zM309 734h-16c-5 0 -9 2 -13 7l-88 124c-6 8 -2 15 8 15h20c6 0 10 -2 14 -8
l82 -125c5 -7 2 -13 -7 -13z" />
    <glyph glyph-name="Uacute" unicode="&#xda;" horiz-adv-x="588" 
d="M512 652v-433c0 -151 -75 -231 -218 -231s-218 80 -218 231v433c0 8 4 12 12 12h19c8 0 12 -4 12 -12v-423c0 -138 56 -202 175 -202s176 64 176 202v423c0 8 4 12 12 12h18c8 0 12 -4 12 -12zM396 865l-88 -124c-4 -5 -8 -7 -13 -7h-16c-9 0 -12 6 -7 13l82 125
c4 6 8 8 14 8h20c10 0 14 -7 8 -15z" />
    <glyph glyph-name="Ucircumflex" unicode="&#xdb;" horiz-adv-x="588" 
d="M512 652v-433c0 -151 -75 -231 -218 -231s-218 80 -218 231v433c0 8 4 12 12 12h19c8 0 12 -4 12 -12v-423c0 -138 56 -202 175 -202s176 64 176 202v423c0 8 4 12 12 12h18c8 0 12 -4 12 -12zM294 846l-75 -105c-4 -5 -8 -7 -13 -7h-15c-9 0 -12 6 -7 13l86 125
c4 6 8 8 14 8h18c6 0 10 -2 14 -8l87 -125c5 -7 2 -13 -7 -13h-15c-5 0 -9 2 -13 7z" />
    <glyph glyph-name="Udieresis" unicode="&#xdc;" horiz-adv-x="588" 
d="M512 652v-433c0 -151 -75 -231 -218 -231s-218 80 -218 231v433c0 8 4 12 12 12h19c8 0 12 -4 12 -12v-423c0 -138 56 -202 175 -202s176 64 176 202v423c0 8 4 12 12 12h18c8 0 12 -4 12 -12zM217 766c-19 0 -33 14 -33 32c0 19 14 33 33 33c18 0 32 -14 32 -33
c0 -18 -14 -32 -32 -32zM371 766c-18 0 -32 14 -32 32c0 19 14 33 32 33c19 0 33 -14 33 -33c0 -18 -14 -32 -33 -32z" />
    <glyph glyph-name="Yacute" unicode="&#xdd;" horiz-adv-x="509" 
d="M264 0h-19c-8 0 -12 4 -12 12v285l-219 353c-5 8 -2 14 8 14h25c6 0 11 -2 14 -8l195 -317l193 317c4 6 8 8 14 8h24c10 0 13 -6 8 -14l-219 -353v-285c0 -8 -4 -12 -12 -12zM356 865l-88 -124c-4 -5 -8 -7 -13 -7h-16c-9 0 -12 6 -7 13l82 125c4 6 8 8 14 8h20
c10 0 14 -7 8 -15z" />
    <glyph glyph-name="Thorn" unicode="&#xde;" horiz-adv-x="538" 
d="M131 535h153c155 0 226 -61 226 -193s-71 -193 -226 -193h-153v-137c0 -8 -4 -12 -12 -12h-19c-8 0 -12 4 -12 12v640c0 8 4 12 12 12h19c8 0 12 -4 12 -12v-117zM131 188h153c126 0 183 48 183 154s-57 154 -183 154h-153v-308z" />
    <glyph glyph-name="germandbls" unicode="&#xdf;" horiz-adv-x="549" 
d="M78 12v531c0 106 69 169 186 169c114 0 182 -55 182 -147c0 -55 -22 -91 -82 -125c-50 -28 -66 -51 -66 -88c0 -42 23 -65 91 -81c93 -22 127 -64 127 -142c0 -86 -63 -141 -163 -141c-74 0 -131 20 -168 59c-6 6 -6 12 -1 18l9 10c5 6 11 5 16 0c32 -33 80 -50 141 -50
c79 0 125 39 125 105c0 56 -26 85 -106 106c-85 22 -112 55 -112 116c0 48 19 77 78 113c54 33 71 59 71 99c0 71 -52 111 -142 111c-94 0 -145 -48 -145 -136v-527c0 -8 -4 -12 -12 -12h-17c-8 0 -12 4 -12 12z" />
    <glyph glyph-name="agrave" unicode="&#xe0;" horiz-adv-x="451" 
d="M216 503c117 0 178 -63 178 -187v-141c0 -122 -61 -187 -181 -187c-108 0 -169 53 -169 145c0 91 63 146 174 146h135v27c0 110 -44 160 -139 160c-48 0 -91 -18 -120 -50c-6 -6 -11 -6 -17 0l-10 10c-6 6 -5 12 0 18c41 40 92 59 149 59zM213 25c97 0 140 50 140 159v58
h-130c-89 0 -138 -39 -138 -109s45 -108 128 -108zM245 567h-16c-5 0 -9 2 -13 7l-88 124c-6 8 -2 15 8 15h20c6 0 10 -2 14 -8l82 -125c5 -7 2 -13 -7 -13z" />
    <glyph glyph-name="aacute" unicode="&#xe1;" horiz-adv-x="451" 
d="M216 503c117 0 178 -63 178 -187v-141c0 -122 -61 -187 -181 -187c-108 0 -169 53 -169 145c0 91 63 146 174 146h135v27c0 110 -44 160 -139 160c-48 0 -91 -18 -120 -50c-6 -6 -11 -6 -17 0l-10 10c-6 6 -5 12 0 18c41 40 92 59 149 59zM213 25c97 0 140 50 140 159v58
h-130c-89 0 -138 -39 -138 -109s45 -108 128 -108zM332 698l-88 -124c-4 -5 -8 -7 -13 -7h-16c-9 0 -12 6 -7 13l82 125c4 6 8 8 14 8h20c10 0 14 -7 8 -15z" />
    <glyph glyph-name="acircumflex" unicode="&#xe2;" horiz-adv-x="451" 
d="M216 503c117 0 178 -63 178 -187v-141c0 -122 -61 -187 -181 -187c-108 0 -169 53 -169 145c0 91 63 146 174 146h135v27c0 110 -44 160 -139 160c-48 0 -91 -18 -120 -50c-6 -6 -11 -6 -17 0l-10 10c-6 6 -5 12 0 18c41 40 92 59 149 59zM213 25c97 0 140 50 140 159v58
h-130c-89 0 -138 -39 -138 -109s45 -108 128 -108zM230 679l-75 -105c-4 -5 -8 -7 -13 -7h-15c-9 0 -12 6 -7 13l86 125c4 6 8 8 14 8h18c6 0 10 -2 14 -8l87 -125c5 -7 2 -13 -7 -13h-15c-5 0 -9 2 -13 7z" />
    <glyph glyph-name="atilde" unicode="&#xe3;" horiz-adv-x="451" 
d="M216 503c117 0 178 -63 178 -187v-141c0 -122 -61 -187 -181 -187c-108 0 -169 53 -169 145c0 91 63 146 174 146h135v27c0 110 -44 160 -139 160c-48 0 -91 -18 -120 -50c-6 -6 -11 -6 -17 0l-10 10c-6 6 -5 12 0 18c41 40 92 59 149 59zM213 25c97 0 140 50 140 159v58
h-130c-89 0 -138 -39 -138 -109s45 -108 128 -108zM119 584h-12c-7 0 -11 4 -10 11c8 52 37 83 79 83c23 0 40 -9 65 -33c19 -19 31 -26 45 -26c25 0 39 15 45 49c1 6 4 9 10 9h12c7 0 11 -4 10 -11c-8 -52 -37 -83 -79 -83c-23 0 -40 9 -65 33c-19 19 -31 26 -45 26
c-25 0 -39 -15 -45 -49c-1 -6 -4 -9 -10 -9z" />
    <glyph glyph-name="adieresis" unicode="&#xe4;" horiz-adv-x="451" 
d="M216 503c117 0 178 -63 178 -187v-141c0 -122 -61 -187 -181 -187c-108 0 -169 53 -169 145c0 91 63 146 174 146h135v27c0 110 -44 160 -139 160c-48 0 -91 -18 -120 -50c-6 -6 -11 -6 -17 0l-10 10c-6 6 -5 12 0 18c41 40 92 59 149 59zM213 25c97 0 140 50 140 159v58
h-130c-89 0 -138 -39 -138 -109s45 -108 128 -108zM153 599c-19 0 -33 14 -33 32c0 19 14 33 33 33c18 0 32 -14 32 -33c0 -18 -14 -32 -32 -32zM307 599c-18 0 -32 14 -32 32c0 19 14 33 32 33c19 0 33 -14 33 -33c0 -18 -14 -32 -33 -32z" />
    <glyph glyph-name="aring" unicode="&#xe5;" horiz-adv-x="451" 
d="M216 503c117 0 178 -63 178 -187v-141c0 -122 -61 -187 -181 -187c-108 0 -169 53 -169 145c0 91 63 146 174 146h135v27c0 110 -44 160 -139 160c-48 0 -91 -18 -120 -50c-6 -6 -11 -6 -17 0l-10 10c-6 6 -5 12 0 18c41 40 92 59 149 59zM213 25c97 0 140 50 140 159v58
h-130c-89 0 -138 -39 -138 -109s45 -108 128 -108zM230 564c-43 0 -76 33 -76 76s33 76 76 76s76 -33 76 -76s-33 -76 -76 -76zM230 596c25 0 43 18 43 44s-18 44 -43 44s-43 -18 -43 -44s18 -44 43 -44z" />
    <glyph glyph-name="ae" unicode="&#xe6;" horiz-adv-x="750" 
d="M532 503c112 0 173 -64 173 -186v-67c0 -8 -4 -12 -12 -12h-299v-53c0 -111 47 -160 150 -160c47 0 84 16 120 56c6 7 12 7 18 1l9 -9c5 -5 5 -12 0 -18c-40 -45 -89 -67 -148 -67c-89 0 -145 35 -169 103h-1c-21 -68 -74 -103 -163 -103c-105 0 -166 54 -166 144
c0 92 63 143 174 143h135v31c0 110 -44 160 -139 160c-48 0 -92 -19 -121 -51c-6 -6 -11 -6 -16 0l-10 11c-5 6 -5 12 0 17c41 41 92 60 148 60c85 0 136 -34 159 -101h1c20 67 73 101 157 101zM665 275v33c0 109 -42 158 -135 158s-136 -49 -136 -158v-33h271zM213 25
c97 0 140 50 140 159v54h-130c-89 0 -138 -36 -138 -106c0 -71 45 -107 128 -107z" />
    <glyph glyph-name="ccedilla" unicode="&#xe7;" horiz-adv-x="412" 
d="M370 76l10 -11c5 -5 5 -11 0 -17c-36 -37 -80 -57 -133 -60l-9 -42c48 -1 72 -21 72 -55c0 -39 -29 -63 -83 -63c-27 0 -53 7 -73 19c-5 4 -7 8 -3 15l5 9c3 6 8 8 15 4c15 -10 35 -16 55 -16c35 0 50 15 50 33c-1 22 -18 32 -59 32h-3c-7 0 -11 5 -9 12l11 53
c-103 7 -159 71 -159 187v140c0 124 62 187 177 187c58 0 105 -17 138 -51c6 -6 5 -12 0 -17l-9 -10c-6 -6 -13 -6 -18 0c-28 28 -62 41 -109 41c-94 0 -138 -50 -138 -160v-121c0 -110 46 -160 142 -160c45 0 81 16 113 50c6 7 11 7 17 1z" />
    <glyph glyph-name="egrave" unicode="&#xe8;" horiz-adv-x="453" 
d="M233 503c115 0 175 -63 175 -186v-73c0 -8 -4 -12 -12 -12h-298v-47c0 -111 46 -160 149 -160c48 0 85 16 120 56c6 7 12 7 18 1l9 -10c5 -5 6 -11 1 -17c-40 -45 -90 -67 -150 -67c-123 0 -188 63 -188 188v141c0 123 61 186 176 186zM368 269v39
c0 109 -42 158 -135 158s-135 -49 -135 -158v-39h270zM250 567h-16c-5 0 -9 2 -13 7l-88 124c-6 8 -2 15 8 15h20c6 0 10 -2 14 -8l82 -125c5 -7 2 -13 -7 -13z" />
    <glyph glyph-name="eacute" unicode="&#xe9;" horiz-adv-x="453" 
d="M233 503c115 0 175 -63 175 -186v-73c0 -8 -4 -12 -12 -12h-298v-47c0 -111 46 -160 149 -160c48 0 85 16 120 56c6 7 12 7 18 1l9 -10c5 -5 6 -11 1 -17c-40 -45 -90 -67 -150 -67c-123 0 -188 63 -188 188v141c0 123 61 186 176 186zM368 269v39
c0 109 -42 158 -135 158s-135 -49 -135 -158v-39h270zM337 698l-88 -124c-4 -5 -8 -7 -13 -7h-16c-9 0 -12 6 -7 13l82 125c4 6 8 8 14 8h20c10 0 14 -7 8 -15z" />
    <glyph glyph-name="ecircumflex" unicode="&#xea;" horiz-adv-x="453" 
d="M233 503c115 0 175 -63 175 -186v-73c0 -8 -4 -12 -12 -12h-298v-47c0 -111 46 -160 149 -160c48 0 85 16 120 56c6 7 12 7 18 1l9 -10c5 -5 6 -11 1 -17c-40 -45 -90 -67 -150 -67c-123 0 -188 63 -188 188v141c0 123 61 186 176 186zM368 269v39
c0 109 -42 158 -135 158s-135 -49 -135 -158v-39h270zM235 679l-75 -105c-4 -5 -8 -7 -13 -7h-15c-9 0 -12 6 -7 13l86 125c4 6 8 8 14 8h18c6 0 10 -2 14 -8l87 -125c5 -7 2 -13 -7 -13h-15c-5 0 -9 2 -13 7z" />
    <glyph glyph-name="edieresis" unicode="&#xeb;" horiz-adv-x="453" 
d="M233 503c115 0 175 -63 175 -186v-73c0 -8 -4 -12 -12 -12h-298v-47c0 -111 46 -160 149 -160c48 0 85 16 120 56c6 7 12 7 18 1l9 -10c5 -5 6 -11 1 -17c-40 -45 -90 -67 -150 -67c-123 0 -188 63 -188 188v141c0 123 61 186 176 186zM368 269v39
c0 109 -42 158 -135 158s-135 -49 -135 -158v-39h270zM158 599c-19 0 -33 14 -33 32c0 19 14 33 33 33c18 0 32 -14 32 -33c0 -18 -14 -32 -32 -32zM312 599c-18 0 -32 14 -32 32c0 19 14 33 32 33c19 0 33 -14 33 -33c0 -18 -14 -32 -33 -32z" />
    <glyph glyph-name="igrave" unicode="&#xec;" horiz-adv-x="196" 
d="M90 491h17c8 0 12 -4 12 -12v-467c0 -8 -4 -12 -12 -12h-17c-8 0 -12 4 -12 12v467c0 8 4 12 12 12zM113 567h-16c-5 0 -9 2 -13 7l-88 124c-6 8 -2 15 8 15h20c6 0 10 -2 14 -8l82 -125c5 -7 2 -13 -7 -13z" />
    <glyph glyph-name="iacute" unicode="&#xed;" horiz-adv-x="196" 
d="M90 491h17c8 0 12 -4 12 -12v-467c0 -8 -4 -12 -12 -12h-17c-8 0 -12 4 -12 12v467c0 8 4 12 12 12zM200 698l-88 -124c-4 -5 -8 -7 -13 -7h-16c-9 0 -12 6 -7 13l82 125c4 6 8 8 14 8h20c10 0 14 -7 8 -15z" />
    <glyph glyph-name="icircumflex" unicode="&#xee;" horiz-adv-x="196" 
d="M90 491h17c8 0 12 -4 12 -12v-467c0 -8 -4 -12 -12 -12h-17c-8 0 -12 4 -12 12v467c0 8 4 12 12 12zM98 679l-75 -105c-4 -5 -8 -7 -13 -7h-15c-9 0 -12 6 -7 13l86 125c4 6 8 8 14 8h18c6 0 10 -2 14 -8l87 -125c5 -7 2 -13 -7 -13h-15c-5 0 -9 2 -13 7z" />
    <glyph glyph-name="idieresis" unicode="&#xef;" horiz-adv-x="196" 
d="M90 491h17c8 0 12 -4 12 -12v-467c0 -8 -4 -12 -12 -12h-17c-8 0 -12 4 -12 12v467c0 8 4 12 12 12zM21 599c-19 0 -33 14 -33 32c0 19 14 33 33 33c18 0 32 -14 32 -33c0 -18 -14 -32 -32 -32zM175 599c-18 0 -32 14 -32 32c0 19 14 33 32 33c19 0 33 -14 33 -33
c0 -18 -14 -32 -33 -32z" />
    <glyph glyph-name="eth" unicode="&#xf0;" horiz-adv-x="481" 
d="M356 677l-43 -35c71 -60 102 -162 102 -313v-154c0 -122 -62 -187 -179 -187s-179 65 -179 187v140c0 122 60 186 175 186c62 0 108 -22 135 -64h1c-11 83 -38 141 -85 180l-62 -52c-6 -4 -11 -4 -16 2l-7 9c-5 6 -4 11 1 16l55 45c-36 21 -81 34 -138 39
c-8 1 -12 5 -11 13l1 11c1 8 6 12 14 11c67 -6 122 -22 165 -48l49 41c6 4 11 4 16 -2l7 -9c5 -6 4 -11 -1 -16zM374 184v121c0 106 -45 159 -138 159c-95 0 -138 -50 -138 -159v-121c0 -109 43 -159 138 -159s138 50 138 159z" />
    <glyph glyph-name="ntilde" unicode="&#xf1;" horiz-adv-x="496" 
d="M383 12v300c0 105 -42 154 -135 154c-92 0 -135 -49 -135 -154v-300c0 -8 -4 -12 -12 -12h-17c-8 0 -12 4 -12 12v309c0 120 61 182 176 182s176 -62 176 -182v-309c0 -8 -4 -12 -12 -12h-17c-8 0 -12 4 -12 12zM137 584h-12c-7 0 -11 4 -10 11c8 52 37 83 79 83
c23 0 40 -9 65 -33c19 -19 31 -26 45 -26c25 0 39 15 45 49c1 6 4 9 10 9h12c7 0 11 -4 10 -11c-8 -52 -37 -83 -79 -83c-23 0 -40 9 -65 33c-19 19 -31 26 -45 26c-25 0 -39 -15 -45 -49c-1 -6 -4 -9 -10 -9z" />
    <glyph glyph-name="ograve" unicode="&#xf2;" horiz-adv-x="472" 
d="M236 503c117 0 179 -63 179 -186v-143c0 -122 -62 -186 -179 -186s-179 64 -179 186v143c0 123 62 186 179 186zM374 184v124c0 108 -43 158 -138 158s-138 -50 -138 -158v-124c0 -109 43 -159 138 -159s138 50 138 159zM251 567h-16c-5 0 -9 2 -13 7l-88 124
c-6 8 -2 15 8 15h20c6 0 10 -2 14 -8l82 -125c5 -7 2 -13 -7 -13z" />
    <glyph glyph-name="oacute" unicode="&#xf3;" horiz-adv-x="472" 
d="M236 503c117 0 179 -63 179 -186v-143c0 -122 -62 -186 -179 -186s-179 64 -179 186v143c0 123 62 186 179 186zM374 184v124c0 108 -43 158 -138 158s-138 -50 -138 -158v-124c0 -109 43 -159 138 -159s138 50 138 159zM338 698l-88 -124c-4 -5 -8 -7 -13 -7h-16
c-9 0 -12 6 -7 13l82 125c4 6 8 8 14 8h20c10 0 14 -7 8 -15z" />
    <glyph glyph-name="ocircumflex" unicode="&#xf4;" horiz-adv-x="472" 
d="M236 503c117 0 179 -63 179 -186v-143c0 -122 -62 -186 -179 -186s-179 64 -179 186v143c0 123 62 186 179 186zM374 184v124c0 108 -43 158 -138 158s-138 -50 -138 -158v-124c0 -109 43 -159 138 -159s138 50 138 159zM236 679l-75 -105c-4 -5 -8 -7 -13 -7h-15
c-9 0 -12 6 -7 13l86 125c4 6 8 8 14 8h18c6 0 10 -2 14 -8l87 -125c5 -7 2 -13 -7 -13h-15c-5 0 -9 2 -13 7z" />
    <glyph glyph-name="otilde" unicode="&#xf5;" horiz-adv-x="472" 
d="M236 503c117 0 179 -63 179 -186v-143c0 -122 -62 -186 -179 -186s-179 64 -179 186v143c0 123 62 186 179 186zM374 184v124c0 108 -43 158 -138 158s-138 -50 -138 -158v-124c0 -109 43 -159 138 -159s138 50 138 159zM125 584h-12c-7 0 -11 4 -10 11c8 52 37 83 79 83
c23 0 40 -9 65 -33c19 -19 31 -26 45 -26c25 0 39 15 45 49c1 6 4 9 10 9h12c7 0 11 -4 10 -11c-8 -52 -37 -83 -79 -83c-23 0 -40 9 -65 33c-19 19 -31 26 -45 26c-25 0 -39 -15 -45 -49c-1 -6 -4 -9 -10 -9z" />
    <glyph glyph-name="odieresis" unicode="&#xf6;" horiz-adv-x="472" 
d="M236 503c117 0 179 -63 179 -186v-143c0 -122 -62 -186 -179 -186s-179 64 -179 186v143c0 123 62 186 179 186zM374 184v124c0 108 -43 158 -138 158s-138 -50 -138 -158v-124c0 -109 43 -159 138 -159s138 50 138 159zM159 599c-19 0 -33 14 -33 32c0 19 14 33 33 33
c18 0 32 -14 32 -33c0 -18 -14 -32 -32 -32zM313 599c-18 0 -32 14 -32 32c0 19 14 33 32 33c19 0 33 -14 33 -33c0 -18 -14 -32 -33 -32z" />
    <glyph glyph-name="divide" unicode="&#xf7;" horiz-adv-x="528" 
d="M264 444c-19 0 -33 14 -33 33s14 34 33 34s34 -15 34 -34s-15 -33 -34 -33zM495 260h-462c-8 0 -12 4 -12 12v14c0 8 4 12 12 12h462c8 0 12 -4 12 -12v-14c0 -8 -4 -12 -12 -12zM264 47c-19 0 -33 15 -33 34s14 33 33 33s34 -14 34 -33s-15 -34 -34 -34z" />
    <glyph glyph-name="oslash" unicode="&#xf8;" horiz-adv-x="472" 
d="M411 474l-26 -38c20 -30 30 -70 30 -119v-143c0 -122 -62 -186 -179 -186c-53 0 -95 13 -125 39l-20 -29c-4 -6 -9 -7 -15 -3l-11 7c-7 4 -8 9 -4 15l26 38c-20 30 -30 70 -30 119v143c0 123 62 186 179 186c53 0 95 -13 125 -39l20 30c4 6 9 7 15 3l12 -8
c6 -4 7 -9 3 -15zM98 308v-124c0 -36 5 -65 14 -89h1l225 335c-22 24 -56 36 -102 36c-95 0 -138 -50 -138 -158zM374 184v124c0 35 -5 65 -14 88h-1l-225 -335c22 -24 56 -36 102 -36c95 0 138 50 138 159z" />
    <glyph glyph-name="ugrave" unicode="&#xf9;" horiz-adv-x="490" 
d="M418 479v-312c0 -117 -60 -179 -173 -179s-173 62 -173 179v312c0 8 4 12 12 12h17c8 0 12 -4 12 -12v-303c0 -104 42 -151 132 -151c91 0 133 47 133 151v303c0 8 4 12 12 12h16c8 0 12 -4 12 -12zM260 567h-16c-5 0 -9 2 -13 7l-88 124c-6 8 -2 15 8 15h20
c6 0 10 -2 14 -8l82 -125c5 -7 2 -13 -7 -13z" />
    <glyph glyph-name="uacute" unicode="&#xfa;" horiz-adv-x="490" 
d="M418 479v-312c0 -117 -60 -179 -173 -179s-173 62 -173 179v312c0 8 4 12 12 12h17c8 0 12 -4 12 -12v-303c0 -104 42 -151 132 -151c91 0 133 47 133 151v303c0 8 4 12 12 12h16c8 0 12 -4 12 -12zM347 698l-88 -124c-4 -5 -8 -7 -13 -7h-16c-9 0 -12 6 -7 13l82 125
c4 6 8 8 14 8h20c10 0 14 -7 8 -15z" />
    <glyph glyph-name="ucircumflex" unicode="&#xfb;" horiz-adv-x="490" 
d="M418 479v-312c0 -117 -60 -179 -173 -179s-173 62 -173 179v312c0 8 4 12 12 12h17c8 0 12 -4 12 -12v-303c0 -104 42 -151 132 -151c91 0 133 47 133 151v303c0 8 4 12 12 12h16c8 0 12 -4 12 -12zM245 679l-75 -105c-4 -5 -8 -7 -13 -7h-15c-9 0 -12 6 -7 13l86 125
c4 6 8 8 14 8h18c6 0 10 -2 14 -8l87 -125c5 -7 2 -13 -7 -13h-15c-5 0 -9 2 -13 7z" />
    <glyph glyph-name="udieresis" unicode="&#xfc;" horiz-adv-x="490" 
d="M418 479v-312c0 -117 -60 -179 -173 -179s-173 62 -173 179v312c0 8 4 12 12 12h17c8 0 12 -4 12 -12v-303c0 -104 42 -151 132 -151c91 0 133 47 133 151v303c0 8 4 12 12 12h16c8 0 12 -4 12 -12zM168 599c-19 0 -33 14 -33 32c0 19 14 33 33 33c18 0 32 -14 32 -33
c0 -18 -14 -32 -32 -32zM322 599c-18 0 -32 14 -32 32c0 19 14 33 32 33c19 0 33 -14 33 -33c0 -18 -14 -32 -33 -32z" />
    <glyph glyph-name="yacute" unicode="&#xfd;" horiz-adv-x="501" 
d="M424 479v-481c0 -105 -68 -170 -177 -170c-66 0 -118 19 -160 59c-5 5 -5 11 0 17l9 11c5 6 11 6 17 0c35 -32 76 -50 132 -50c90 0 138 51 138 142v65h-1c-25 -47 -73 -71 -139 -71c-112 0 -171 63 -171 182v296c0 8 4 12 12 12h17c8 0 12 -4 12 -12v-286
c0 -107 43 -155 135 -155c91 0 135 51 135 155v286c0 8 4 12 12 12h17c8 0 12 -4 12 -12zM350 698l-88 -124c-4 -5 -8 -7 -13 -7h-16c-9 0 -12 6 -7 13l82 125c4 6 8 8 14 8h20c10 0 14 -7 8 -15z" />
    <glyph glyph-name="thorn" unicode="&#xfe;" horiz-adv-x="493" 
d="M261 503c114 0 175 -64 175 -186v-143c0 -122 -61 -186 -175 -186c-67 0 -115 24 -141 73h-1v-209c0 -8 -4 -12 -12 -12h-17c-8 0 -12 4 -12 12v836c0 8 4 12 12 12h17c8 0 12 -4 12 -12v-258h1c26 48 74 73 141 73zM395 184v123c0 109 -43 159 -138 159
c-92 0 -138 -53 -138 -159v-123c0 -107 46 -159 138 -159c95 0 138 50 138 159z" />
    <glyph glyph-name="ydieresis" unicode="&#xff;" horiz-adv-x="501" 
d="M424 479v-481c0 -105 -68 -170 -177 -170c-66 0 -118 19 -160 59c-5 5 -5 11 0 17l9 11c5 6 11 6 17 0c35 -32 76 -50 132 -50c90 0 138 51 138 142v65h-1c-25 -47 -73 -71 -139 -71c-112 0 -171 63 -171 182v296c0 8 4 12 12 12h17c8 0 12 -4 12 -12v-286
c0 -107 43 -155 135 -155c91 0 135 51 135 155v286c0 8 4 12 12 12h17c8 0 12 -4 12 -12zM171 599c-19 0 -33 14 -33 32c0 19 14 33 33 33c18 0 32 -14 32 -33c0 -18 -14 -32 -32 -32zM325 599c-18 0 -32 14 -32 32c0 19 14 33 32 33c19 0 33 -14 33 -33
c0 -18 -14 -32 -33 -32z" />
    <glyph glyph-name="Amacron" unicode="&#x100;" horiz-adv-x="577" 
d="M128 162l-54 -152c-2 -7 -6 -10 -13 -10h-19c-9 0 -13 5 -10 14l231 640c3 7 6 10 14 10h23c8 0 11 -3 14 -10l231 -640c3 -9 -1 -14 -10 -14h-21c-7 0 -11 3 -13 10l-54 152h-319zM142 201h291l-145 408h-1zM411 801v-12c0 -8 -4 -12 -12 -12h-223c-8 0 -12 4 -12 12v12
c0 8 4 12 12 12h223c8 0 12 -4 12 -12z" />
    <glyph glyph-name="amacron" unicode="&#x101;" horiz-adv-x="451" 
d="M216 503c117 0 178 -63 178 -187v-141c0 -122 -61 -187 -181 -187c-108 0 -169 53 -169 145c0 91 63 146 174 146h135v27c0 110 -44 160 -139 160c-48 0 -91 -18 -120 -50c-6 -6 -11 -6 -17 0l-10 10c-6 6 -5 12 0 18c41 40 92 59 149 59zM213 25c97 0 140 50 140 159v58
h-130c-89 0 -138 -39 -138 -109s45 -108 128 -108zM353 634v-12c0 -8 -4 -12 -12 -12h-223c-8 0 -12 4 -12 12v12c0 8 4 12 12 12h223c8 0 12 -4 12 -12z" />
    <glyph glyph-name="Abreve" unicode="&#x102;" horiz-adv-x="577" 
d="M128 162l-54 -152c-2 -7 -6 -10 -13 -10h-19c-9 0 -13 5 -10 14l231 640c3 7 6 10 14 10h23c8 0 11 -3 14 -10l231 -640c3 -9 -1 -14 -10 -14h-21c-7 0 -11 3 -13 10l-54 152h-319zM142 201h291l-145 408h-1zM383 855h11c8 0 12 -4 10 -12c-12 -57 -54 -91 -116 -91
s-104 34 -116 91c-2 8 2 12 10 12h11c7 0 10 -3 12 -10c9 -36 40 -58 83 -58s74 22 83 58c2 7 5 10 12 10z" />
    <glyph glyph-name="abreve" unicode="&#x103;" horiz-adv-x="451" 
d="M216 503c117 0 178 -63 178 -187v-141c0 -122 -61 -187 -181 -187c-108 0 -169 53 -169 145c0 91 63 146 174 146h135v27c0 110 -44 160 -139 160c-48 0 -91 -18 -120 -50c-6 -6 -11 -6 -17 0l-10 10c-6 6 -5 12 0 18c41 40 92 59 149 59zM213 25c97 0 140 50 140 159v58
h-130c-89 0 -138 -39 -138 -109s45 -108 128 -108zM325 688h11c8 0 12 -4 10 -12c-12 -57 -54 -91 -116 -91s-104 34 -116 91c-2 8 2 12 10 12h11c7 0 10 -3 12 -10c9 -36 40 -58 83 -58s74 22 83 58c2 7 5 10 12 10z" />
    <glyph glyph-name="Aogonek" unicode="&#x104;" horiz-adv-x="577" 
d="M555 -120l7 -8c4 -5 5 -10 -1 -16c-18 -17 -40 -28 -71 -28c-46 0 -78 28 -78 72c0 45 28 85 87 116l-52 146h-319l-54 -152c-2 -7 -6 -10 -13 -10h-19c-9 0 -13 5 -10 14l231 640c3 7 6 10 14 10h23c8 0 11 -3 14 -10l231 -640c3 -9 -1 -14 -10 -14h-6
c-56 -27 -84 -58 -84 -95c0 -26 21 -46 47 -46c20 0 35 8 47 20c6 6 11 6 16 1zM287 609l-145 -408h291l-145 408h-1z" />
    <glyph glyph-name="aogonek" unicode="&#x105;" horiz-adv-x="451" 
d="M307 6c-53 -27 -73 -67 -73 -101c0 -26 20 -46 46 -46c21 0 35 8 47 20c6 6 12 6 17 0l6 -7c5 -5 4 -11 -1 -16c-17 -16 -39 -28 -70 -28c-46 0 -79 28 -79 72c0 30 12 60 39 88v1c-8 -1 -17 -1 -26 -1c-108 0 -169 53 -169 145c0 91 63 146 174 146h135v27
c0 110 -44 160 -139 160c-48 0 -91 -18 -120 -50c-6 -6 -11 -6 -17 0l-10 10c-6 6 -5 12 0 18c41 40 92 59 149 59c117 0 178 -63 178 -187v-141c0 -86 -28 -139 -87 -169zM85 133c0 -70 45 -108 128 -108c97 0 140 50 140 159v58h-130c-89 0 -138 -39 -138 -109z" />
    <glyph glyph-name="Cacute" unicode="&#x106;" horiz-adv-x="534" 
d="M286 27c85 0 142 35 173 103c3 7 9 9 16 6l14 -7c7 -3 10 -8 6 -16c-38 -84 -107 -125 -209 -125c-147 0 -224 83 -224 240v208c0 157 77 240 224 240c102 0 171 -41 209 -125c4 -8 1 -13 -6 -16l-14 -7c-7 -3 -13 -1 -16 6c-31 68 -88 103 -173 103
c-123 0 -181 -69 -181 -211v-188c0 -142 58 -211 181 -211zM385 865l-88 -124c-4 -5 -8 -7 -13 -7h-16c-9 0 -12 6 -7 13l82 125c4 6 8 8 14 8h20c10 0 14 -7 8 -15z" />
    <glyph glyph-name="cacute" unicode="&#x107;" horiz-adv-x="412" 
d="M370 76l10 -11c5 -5 5 -11 0 -17c-38 -40 -86 -60 -144 -60c-116 0 -179 65 -179 188v140c0 124 62 187 177 187c58 0 105 -17 138 -51c6 -6 5 -12 0 -17l-9 -10c-6 -6 -13 -6 -18 0c-28 28 -62 41 -109 41c-94 0 -138 -50 -138 -160v-121c0 -110 46 -160 142 -160
c45 0 81 16 113 50c6 7 11 7 17 1zM327 698l-88 -124c-4 -5 -8 -7 -13 -7h-16c-9 0 -12 6 -7 13l82 125c4 6 8 8 14 8h20c10 0 14 -7 8 -15z" />
    <glyph glyph-name="Ccircumflex" unicode="&#x108;" horiz-adv-x="534" 
d="M286 27c85 0 142 35 173 103c3 7 9 9 16 6l14 -7c7 -3 10 -8 6 -16c-38 -84 -107 -125 -209 -125c-147 0 -224 83 -224 240v208c0 157 77 240 224 240c102 0 171 -41 209 -125c4 -8 1 -13 -6 -16l-14 -7c-7 -3 -13 -1 -16 6c-31 68 -88 103 -173 103
c-123 0 -181 -69 -181 -211v-188c0 -142 58 -211 181 -211zM283 846l-75 -105c-4 -5 -8 -7 -13 -7h-15c-9 0 -12 6 -7 13l86 125c4 6 8 8 14 8h18c6 0 10 -2 14 -8l87 -125c5 -7 2 -13 -7 -13h-15c-5 0 -9 2 -13 7z" />
    <glyph glyph-name="ccircumflex" unicode="&#x109;" horiz-adv-x="412" 
d="M370 76l10 -11c5 -5 5 -11 0 -17c-38 -40 -86 -60 -144 -60c-116 0 -179 65 -179 188v140c0 124 62 187 177 187c58 0 105 -17 138 -51c6 -6 5 -12 0 -17l-9 -10c-6 -6 -13 -6 -18 0c-28 28 -62 41 -109 41c-94 0 -138 -50 -138 -160v-121c0 -110 46 -160 142 -160
c45 0 81 16 113 50c6 7 11 7 17 1zM225 679l-75 -105c-4 -5 -8 -7 -13 -7h-15c-9 0 -12 6 -7 13l86 125c4 6 8 8 14 8h18c6 0 10 -2 14 -8l87 -125c5 -7 2 -13 -7 -13h-15c-5 0 -9 2 -13 7z" />
    <glyph glyph-name="Cdotaccent" unicode="&#x10a;" horiz-adv-x="534" 
d="M286 27c85 0 142 35 173 103c3 7 9 9 16 6l14 -7c7 -3 10 -8 6 -16c-38 -84 -107 -125 -209 -125c-147 0 -224 83 -224 240v208c0 157 77 240 224 240c102 0 171 -41 209 -125c4 -8 1 -13 -6 -16l-14 -7c-7 -3 -13 -1 -16 6c-31 68 -88 103 -173 103
c-123 0 -181 -69 -181 -211v-188c0 -142 58 -211 181 -211zM283 765c-19 0 -33 15 -33 33c0 19 14 33 33 33s33 -14 33 -33c0 -18 -14 -33 -33 -33z" />
    <glyph glyph-name="cdotaccent" unicode="&#x10b;" horiz-adv-x="412" 
d="M370 76l10 -11c5 -5 5 -11 0 -17c-38 -40 -86 -60 -144 -60c-116 0 -179 65 -179 188v140c0 124 62 187 177 187c58 0 105 -17 138 -51c6 -6 5 -12 0 -17l-9 -10c-6 -6 -13 -6 -18 0c-28 28 -62 41 -109 41c-94 0 -138 -50 -138 -160v-121c0 -110 46 -160 142 -160
c45 0 81 16 113 50c6 7 11 7 17 1zM225 598c-19 0 -33 15 -33 33c0 19 14 33 33 33s33 -14 33 -33c0 -18 -14 -33 -33 -33z" />
    <glyph glyph-name="Ccaron" unicode="&#x10c;" horiz-adv-x="534" 
d="M286 27c85 0 142 35 173 103c3 7 9 9 16 6l14 -7c7 -3 10 -8 6 -16c-38 -84 -107 -125 -209 -125c-147 0 -224 83 -224 240v208c0 157 77 240 224 240c102 0 171 -41 209 -125c4 -8 1 -13 -6 -16l-14 -7c-7 -3 -13 -1 -16 6c-31 68 -88 103 -173 103
c-123 0 -181 -69 -181 -211v-188c0 -142 58 -211 181 -211zM392 867l-87 -125c-4 -6 -8 -8 -14 -8h-18c-6 0 -10 2 -14 8l-86 125c-5 7 -2 13 7 13h15c5 0 9 -2 13 -7l75 -106l74 106c4 5 8 7 13 7h15c9 0 12 -6 7 -13z" />
    <glyph glyph-name="ccaron" unicode="&#x10d;" horiz-adv-x="412" 
d="M370 76l10 -11c5 -5 5 -11 0 -17c-38 -40 -86 -60 -144 -60c-116 0 -179 65 -179 188v140c0 124 62 187 177 187c58 0 105 -17 138 -51c6 -6 5 -12 0 -17l-9 -10c-6 -6 -13 -6 -18 0c-28 28 -62 41 -109 41c-94 0 -138 -50 -138 -160v-121c0 -110 46 -160 142 -160
c45 0 81 16 113 50c6 7 11 7 17 1zM334 700l-87 -125c-4 -6 -8 -8 -14 -8h-18c-6 0 -10 2 -14 8l-86 125c-5 7 -2 13 7 13h15c5 0 9 -2 13 -7l75 -106l74 106c4 5 8 7 13 7h15c9 0 12 -6 7 -13z" />
    <glyph glyph-name="Dcaron" unicode="&#x10e;" horiz-adv-x="590" 
d="M100 664h198c151 0 229 -77 229 -226v-212c0 -149 -78 -226 -229 -226h-198c-8 0 -12 4 -12 12v640c0 8 4 12 12 12zM484 237v190c0 134 -60 198 -187 198h-166v-586h166c127 0 187 64 187 198zM390 867l-87 -125c-4 -6 -8 -8 -14 -8h-18c-6 0 -10 2 -14 8l-86 125
c-5 7 -2 13 7 13h15c5 0 9 -2 13 -7l75 -106l74 106c4 5 8 7 13 7h15c9 0 12 -6 7 -13z" />
    <glyph glyph-name="dcaron" unicode="&#x10f;" horiz-adv-x="487" 
d="M415 688v-513c0 -122 -62 -187 -179 -187s-179 65 -179 187v142c0 123 60 186 175 186c67 0 115 -24 141 -73h1v258c0 8 4 12 12 12h17c8 0 12 -4 12 -12zM374 184v124c0 105 -45 158 -138 158c-95 0 -138 -50 -138 -158v-124c0 -109 43 -159 138 -159s138 50 138 159z
M526 687l-26 -161c-1 -7 -5 -10 -12 -10h-9c-8 0 -12 4 -11 12l21 161c1 7 5 11 12 11h14c8 0 12 -5 11 -13z" />
    <glyph glyph-name="Dcroat" unicode="&#x110;" horiz-adv-x="599" 
d="M109 664h198c151 0 229 -77 229 -226v-212c0 -149 -78 -226 -229 -226h-198c-8 0 -12 4 -12 12v304h-60c-8 0 -12 4 -12 12v15c0 8 4 12 12 12h60v297c0 8 4 12 12 12zM493 237v190c0 134 -60 198 -187 198h-166v-270h157c8 0 12 -4 12 -12v-15c0 -8 -4 -12 -12 -12h-157
v-277h166c127 0 187 64 187 198z" />
    <glyph glyph-name="dcroat" unicode="&#x111;" horiz-adv-x="489" 
d="M415 605h57c8 0 12 -4 12 -12v-12c0 -8 -4 -12 -12 -12h-57v-394c0 -122 -62 -187 -179 -187s-179 65 -179 187v142c0 123 60 186 175 186c67 0 115 -24 141 -73h1v139h-148c-8 0 -12 4 -12 12v12c0 8 4 12 12 12h148v83c0 8 4 12 12 12h17c8 0 12 -4 12 -12v-83z
M374 184v124c0 105 -45 158 -138 158c-95 0 -138 -50 -138 -158v-124c0 -109 43 -159 138 -159s138 50 138 159z" />
    <glyph glyph-name="Emacron" unicode="&#x112;" horiz-adv-x="537" 
d="M131 355h303c8 0 12 -4 12 -12v-15c0 -8 -4 -12 -12 -12h-303v-277h347c8 0 12 -4 12 -12v-15c0 -8 -4 -12 -12 -12h-378c-8 0 -12 4 -12 12v640c0 8 4 12 12 12h378c8 0 12 -4 12 -12v-15c0 -8 -4 -12 -12 -12h-347v-270zM412 801v-12c0 -8 -4 -12 -12 -12h-223
c-8 0 -12 4 -12 12v12c0 8 4 12 12 12h223c8 0 12 -4 12 -12z" />
    <glyph glyph-name="emacron" unicode="&#x113;" horiz-adv-x="453" 
d="M233 503c115 0 175 -63 175 -186v-73c0 -8 -4 -12 -12 -12h-298v-47c0 -111 46 -160 149 -160c48 0 85 16 120 56c6 7 12 7 18 1l9 -10c5 -5 6 -11 1 -17c-40 -45 -90 -67 -150 -67c-123 0 -188 63 -188 188v141c0 123 61 186 176 186zM368 269v39
c0 109 -42 158 -135 158s-135 -49 -135 -158v-39h270zM358 634v-12c0 -8 -4 -12 -12 -12h-223c-8 0 -12 4 -12 12v12c0 8 4 12 12 12h223c8 0 12 -4 12 -12z" />
    <glyph glyph-name="Ebreve" unicode="&#x114;" horiz-adv-x="537" 
d="M131 355h303c8 0 12 -4 12 -12v-15c0 -8 -4 -12 -12 -12h-303v-277h347c8 0 12 -4 12 -12v-15c0 -8 -4 -12 -12 -12h-378c-8 0 -12 4 -12 12v640c0 8 4 12 12 12h378c8 0 12 -4 12 -12v-15c0 -8 -4 -12 -12 -12h-347v-270zM384 855h11c8 0 12 -4 10 -12
c-12 -57 -54 -91 -116 -91s-104 34 -116 91c-2 8 2 12 10 12h11c7 0 10 -3 12 -10c9 -36 40 -58 83 -58s74 22 83 58c2 7 5 10 12 10z" />
    <glyph glyph-name="ebreve" unicode="&#x115;" horiz-adv-x="453" 
d="M233 503c115 0 175 -63 175 -186v-73c0 -8 -4 -12 -12 -12h-298v-47c0 -111 46 -160 149 -160c48 0 85 16 120 56c6 7 12 7 18 1l9 -10c5 -5 6 -11 1 -17c-40 -45 -90 -67 -150 -67c-123 0 -188 63 -188 188v141c0 123 61 186 176 186zM368 269v39
c0 109 -42 158 -135 158s-135 -49 -135 -158v-39h270zM330 688h11c8 0 12 -4 10 -12c-12 -57 -54 -91 -116 -91s-104 34 -116 91c-2 8 2 12 10 12h11c7 0 10 -3 12 -10c9 -36 40 -58 83 -58s74 22 83 58c2 7 5 10 12 10z" />
    <glyph glyph-name="Edotaccent" unicode="&#x116;" horiz-adv-x="537" 
d="M131 355h303c8 0 12 -4 12 -12v-15c0 -8 -4 -12 -12 -12h-303v-277h347c8 0 12 -4 12 -12v-15c0 -8 -4 -12 -12 -12h-378c-8 0 -12 4 -12 12v640c0 8 4 12 12 12h378c8 0 12 -4 12 -12v-15c0 -8 -4 -12 -12 -12h-347v-270zM289 765c-19 0 -33 15 -33 33c0 19 14 33 33 33
s33 -14 33 -33c0 -18 -14 -33 -33 -33z" />
    <glyph glyph-name="edotaccent" unicode="&#x117;" horiz-adv-x="453" 
d="M233 503c115 0 175 -63 175 -186v-73c0 -8 -4 -12 -12 -12h-298v-47c0 -111 46 -160 149 -160c48 0 85 16 120 56c6 7 12 7 18 1l9 -10c5 -5 6 -11 1 -17c-40 -45 -90 -67 -150 -67c-123 0 -188 63 -188 188v141c0 123 61 186 176 186zM368 269v39
c0 109 -42 158 -135 158s-135 -49 -135 -158v-39h270zM235 598c-19 0 -33 15 -33 33c0 19 14 33 33 33s33 -14 33 -33c0 -18 -14 -33 -33 -33z" />
    <glyph glyph-name="Eogonek" unicode="&#x118;" horiz-adv-x="537" 
d="M482 -121l6 -7c5 -6 4 -11 -1 -16c-18 -17 -39 -28 -70 -28c-47 0 -78 26 -78 70c0 36 19 73 65 101v1h-304c-8 0 -12 4 -12 12v640c0 8 4 12 12 12h378c8 0 12 -4 12 -12v-15c0 -8 -4 -12 -12 -12h-347v-270h303c8 0 12 -4 12 -12v-15c0 -8 -4 -12 -12 -12h-303v-277
h347c8 0 12 -4 12 -12v-15c0 -8 -4 -12 -12 -12h-11c-66 -25 -95 -61 -95 -96c0 -26 21 -45 47 -45c20 0 35 7 47 20c6 6 11 5 16 0z" />
    <glyph glyph-name="eogonek" unicode="&#x119;" horiz-adv-x="453" 
d="M233 503c115 0 175 -63 175 -186v-73c0 -8 -4 -12 -12 -12h-298v-47c0 -111 46 -160 149 -160c48 0 85 16 120 56c6 7 12 7 18 1l9 -10c5 -5 6 -11 1 -17c-19 -21 -39 -36 -62 -49c-54 -30 -74 -66 -74 -101c0 -26 20 -46 46 -46c21 0 35 8 47 20c6 6 12 6 17 0l6 -7
c5 -5 4 -11 -1 -16c-17 -16 -39 -28 -70 -28c-46 0 -79 28 -79 72c0 29 12 61 39 88v1c-9 -1 -13 -1 -19 -1c-123 0 -188 63 -188 188v141c0 123 61 186 176 186zM368 269v39c0 109 -42 158 -135 158s-135 -49 -135 -158v-39h270z" />
    <glyph glyph-name="Ecaron" unicode="&#x11a;" horiz-adv-x="537" 
d="M131 355h303c8 0 12 -4 12 -12v-15c0 -8 -4 -12 -12 -12h-303v-277h347c8 0 12 -4 12 -12v-15c0 -8 -4 -12 -12 -12h-378c-8 0 -12 4 -12 12v640c0 8 4 12 12 12h378c8 0 12 -4 12 -12v-15c0 -8 -4 -12 -12 -12h-347v-270zM398 867l-87 -125c-4 -6 -8 -8 -14 -8h-18
c-6 0 -10 2 -14 8l-86 125c-5 7 -2 13 7 13h15c5 0 9 -2 13 -7l75 -106l74 106c4 5 8 7 13 7h15c9 0 12 -6 7 -13z" />
    <glyph glyph-name="ecaron" unicode="&#x11b;" horiz-adv-x="453" 
d="M233 503c115 0 175 -63 175 -186v-73c0 -8 -4 -12 -12 -12h-298v-47c0 -111 46 -160 149 -160c48 0 85 16 120 56c6 7 12 7 18 1l9 -10c5 -5 6 -11 1 -17c-40 -45 -90 -67 -150 -67c-123 0 -188 63 -188 188v141c0 123 61 186 176 186zM368 269v39
c0 109 -42 158 -135 158s-135 -49 -135 -158v-39h270zM344 700l-87 -125c-4 -6 -8 -8 -14 -8h-18c-6 0 -10 2 -14 8l-86 125c-5 7 -2 13 7 13h15c5 0 9 -2 13 -7l75 -106l74 106c4 5 8 7 13 7h15c9 0 12 -6 7 -13z" />
    <glyph glyph-name="Gcircumflex" unicode="&#x11c;" horiz-adv-x="570" 
d="M516 325v-96c0 -158 -78 -241 -226 -241c-149 0 -228 83 -228 240v208c0 157 79 240 229 240c103 0 173 -41 212 -125c3 -7 1 -13 -6 -16l-14 -7c-7 -3 -13 -1 -16 6c-33 68 -90 103 -176 103c-126 0 -186 -68 -186 -212v-186c0 -144 60 -212 185 -212
c124 0 184 69 184 213v58h-162c-8 0 -12 4 -12 12v15c0 8 4 12 12 12h192c8 0 12 -4 12 -12zM286 846l-75 -105c-4 -5 -8 -7 -13 -7h-15c-9 0 -12 6 -7 13l86 125c4 6 8 8 14 8h18c6 0 10 -2 14 -8l87 -125c5 -7 2 -13 -7 -13h-15c-5 0 -9 2 -13 7z" />
    <glyph glyph-name="gcircumflex" unicode="&#x11d;" horiz-adv-x="487" 
d="M236 503c117 0 179 -65 179 -187v-318c0 -105 -68 -170 -177 -170c-66 0 -118 19 -160 59c-5 5 -6 11 -1 17l10 12c5 6 11 6 17 0c35 -33 76 -51 133 -51c89 0 137 51 137 142v68h-1c-25 -49 -73 -74 -141 -74c-115 0 -175 64 -175 186v129c0 122 62 187 179 187zM236 38
c93 0 138 52 138 159v110c0 109 -43 159 -138 159s-138 -50 -138 -159v-110c0 -109 43 -159 138 -159zM236 679l-75 -105c-4 -5 -8 -7 -13 -7h-15c-9 0 -12 6 -7 13l86 125c4 6 8 8 14 8h18c6 0 10 -2 14 -8l87 -125c5 -7 2 -13 -7 -13h-15c-5 0 -9 2 -13 7z" />
    <glyph glyph-name="Gbreve" unicode="&#x11e;" horiz-adv-x="570" 
d="M516 325v-96c0 -158 -78 -241 -226 -241c-149 0 -228 83 -228 240v208c0 157 79 240 229 240c103 0 173 -41 212 -125c3 -7 1 -13 -6 -16l-14 -7c-7 -3 -13 -1 -16 6c-33 68 -90 103 -176 103c-126 0 -186 -68 -186 -212v-186c0 -144 60 -212 185 -212
c124 0 184 69 184 213v58h-162c-8 0 -12 4 -12 12v15c0 8 4 12 12 12h192c8 0 12 -4 12 -12zM381 855h11c8 0 12 -4 10 -12c-12 -57 -54 -91 -116 -91s-104 34 -116 91c-2 8 2 12 10 12h11c7 0 10 -3 12 -10c9 -36 40 -58 83 -58s74 22 83 58c2 7 5 10 12 10z" />
    <glyph glyph-name="gbreve" unicode="&#x11f;" horiz-adv-x="487" 
d="M236 503c117 0 179 -65 179 -187v-318c0 -105 -68 -170 -177 -170c-66 0 -118 19 -160 59c-5 5 -6 11 -1 17l10 12c5 6 11 6 17 0c35 -33 76 -51 133 -51c89 0 137 51 137 142v68h-1c-25 -49 -73 -74 -141 -74c-115 0 -175 64 -175 186v129c0 122 62 187 179 187zM236 38
c93 0 138 52 138 159v110c0 109 -43 159 -138 159s-138 -50 -138 -159v-110c0 -109 43 -159 138 -159zM331 688h11c8 0 12 -4 10 -12c-12 -57 -54 -91 -116 -91s-104 34 -116 91c-2 8 2 12 10 12h11c7 0 10 -3 12 -10c9 -36 40 -58 83 -58s74 22 83 58c2 7 5 10 12 10z" />
    <glyph glyph-name="Gdotaccent" unicode="&#x120;" horiz-adv-x="570" 
d="M516 325v-96c0 -158 -78 -241 -226 -241c-149 0 -228 83 -228 240v208c0 157 79 240 229 240c103 0 173 -41 212 -125c3 -7 1 -13 -6 -16l-14 -7c-7 -3 -13 -1 -16 6c-33 68 -90 103 -176 103c-126 0 -186 -68 -186 -212v-186c0 -144 60 -212 185 -212
c124 0 184 69 184 213v58h-162c-8 0 -12 4 -12 12v15c0 8 4 12 12 12h192c8 0 12 -4 12 -12zM286 765c-19 0 -33 15 -33 33c0 19 14 33 33 33s33 -14 33 -33c0 -18 -14 -33 -33 -33z" />
    <glyph glyph-name="gdotaccent" unicode="&#x121;" horiz-adv-x="487" 
d="M236 503c117 0 179 -65 179 -187v-318c0 -105 -68 -170 -177 -170c-66 0 -118 19 -160 59c-5 5 -6 11 -1 17l10 12c5 6 11 6 17 0c35 -33 76 -51 133 -51c89 0 137 51 137 142v68h-1c-25 -49 -73 -74 -141 -74c-115 0 -175 64 -175 186v129c0 122 62 187 179 187zM236 38
c93 0 138 52 138 159v110c0 109 -43 159 -138 159s-138 -50 -138 -159v-110c0 -109 43 -159 138 -159zM236 598c-19 0 -33 15 -33 33c0 19 14 33 33 33s33 -14 33 -33c0 -18 -14 -33 -33 -33z" />
    <glyph glyph-name="uni0122" unicode="&#x122;" horiz-adv-x="570" 
d="M516 325v-96c0 -158 -78 -241 -226 -241c-149 0 -228 83 -228 240v208c0 157 79 240 229 240c103 0 173 -41 212 -125c3 -7 1 -13 -6 -16l-14 -7c-7 -3 -13 -1 -16 6c-33 68 -90 103 -176 103c-126 0 -186 -68 -186 -212v-186c0 -144 60 -212 185 -212
c124 0 184 69 184 213v58h-162c-8 0 -12 4 -12 12v15c0 8 4 12 12 12h192c8 0 12 -4 12 -12zM290 -53c19 0 33 -14 33 -37c0 -34 -17 -60 -43 -71c-5 -2 -8 -1 -10 3l-3 5c-2 4 -1 7 3 9c12 6 18 16 21 30c-20 0 -34 12 -34 31s14 30 33 30z" />
    <glyph glyph-name="uni0123" unicode="&#x123;" horiz-adv-x="487" 
d="M235 654h1c19 0 33 -12 33 -31s-14 -30 -33 -30s-33 14 -33 37c0 34 17 61 43 72c5 2 8 1 10 -3l3 -6c2 -4 1 -7 -4 -10c-11 -6 -17 -15 -20 -29zM236 503c117 0 179 -65 179 -187v-318c0 -105 -68 -170 -177 -170c-66 0 -118 19 -160 59c-5 5 -6 11 -1 17l10 12
c5 6 11 6 17 0c35 -33 76 -51 133 -51c89 0 137 51 137 142v68h-1c-25 -49 -73 -74 -141 -74c-115 0 -175 64 -175 186v129c0 122 62 187 179 187zM236 38c93 0 138 52 138 159v110c0 109 -43 159 -138 159s-138 -50 -138 -159v-110c0 -109 43 -159 138 -159z" />
    <glyph glyph-name="Hcircumflex" unicode="&#x124;" horiz-adv-x="624" 
d="M524 0h-19c-8 0 -12 4 -12 12v304h-362v-304c0 -8 -4 -12 -12 -12h-19c-8 0 -12 4 -12 12v640c0 8 4 12 12 12h19c8 0 12 -4 12 -12v-297h362v297c0 8 4 12 12 12h19c8 0 12 -4 12 -12v-640c0 -8 -4 -12 -12 -12zM312 846l-75 -105c-4 -5 -8 -7 -13 -7h-15
c-9 0 -12 6 -7 13l86 125c4 6 8 8 14 8h18c6 0 10 -2 14 -8l87 -125c5 -7 2 -13 -7 -13h-15c-5 0 -9 2 -13 7z" />
    <glyph glyph-name="hcircumflex" unicode="&#x125;" horiz-adv-x="501" 
d="M258 503c112 0 171 -62 171 -182v-309c0 -8 -4 -12 -12 -12h-17c-8 0 -12 4 -12 12v300c0 105 -43 154 -135 154c-90 0 -134 -52 -134 -154v-300c0 -8 -4 -12 -12 -12h-17c-8 0 -12 4 -12 12v676c0 8 4 12 12 12h17c8 0 12 -4 12 -12v-256h1c25 47 72 71 138 71zM98 877
l-75 -105c-4 -5 -8 -7 -13 -7h-15c-9 0 -12 6 -7 13l86 125c4 6 8 8 14 8h18c6 0 10 -2 14 -8l87 -125c5 -7 2 -13 -7 -13h-15c-5 0 -9 2 -13 7z" />
    <glyph glyph-name="Hbar" unicode="&#x126;" horiz-adv-x="633" 
d="M540 510h58c7 0 11 -4 11 -11v-14c0 -7 -4 -11 -11 -11h-58v-462c0 -8 -4 -12 -12 -12h-19c-8 0 -12 4 -12 12v304h-362v-304c0 -8 -4 -12 -12 -12h-19c-8 0 -12 4 -12 12v462h-58c-7 0 -11 4 -11 11v14c0 7 4 11 11 11h58v142c0 8 4 12 12 12h19c8 0 12 -4 12 -12v-142
h362v142c0 8 4 12 12 12h19c8 0 12 -4 12 -12v-142zM135 355h362v119h-362v-119z" />
    <glyph glyph-name="hbar" unicode="&#x127;" horiz-adv-x="503" 
d="M260 503c112 0 171 -62 171 -182v-309c0 -8 -4 -12 -12 -12h-17c-8 0 -12 4 -12 12v300c0 105 -43 154 -135 154c-90 0 -134 -52 -134 -154v-300c0 -8 -4 -12 -12 -12h-17c-8 0 -12 4 -12 12v557h-64c-8 0 -12 4 -12 12v12c0 8 4 12 12 12h64v83c0 8 4 12 12 12h17
c8 0 12 -4 12 -12v-83h135c8 0 12 -4 12 -12v-12c0 -8 -4 -12 -12 -12h-135v-137h1c25 47 72 71 138 71z" />
    <glyph glyph-name="Itilde" unicode="&#x128;" horiz-adv-x="219" 
d="M131 652v-640c0 -8 -4 -12 -12 -12h-19c-8 0 -12 4 -12 12v640c0 8 4 12 12 12h19c8 0 12 -4 12 -12zM-1 751h-12c-7 0 -11 4 -10 11c8 52 37 83 79 83c23 0 40 -9 65 -33c19 -19 31 -26 45 -26c25 0 39 15 45 49c1 6 4 9 10 9h12c7 0 11 -4 10 -11
c-8 -52 -37 -83 -79 -83c-23 0 -40 9 -65 33c-19 19 -31 26 -45 26c-25 0 -39 -15 -45 -49c-1 -6 -4 -9 -10 -9z" />
    <glyph glyph-name="itilde" unicode="&#x129;" horiz-adv-x="196" 
d="M90 491h17c8 0 12 -4 12 -12v-467c0 -8 -4 -12 -12 -12h-17c-8 0 -12 4 -12 12v467c0 8 4 12 12 12zM-13 584h-12c-7 0 -11 4 -10 11c8 52 37 83 79 83c23 0 40 -9 65 -33c19 -19 31 -26 45 -26c25 0 39 15 45 49c1 6 4 9 10 9h12c7 0 11 -4 10 -11
c-8 -52 -37 -83 -79 -83c-23 0 -40 9 -65 33c-19 19 -31 26 -45 26c-25 0 -39 -15 -45 -49c-1 -6 -4 -9 -10 -9z" />
    <glyph glyph-name="Imacron" unicode="&#x12a;" horiz-adv-x="219" 
d="M131 652v-640c0 -8 -4 -12 -12 -12h-19c-8 0 -12 4 -12 12v640c0 8 4 12 12 12h19c8 0 12 -4 12 -12zM233 801v-12c0 -8 -4 -12 -12 -12h-223c-8 0 -12 4 -12 12v12c0 8 4 12 12 12h223c8 0 12 -4 12 -12z" />
    <glyph glyph-name="imacron" unicode="&#x12b;" horiz-adv-x="196" 
d="M90 491h17c8 0 12 -4 12 -12v-467c0 -8 -4 -12 -12 -12h-17c-8 0 -12 4 -12 12v467c0 8 4 12 12 12zM221 634v-12c0 -8 -4 -12 -12 -12h-223c-8 0 -12 4 -12 12v12c0 8 4 12 12 12h223c8 0 12 -4 12 -12z" />
    <glyph glyph-name="Ibreve" unicode="&#x12c;" horiz-adv-x="219" 
d="M131 652v-640c0 -8 -4 -12 -12 -12h-19c-8 0 -12 4 -12 12v640c0 8 4 12 12 12h19c8 0 12 -4 12 -12zM205 855h11c8 0 12 -4 10 -12c-12 -57 -54 -91 -116 -91s-104 34 -116 91c-2 8 2 12 10 12h11c7 0 10 -3 12 -10c9 -36 40 -58 83 -58s74 22 83 58c2 7 5 10 12 10z
" />
    <glyph glyph-name="ibreve" unicode="&#x12d;" horiz-adv-x="196" 
d="M90 491h17c8 0 12 -4 12 -12v-467c0 -8 -4 -12 -12 -12h-17c-8 0 -12 4 -12 12v467c0 8 4 12 12 12zM193 688h11c8 0 12 -4 10 -12c-12 -57 -54 -91 -116 -91s-104 34 -116 91c-2 8 2 12 10 12h11c7 0 10 -3 12 -10c9 -36 40 -58 83 -58s74 22 83 58c2 7 5 10 12 10z" />
    <glyph glyph-name="Iogonek" unicode="&#x12e;" horiz-adv-x="219" 
d="M163 -121l6 -7c5 -6 4 -11 -1 -16c-18 -16 -40 -28 -71 -28c-46 0 -78 29 -78 73c0 40 22 78 69 110v641c0 8 4 12 12 12h19c8 0 12 -4 12 -12v-640c0 -6 -2 -9 -8 -12c-47 -27 -70 -58 -70 -94c0 -26 20 -47 46 -47c21 0 35 8 48 20c5 5 11 6 16 0z" />
    <glyph glyph-name="iogonek" unicode="&#x12f;" horiz-adv-x="196" 
d="M159 -121l6 -7c5 -6 5 -11 -1 -16c-17 -16 -40 -28 -71 -28c-46 0 -78 29 -78 73c0 40 22 77 63 109v469c0 8 4 12 12 12h17c8 0 12 -4 12 -12v-467c0 -5 -2 -9 -5 -11c-42 -29 -65 -58 -65 -95c0 -26 20 -47 47 -47c20 0 35 8 47 20c6 6 11 6 16 0zM98 598
c-19 0 -33 15 -33 33c0 19 14 33 33 33s33 -14 33 -33c0 -18 -14 -33 -33 -33z" />
    <glyph glyph-name="Idotaccent" unicode="&#x130;" horiz-adv-x="219" 
d="M131 652v-640c0 -8 -4 -12 -12 -12h-19c-8 0 -12 4 -12 12v640c0 8 4 12 12 12h19c8 0 12 -4 12 -12zM110 765c-19 0 -33 15 -33 33c0 19 14 33 33 33s33 -14 33 -33c0 -18 -14 -33 -33 -33z" />
    <glyph glyph-name="dotlessi" unicode="&#x131;" horiz-adv-x="196" 
d="M90 491h17c8 0 12 -4 12 -12v-467c0 -8 -4 -12 -12 -12h-17c-8 0 -12 4 -12 12v467c0 8 4 12 12 12z" />
    <glyph glyph-name="IJ" unicode="&#x132;" horiz-adv-x="729" 
d="M131 652v-640c0 -8 -4 -12 -12 -12h-19c-8 0 -12 4 -12 12v640c0 8 4 12 12 12h19c8 0 12 -4 12 -12zM654 652v-433c0 -151 -74 -231 -214 -231c-91 0 -158 38 -201 113c-4 7 -2 13 5 17l13 8c7 4 13 3 17 -4c35 -64 91 -95 165 -95c117 0 172 65 172 202v423
c0 8 4 12 12 12h19c8 0 12 -4 12 -12z" />
    <glyph glyph-name="ij" unicode="&#x133;" horiz-adv-x="392" 
d="M98 598c-19 0 -33 15 -33 33c0 19 14 33 33 33s33 -14 33 -33c0 -18 -14 -33 -33 -33zM107 0h-17c-8 0 -12 4 -12 12v467c0 8 4 12 12 12h17c8 0 12 -4 12 -12v-467c0 -8 -4 -12 -12 -12zM294 598c-19 0 -33 15 -33 33c0 19 14 33 33 33s33 -14 33 -33
c0 -18 -14 -33 -33 -33zM187 -123h1c57 0 86 31 86 94v508c0 8 4 12 12 12h17c8 0 12 -4 12 -12v-508c0 -86 -42 -131 -123 -131h-5c-8 0 -12 4 -12 12v13c0 8 4 12 12 12z" />
    <glyph glyph-name="Jcircumflex" unicode="&#x134;" horiz-adv-x="516" 
d="M441 652v-433c0 -151 -74 -231 -214 -231c-91 0 -158 38 -201 113c-4 7 -2 13 5 17l13 8c7 4 13 3 17 -4c35 -64 91 -95 165 -95c117 0 172 65 172 202v423c0 8 4 12 12 12h19c8 0 12 -4 12 -12zM419 846l-75 -105c-4 -5 -8 -7 -13 -7h-15c-9 0 -12 6 -7 13l86 125
c4 6 8 8 14 8h18c6 0 10 -2 14 -8l87 -125c5 -7 2 -13 -7 -13h-15c-5 0 -9 2 -13 7z" />
    <glyph glyph-name="jcircumflex" unicode="&#x135;" horiz-adv-x="196" 
d="M-9 -123h1c57 0 86 31 86 94v508c0 8 4 12 12 12h17c8 0 12 -4 12 -12v-508c0 -86 -42 -131 -123 -131h-5c-8 0 -12 4 -12 12v13c0 8 4 12 12 12zM98 679l-75 -105c-4 -5 -8 -7 -13 -7h-15c-9 0 -12 6 -7 13l86 125c4 6 8 8 14 8h18c6 0 10 -2 14 -8l87 -125
c5 -7 2 -13 -7 -13h-15c-5 0 -9 2 -13 7z" />
    <glyph glyph-name="uni0136" unicode="&#x136;" horiz-adv-x="541" 
d="M119 0h-19c-8 0 -12 4 -12 12v640c0 8 4 12 12 12h19c8 0 12 -4 12 -12v-304l312 310c4 4 9 6 15 6h28c11 0 14 -7 6 -15l-315 -312l326 -322c8 -8 5 -15 -6 -15h-31c-6 0 -11 2 -15 6l-320 319v-313c0 -8 -4 -12 -12 -12zM288 -53c19 0 33 -14 33 -37
c0 -34 -17 -60 -43 -71c-5 -2 -8 -1 -10 3l-3 5c-2 4 -1 7 3 9c12 6 18 16 21 30c-20 0 -34 12 -34 31s14 30 33 30z" />
    <glyph glyph-name="uni0137" unicode="&#x137;" horiz-adv-x="423" 
d="M119 239v-227c0 -8 -4 -12 -12 -12h-17c-8 0 -12 4 -12 12v676c0 8 4 12 12 12h17c8 0 12 -4 12 -12v-426l222 223c4 4 9 6 15 6h27c11 0 14 -7 6 -15l-227 -225l238 -236c8 -8 5 -15 -6 -15h-28c-6 0 -11 2 -15 6zM236 -53c19 0 33 -14 33 -37c0 -34 -17 -60 -43 -71
c-5 -2 -8 -1 -10 3l-3 5c-2 4 -1 7 3 9c12 6 18 16 21 30c-20 0 -34 12 -34 31s14 30 33 30z" />
    <glyph glyph-name="kgreenlandic" unicode="&#x138;" horiz-adv-x="423" 
d="M119 239v-227c0 -8 -4 -12 -12 -12h-17c-8 0 -12 4 -12 12v467c0 8 4 12 12 12h17c8 0 12 -4 12 -12v-217l222 223c4 4 9 6 15 6h27c11 0 14 -7 6 -15l-227 -225l238 -236c8 -8 5 -15 -6 -15h-28c-6 0 -11 2 -15 6z" />
    <glyph glyph-name="Lacute" unicode="&#x139;" horiz-adv-x="495" 
d="M475 27v-15c0 -8 -4 -12 -12 -12h-363c-8 0 -12 4 -12 12v640c0 8 4 12 12 12h19c8 0 12 -4 12 -12v-613h332c8 0 12 -4 12 -12zM212 865l-88 -124c-4 -5 -8 -7 -13 -7h-16c-9 0 -12 6 -7 13l82 125c4 6 8 8 14 8h20c10 0 14 -7 8 -15z" />
    <glyph glyph-name="lacute" unicode="&#x13a;" horiz-adv-x="196" 
d="M107 0h-17c-8 0 -12 4 -12 12v676c0 8 4 12 12 12h17c8 0 12 -4 12 -12v-676c0 -8 -4 -12 -12 -12zM200 896l-88 -124c-4 -5 -8 -7 -13 -7h-16c-9 0 -12 6 -7 13l82 125c4 6 8 8 14 8h20c10 0 14 -7 8 -15z" />
    <glyph glyph-name="uni013B" unicode="&#x13b;" horiz-adv-x="495" 
d="M475 27v-15c0 -8 -4 -12 -12 -12h-363c-8 0 -12 4 -12 12v640c0 8 4 12 12 12h19c8 0 12 -4 12 -12v-613h332c8 0 12 -4 12 -12zM278 -53c19 0 33 -14 33 -37c0 -34 -17 -60 -43 -71c-5 -2 -8 -1 -10 3l-3 5c-2 4 -1 7 3 9c12 6 18 16 21 30c-20 0 -34 12 -34 31
s14 30 33 30z" />
    <glyph glyph-name="uni013C" unicode="&#x13c;" horiz-adv-x="196" 
d="M107 0h-17c-8 0 -12 4 -12 12v676c0 8 4 12 12 12h17c8 0 12 -4 12 -12v-676c0 -8 -4 -12 -12 -12zM98 -53c19 0 33 -14 33 -37c0 -34 -17 -60 -43 -71c-5 -2 -8 -1 -10 3l-3 5c-2 4 -1 7 3 9c12 6 18 16 21 30c-20 0 -34 12 -34 31s14 30 33 30z" />
    <glyph glyph-name="Lcaron" unicode="&#x13d;" horiz-adv-x="495" 
d="M475 27v-15c0 -8 -4 -12 -12 -12h-363c-8 0 -12 4 -12 12v640c0 8 4 12 12 12h19c8 0 12 -4 12 -12v-613h332c8 0 12 -4 12 -12zM280 687l-26 -161c-1 -7 -5 -10 -12 -10h-9c-8 0 -12 4 -11 12l21 161c1 7 5 11 12 11h14c8 0 12 -5 11 -13z" />
    <glyph glyph-name="lcaron" unicode="&#x13e;" horiz-adv-x="196" 
d="M107 0h-17c-8 0 -12 4 -12 12v676c0 8 4 12 12 12h17c8 0 12 -4 12 -12v-676c0 -8 -4 -12 -12 -12zM230 687l-26 -161c-1 -7 -5 -10 -12 -10h-9c-8 0 -12 4 -11 12l21 161c1 7 5 11 12 11h14c8 0 12 -5 11 -13z" />
    <glyph glyph-name="Ldot" unicode="&#x13f;" horiz-adv-x="495" 
d="M475 27v-15c0 -8 -4 -12 -12 -12h-363c-8 0 -12 4 -12 12v640c0 8 4 12 12 12h19c8 0 12 -4 12 -12v-613h332c8 0 12 -4 12 -12zM356 299c-19 0 -33 15 -33 33c0 19 14 33 33 33s33 -14 33 -33c0 -18 -14 -33 -33 -33z" />
    <glyph glyph-name="ldot" unicode="&#x140;" horiz-adv-x="213" 
d="M107 0h-17c-8 0 -12 4 -12 12v676c0 8 4 12 12 12h17c8 0 12 -4 12 -12v-676c0 -8 -4 -12 -12 -12zM204 299c-19 0 -33 15 -33 33c0 19 14 33 33 33s33 -14 33 -33c0 -18 -14 -33 -33 -33z" />
    <glyph glyph-name="Lslash" unicode="&#x141;" horiz-adv-x="504" 
d="M140 39h332c8 0 12 -4 12 -12v-15c0 -8 -4 -12 -12 -12h-363c-8 0 -12 4 -12 12v200l-57 -40c-9 -6 -15 -3 -15 7v19c0 6 2 11 8 15l64 45v394c0 8 4 12 12 12h19c8 0 12 -4 12 -12v-364l226 159c9 6 15 3 15 -7v-19c0 -6 -2 -11 -8 -15l-233 -164v-203z" />
    <glyph glyph-name="lslash" unicode="&#x142;" horiz-adv-x="216" 
d="M129 429l67 51c8 6 15 3 15 -7v-17c0 -6 -2 -11 -7 -15l-75 -57v-372c0 -8 -4 -12 -12 -12h-17c-8 0 -12 4 -12 12v341l-68 -52c-8 -6 -15 -3 -15 7v17c0 7 2 11 7 15l76 58v290c0 8 4 12 12 12h17c8 0 12 -4 12 -12v-259z" />
    <glyph glyph-name="Nacute" unicode="&#x143;" horiz-adv-x="624" 
d="M524 0h-22c-6 0 -10 2 -14 8l-357 584h-1v-580c0 -8 -4 -12 -12 -12h-18c-8 0 -12 4 -12 12v640c0 8 4 12 12 12h26c6 0 10 -2 14 -8l353 -578h1v574c0 8 4 12 12 12h18c8 0 12 -4 12 -12v-640c0 -8 -4 -12 -12 -12zM414 865l-88 -124c-4 -5 -8 -7 -13 -7h-16
c-9 0 -12 6 -7 13l82 125c4 6 8 8 14 8h20c10 0 14 -7 8 -15z" />
    <glyph glyph-name="nacute" unicode="&#x144;" horiz-adv-x="496" 
d="M383 12v300c0 105 -42 154 -135 154c-92 0 -135 -49 -135 -154v-300c0 -8 -4 -12 -12 -12h-17c-8 0 -12 4 -12 12v309c0 120 61 182 176 182s176 -62 176 -182v-309c0 -8 -4 -12 -12 -12h-17c-8 0 -12 4 -12 12zM350 698l-88 -124c-4 -5 -8 -7 -13 -7h-16
c-9 0 -12 6 -7 13l82 125c4 6 8 8 14 8h20c10 0 14 -7 8 -15z" />
    <glyph glyph-name="uni0145" unicode="&#x145;" horiz-adv-x="624" 
d="M524 0h-22c-6 0 -10 2 -14 8l-357 584h-1v-580c0 -8 -4 -12 -12 -12h-18c-8 0 -12 4 -12 12v640c0 8 4 12 12 12h26c6 0 10 -2 14 -8l353 -578h1v574c0 8 4 12 12 12h18c8 0 12 -4 12 -12v-640c0 -8 -4 -12 -12 -12zM312 -53c19 0 33 -14 33 -37c0 -34 -17 -60 -43 -71
c-5 -2 -8 -1 -10 3l-3 5c-2 4 -1 7 3 9c12 6 18 16 21 30c-20 0 -34 12 -34 31s14 30 33 30z" />
    <glyph glyph-name="uni0146" unicode="&#x146;" horiz-adv-x="496" 
d="M383 12v300c0 105 -42 154 -135 154c-92 0 -135 -49 -135 -154v-300c0 -8 -4 -12 -12 -12h-17c-8 0 -12 4 -12 12v309c0 120 61 182 176 182s176 -62 176 -182v-309c0 -8 -4 -12 -12 -12h-17c-8 0 -12 4 -12 12zM248 -53c19 0 33 -14 33 -37c0 -34 -17 -60 -43 -71
c-5 -2 -8 -1 -10 3l-3 5c-2 4 -1 7 3 9c12 6 18 16 21 30c-20 0 -34 12 -34 31s14 30 33 30z" />
    <glyph glyph-name="Ncaron" unicode="&#x147;" horiz-adv-x="624" 
d="M524 0h-22c-6 0 -10 2 -14 8l-357 584h-1v-580c0 -8 -4 -12 -12 -12h-18c-8 0 -12 4 -12 12v640c0 8 4 12 12 12h26c6 0 10 -2 14 -8l353 -578h1v574c0 8 4 12 12 12h18c8 0 12 -4 12 -12v-640c0 -8 -4 -12 -12 -12zM421 867l-87 -125c-4 -6 -8 -8 -14 -8h-18
c-6 0 -10 2 -14 8l-86 125c-5 7 -2 13 7 13h15c5 0 9 -2 13 -7l75 -106l74 106c4 5 8 7 13 7h15c9 0 12 -6 7 -13z" />
    <glyph glyph-name="ncaron" unicode="&#x148;" horiz-adv-x="496" 
d="M383 12v300c0 105 -42 154 -135 154c-92 0 -135 -49 -135 -154v-300c0 -8 -4 -12 -12 -12h-17c-8 0 -12 4 -12 12v309c0 120 61 182 176 182s176 -62 176 -182v-309c0 -8 -4 -12 -12 -12h-17c-8 0 -12 4 -12 12zM357 700l-87 -125c-4 -6 -8 -8 -14 -8h-18
c-6 0 -10 2 -14 8l-86 125c-5 7 -2 13 7 13h15c5 0 9 -2 13 -7l75 -106l74 106c4 5 8 7 13 7h15c9 0 12 -6 7 -13z" />
    <glyph glyph-name="napostrophe" unicode="&#x149;" horiz-adv-x="496" 
d="M383 12v300c0 105 -42 154 -135 154c-92 0 -135 -49 -135 -154v-300c0 -8 -4 -12 -12 -12h-17c-8 0 -12 4 -12 12v309c0 120 61 182 176 182s176 -62 176 -182v-309c0 -8 -4 -12 -12 -12h-17c-8 0 -12 4 -12 12zM96 686c20 0 34 -14 34 -38c0 -41 -19 -79 -52 -106
c-4 -3 -8 -3 -11 1l-4 5c-3 4 -3 7 1 11c19 16 29 37 32 64c-20 0 -34 12 -34 31c0 20 15 32 34 32z" />
    <glyph glyph-name="Eng" unicode="&#x14a;" horiz-adv-x="624" 
d="M506 664h18c8 0 12 -4 12 -12v-681c0 -86 -43 -131 -123 -131h-25c-8 0 -12 4 -12 12v15c0 8 4 12 12 12h20c58 0 86 30 86 92v26l-363 595h-1v-580c0 -8 -4 -12 -12 -12h-18c-8 0 -12 4 -12 12v640c0 8 4 12 12 12h26c6 0 10 -2 14 -8l353 -578h1v574c0 8 4 12 12 12z
" />
    <glyph glyph-name="eng" unicode="&#x14b;" horiz-adv-x="495" 
d="M383 -29v341c0 105 -42 154 -135 154c-92 0 -135 -49 -135 -154v-300c0 -8 -4 -12 -12 -12h-17c-8 0 -12 4 -12 12v309c0 120 61 182 176 182s176 -62 176 -182v-350c0 -86 -42 -131 -123 -131h-5c-8 0 -12 4 -12 12v13c0 8 4 12 12 12h1c57 0 86 31 86 94z" />
    <glyph glyph-name="Omacron" unicode="&#x14c;" horiz-adv-x="582" 
d="M62 228v208c0 157 79 240 229 240s229 -83 229 -240v-208c0 -157 -79 -240 -229 -240s-229 83 -229 240zM105 426v-188c0 -143 60 -211 186 -211s186 68 186 211v188c0 143 -60 211 -186 211s-186 -68 -186 -211zM414 801v-12c0 -8 -4 -12 -12 -12h-223
c-8 0 -12 4 -12 12v12c0 8 4 12 12 12h223c8 0 12 -4 12 -12z" />
    <glyph glyph-name="omacron" unicode="&#x14d;" horiz-adv-x="472" 
d="M236 503c117 0 179 -63 179 -186v-143c0 -122 -62 -186 -179 -186s-179 64 -179 186v143c0 123 62 186 179 186zM374 184v124c0 108 -43 158 -138 158s-138 -50 -138 -158v-124c0 -109 43 -159 138 -159s138 50 138 159zM359 634v-12c0 -8 -4 -12 -12 -12h-223
c-8 0 -12 4 -12 12v12c0 8 4 12 12 12h223c8 0 12 -4 12 -12z" />
    <glyph glyph-name="Obreve" unicode="&#x14e;" horiz-adv-x="582" 
d="M62 228v208c0 157 79 240 229 240s229 -83 229 -240v-208c0 -157 -79 -240 -229 -240s-229 83 -229 240zM105 426v-188c0 -143 60 -211 186 -211s186 68 186 211v188c0 143 -60 211 -186 211s-186 -68 -186 -211zM386 855h11c8 0 12 -4 10 -12c-12 -57 -54 -91 -116 -91
s-104 34 -116 91c-2 8 2 12 10 12h11c7 0 10 -3 12 -10c9 -36 40 -58 83 -58s74 22 83 58c2 7 5 10 12 10z" />
    <glyph glyph-name="obreve" unicode="&#x14f;" horiz-adv-x="472" 
d="M236 503c117 0 179 -63 179 -186v-143c0 -122 -62 -186 -179 -186s-179 64 -179 186v143c0 123 62 186 179 186zM374 184v124c0 108 -43 158 -138 158s-138 -50 -138 -158v-124c0 -109 43 -159 138 -159s138 50 138 159zM331 688h11c8 0 12 -4 10 -12
c-12 -57 -54 -91 -116 -91s-104 34 -116 91c-2 8 2 12 10 12h11c7 0 10 -3 12 -10c9 -36 40 -58 83 -58s74 22 83 58c2 7 5 10 12 10z" />
    <glyph glyph-name="Ohungarumlaut" unicode="&#x150;" horiz-adv-x="582" 
d="M62 228v208c0 157 79 240 229 240s229 -83 229 -240v-208c0 -157 -79 -240 -229 -240s-229 83 -229 240zM105 426v-188c0 -143 60 -211 186 -211s186 68 186 211v188c0 143 -60 211 -186 211s-186 -68 -186 -211zM319 865l-81 -124c-4 -5 -8 -7 -14 -7h-12
c-8 0 -11 6 -7 13l74 125c4 6 8 8 14 8h18c10 0 14 -6 8 -15zM455 865l-81 -124c-4 -5 -8 -7 -14 -7h-13c-8 0 -11 6 -7 13l74 125c4 6 8 8 14 8h19c10 0 14 -6 8 -15z" />
    <glyph glyph-name="ohungarumlaut" unicode="&#x151;" horiz-adv-x="472" 
d="M236 503c117 0 179 -63 179 -186v-143c0 -122 -62 -186 -179 -186s-179 64 -179 186v143c0 123 62 186 179 186zM374 184v124c0 108 -43 158 -138 158s-138 -50 -138 -158v-124c0 -109 43 -159 138 -159s138 50 138 159zM264 698l-81 -124c-4 -5 -8 -7 -14 -7h-12
c-8 0 -11 6 -7 13l74 125c4 6 8 8 14 8h18c10 0 14 -6 8 -15zM400 698l-81 -124c-4 -5 -8 -7 -14 -7h-13c-8 0 -11 6 -7 13l74 125c4 6 8 8 14 8h19c10 0 14 -6 8 -15z" />
    <glyph glyph-name="OE" unicode="&#x152;" horiz-adv-x="907" 
d="M501 355h303c8 0 12 -4 12 -12v-15c0 -8 -4 -12 -12 -12h-303v-277h347c8 0 12 -4 12 -12v-15c0 -8 -4 -12 -12 -12h-557c-151 0 -229 77 -229 226v212c0 149 78 226 229 226h557c8 0 12 -4 12 -12v-15c0 -8 -4 -12 -12 -12h-347v-270zM458 625h-166
c-127 0 -187 -64 -187 -198v-190c0 -134 60 -198 187 -198h166v586z" />
    <glyph glyph-name="oe" unicode="&#x153;" horiz-adv-x="770" 
d="M552 503c113 0 173 -64 173 -186v-72c0 -8 -4 -12 -12 -12h-298v-48c0 -111 46 -160 149 -160c48 0 85 16 120 56c6 7 12 7 18 1l9 -10c5 -5 6 -11 0 -17c-40 -45 -88 -67 -148 -67c-90 0 -145 36 -169 104h-1c-20 -69 -73 -104 -159 -104c-116 0 -177 64 -177 186v143
c0 122 61 186 177 186c86 0 137 -35 160 -102h1c20 67 72 102 157 102zM374 184v124c0 108 -43 158 -138 158s-138 -50 -138 -158v-124c0 -109 43 -159 138 -159s138 50 138 159zM685 269v39c0 109 -42 158 -135 158s-135 -49 -135 -158v-39h270z" />
    <glyph glyph-name="Racute" unicode="&#x154;" horiz-adv-x="567" 
d="M131 280v-268c0 -8 -4 -12 -12 -12h-19c-8 0 -12 4 -12 12v640c0 8 4 12 12 12h177c156 0 228 -61 228 -192c0 -111 -52 -172 -164 -188l175 -269c6 -9 2 -15 -8 -15h-26c-6 0 -11 2 -14 8l-173 272h-164zM131 319h146c127 0 185 48 185 153s-58 153 -185 153h-146v-306z
M379 865l-88 -124c-4 -5 -8 -7 -13 -7h-16c-9 0 -12 6 -7 13l82 125c4 6 8 8 14 8h20c10 0 14 -7 8 -15z" />
    <glyph glyph-name="racute" unicode="&#x155;" horiz-adv-x="361" 
d="M72 12v322c0 111 53 169 155 169c43 0 80 -11 110 -34c6 -4 7 -10 2 -17l-8 -11c-4 -6 -10 -7 -17 -2c-23 18 -53 27 -85 27c-80 0 -116 -43 -116 -140v-314c0 -8 -4 -12 -12 -12h-17c-8 0 -12 4 -12 12zM309 698l-88 -124c-4 -5 -8 -7 -13 -7h-16c-9 0 -12 6 -7 13
l82 125c4 6 8 8 14 8h20c10 0 14 -7 8 -15z" />
    <glyph glyph-name="uni0156" unicode="&#x156;" horiz-adv-x="567" 
d="M131 280v-268c0 -8 -4 -12 -12 -12h-19c-8 0 -12 4 -12 12v640c0 8 4 12 12 12h177c156 0 228 -61 228 -192c0 -111 -52 -172 -164 -188l175 -269c6 -9 2 -15 -8 -15h-26c-6 0 -11 2 -14 8l-173 272h-164zM131 319h146c127 0 185 48 185 153s-58 153 -185 153h-146v-306z
M297 -53c19 0 33 -14 33 -37c0 -34 -17 -60 -43 -71c-5 -2 -8 -1 -10 3l-3 5c-2 4 -1 7 3 9c12 6 18 16 21 30c-20 0 -34 12 -34 31s14 30 33 30z" />
    <glyph glyph-name="uni0157" unicode="&#x157;" horiz-adv-x="361" 
d="M72 12v322c0 111 53 169 155 169c43 0 80 -11 110 -34c6 -4 7 -10 2 -17l-8 -11c-4 -6 -10 -7 -17 -2c-23 18 -53 27 -85 27c-80 0 -116 -43 -116 -140v-314c0 -8 -4 -12 -12 -12h-17c-8 0 -12 4 -12 12zM93 -53c19 0 33 -14 33 -37c0 -34 -17 -60 -43 -71
c-5 -2 -8 -1 -10 3l-3 5c-2 4 -1 7 3 9c12 6 18 16 21 30c-20 0 -34 12 -34 31s14 30 33 30z" />
    <glyph glyph-name="Rcaron" unicode="&#x158;" horiz-adv-x="567" 
d="M131 280v-268c0 -8 -4 -12 -12 -12h-19c-8 0 -12 4 -12 12v640c0 8 4 12 12 12h177c156 0 228 -61 228 -192c0 -111 -52 -172 -164 -188l175 -269c6 -9 2 -15 -8 -15h-26c-6 0 -11 2 -14 8l-173 272h-164zM131 319h146c127 0 185 48 185 153s-58 153 -185 153h-146v-306z
M386 867l-87 -125c-4 -6 -8 -8 -14 -8h-18c-6 0 -10 2 -14 8l-86 125c-5 7 -2 13 7 13h15c5 0 9 -2 13 -7l75 -106l74 106c4 5 8 7 13 7h15c9 0 12 -6 7 -13z" />
    <glyph glyph-name="rcaron" unicode="&#x159;" horiz-adv-x="361" 
d="M72 12v322c0 111 53 169 155 169c43 0 80 -11 110 -34c6 -4 7 -10 2 -17l-8 -11c-4 -6 -10 -7 -17 -2c-23 18 -53 27 -85 27c-80 0 -116 -43 -116 -140v-314c0 -8 -4 -12 -12 -12h-17c-8 0 -12 4 -12 12zM316 700l-87 -125c-4 -6 -8 -8 -14 -8h-18c-6 0 -10 2 -14 8
l-86 125c-5 7 -2 13 7 13h15c5 0 9 -2 13 -7l75 -106l74 106c4 5 8 7 13 7h15c9 0 12 -6 7 -13z" />
    <glyph glyph-name="Sacute" unicode="&#x15a;" horiz-adv-x="505" 
d="M256 676c89 0 155 -30 196 -88c5 -8 4 -13 -2 -18l-13 -10c-6 -4 -13 -3 -18 4c-33 48 -88 73 -162 73c-99 0 -165 -57 -165 -144c0 -80 45 -120 178 -142c152 -25 204 -75 204 -180c0 -110 -82 -183 -206 -183c-100 0 -178 35 -227 103c-4 6 -3 11 3 16l12 11
c6 5 12 4 17 -3c42 -58 108 -88 194 -88c99 0 165 57 165 144c0 80 -43 118 -176 139c-153 24 -206 77 -206 183c0 110 82 183 206 183zM358 865l-88 -124c-4 -5 -8 -7 -13 -7h-16c-9 0 -12 6 -7 13l82 125c4 6 8 8 14 8h20c10 0 14 -7 8 -15z" />
    <glyph glyph-name="sacute" unicode="&#x15b;" horiz-adv-x="411" 
d="M379 129c0 -86 -63 -141 -163 -141c-78 0 -135 21 -177 65c-5 5 -5 11 0 17l9 10c5 6 11 6 17 0c35 -36 85 -55 148 -55c79 0 125 39 125 105c0 60 -34 89 -136 102c-116 15 -156 52 -156 130c0 86 65 141 169 141c55 0 107 -17 143 -47c6 -5 5 -11 1 -17l-7 -10
c-5 -7 -12 -7 -19 -1c-28 24 -70 38 -115 38c-83 0 -131 -38 -131 -104c0 -55 31 -79 129 -93c78 -11 163 -26 163 -140zM308 698l-88 -124c-4 -5 -8 -7 -13 -7h-16c-9 0 -12 6 -7 13l82 125c4 6 8 8 14 8h20c10 0 14 -7 8 -15z" />
    <glyph glyph-name="Scircumflex" unicode="&#x15c;" horiz-adv-x="505" 
d="M256 676c89 0 155 -30 196 -88c5 -8 4 -13 -2 -18l-13 -10c-6 -4 -13 -3 -18 4c-33 48 -88 73 -162 73c-99 0 -165 -57 -165 -144c0 -80 45 -120 178 -142c152 -25 204 -75 204 -180c0 -110 -82 -183 -206 -183c-100 0 -178 35 -227 103c-4 6 -3 11 3 16l12 11
c6 5 12 4 17 -3c42 -58 108 -88 194 -88c99 0 165 57 165 144c0 80 -43 118 -176 139c-153 24 -206 77 -206 183c0 110 82 183 206 183zM256 846l-75 -105c-4 -5 -8 -7 -13 -7h-15c-9 0 -12 6 -7 13l86 125c4 6 8 8 14 8h18c6 0 10 -2 14 -8l87 -125c5 -7 2 -13 -7 -13h-15
c-5 0 -9 2 -13 7z" />
    <glyph glyph-name="scircumflex" unicode="&#x15d;" horiz-adv-x="411" 
d="M379 129c0 -86 -63 -141 -163 -141c-78 0 -135 21 -177 65c-5 5 -5 11 0 17l9 10c5 6 11 6 17 0c35 -36 85 -55 148 -55c79 0 125 39 125 105c0 60 -34 89 -136 102c-116 15 -156 52 -156 130c0 86 65 141 169 141c55 0 107 -17 143 -47c6 -5 5 -11 1 -17l-7 -10
c-5 -7 -12 -7 -19 -1c-28 24 -70 38 -115 38c-83 0 -131 -38 -131 -104c0 -55 31 -79 129 -93c78 -11 163 -26 163 -140zM206 679l-75 -105c-4 -5 -8 -7 -13 -7h-15c-9 0 -12 6 -7 13l86 125c4 6 8 8 14 8h18c6 0 10 -2 14 -8l87 -125c5 -7 2 -13 -7 -13h-15
c-5 0 -9 2 -13 7z" />
    <glyph glyph-name="Scedilla" unicode="&#x15e;" horiz-adv-x="505" 
d="M41 91c-4 6 -3 11 3 16l12 11c6 5 12 4 17 -3c42 -58 108 -88 194 -88c99 0 165 57 165 144c0 80 -43 118 -176 139c-153 24 -206 77 -206 183c0 110 82 183 206 183c89 0 155 -30 196 -88c5 -8 4 -13 -2 -18l-13 -10c-6 -4 -13 -3 -18 4c-33 48 -88 73 -162 73
c-99 0 -165 -57 -165 -144c0 -80 45 -120 178 -142c152 -25 204 -75 204 -180c0 -108 -78 -180 -198 -183l-9 -42c48 -1 72 -21 72 -55c0 -39 -29 -63 -83 -63c-27 0 -53 7 -73 19c-5 4 -7 8 -3 15l5 9c3 6 8 8 15 4c15 -10 35 -16 55 -16c35 0 50 15 50 33
c-1 22 -18 32 -59 32h-3c-7 0 -11 5 -9 12l11 53c-89 5 -159 39 -204 102z" />
    <glyph glyph-name="scedilla" unicode="&#x15f;" horiz-adv-x="411" 
d="M39 53c-5 5 -5 11 0 17l9 10c5 6 11 6 17 0c35 -36 85 -55 148 -55c79 0 125 39 125 105c0 60 -34 89 -136 102c-116 15 -156 52 -156 130c0 86 65 141 169 141c55 0 107 -17 143 -47c6 -5 5 -11 1 -17l-7 -10c-5 -7 -12 -7 -19 -1c-28 24 -70 38 -115 38
c-83 0 -131 -38 -131 -104c0 -55 31 -79 129 -93c78 -11 163 -26 163 -140c0 -84 -60 -137 -153 -141l-9 -42c48 -1 72 -21 72 -55c0 -39 -29 -63 -83 -63c-27 0 -53 7 -73 19c-5 4 -7 8 -3 15l5 9c3 6 8 8 15 4c15 -10 35 -16 55 -16c35 0 50 15 50 33c-1 22 -18 32 -59 32
h-3c-7 0 -11 5 -9 12l11 53c-67 3 -118 24 -156 64z" />
    <glyph glyph-name="Scaron" unicode="&#x160;" horiz-adv-x="505" 
d="M256 676c89 0 155 -30 196 -88c5 -8 4 -13 -2 -18l-13 -10c-6 -4 -13 -3 -18 4c-33 48 -88 73 -162 73c-99 0 -165 -57 -165 -144c0 -80 45 -120 178 -142c152 -25 204 -75 204 -180c0 -110 -82 -183 -206 -183c-100 0 -178 35 -227 103c-4 6 -3 11 3 16l12 11
c6 5 12 4 17 -3c42 -58 108 -88 194 -88c99 0 165 57 165 144c0 80 -43 118 -176 139c-153 24 -206 77 -206 183c0 110 82 183 206 183zM365 867l-87 -125c-4 -6 -8 -8 -14 -8h-18c-6 0 -10 2 -14 8l-86 125c-5 7 -2 13 7 13h15c5 0 9 -2 13 -7l75 -106l74 106c4 5 8 7 13 7
h15c9 0 12 -6 7 -13z" />
    <glyph glyph-name="scaron" unicode="&#x161;" horiz-adv-x="411" 
d="M379 129c0 -86 -63 -141 -163 -141c-78 0 -135 21 -177 65c-5 5 -5 11 0 17l9 10c5 6 11 6 17 0c35 -36 85 -55 148 -55c79 0 125 39 125 105c0 60 -34 89 -136 102c-116 15 -156 52 -156 130c0 86 65 141 169 141c55 0 107 -17 143 -47c6 -5 5 -11 1 -17l-7 -10
c-5 -7 -12 -7 -19 -1c-28 24 -70 38 -115 38c-83 0 -131 -38 -131 -104c0 -55 31 -79 129 -93c78 -11 163 -26 163 -140zM315 700l-87 -125c-4 -6 -8 -8 -14 -8h-18c-6 0 -10 2 -14 8l-86 125c-5 7 -2 13 7 13h15c5 0 9 -2 13 -7l75 -106l74 106c4 5 8 7 13 7h15
c9 0 12 -6 7 -13z" />
    <glyph glyph-name="uni0162" unicode="&#x162;" horiz-adv-x="477" 
d="M32 664h413c8 0 12 -4 12 -12v-15c0 -8 -4 -12 -12 -12h-185v-613c0 -6 -2 -9 -6 -11l-11 -55c48 -1 72 -21 72 -55c0 -39 -29 -63 -83 -63c-27 0 -53 7 -73 19c-5 4 -7 8 -3 15l5 9c3 6 8 8 15 4c15 -10 35 -16 55 -16c35 0 50 15 50 33c-1 22 -18 32 -59 32h-3
c-7 0 -11 5 -9 12l13 65c-4 2 -6 5 -6 11v613h-185c-8 0 -12 4 -12 12v15c0 8 4 12 12 12z" />
    <glyph glyph-name="uni0163" unicode="&#x163;" horiz-adv-x="349" 
d="M323 43l6 -11c3 -7 2 -12 -4 -17c-26 -18 -58 -27 -91 -27l-19 1l-9 -43c48 -1 72 -21 72 -55c0 -39 -29 -63 -83 -63c-27 0 -53 7 -73 19c-5 4 -7 8 -3 15l5 9c3 6 8 8 15 4c15 -10 35 -16 55 -16c35 0 50 15 50 33c-1 22 -18 32 -59 32h-3c-7 0 -11 5 -9 12l12 58
c-56 16 -86 63 -86 135v325h-68c-8 0 -12 4 -12 12v13c0 8 4 12 12 12h68v124c0 8 4 12 12 12h17c8 0 12 -4 12 -12v-124h164c8 0 12 -4 12 -12v-13c0 -8 -4 -12 -12 -12h-164v-320c0 -73 32 -109 97 -109c25 0 47 7 70 22c6 4 12 3 16 -4z" />
    <glyph glyph-name="Tcaron" unicode="&#x164;" horiz-adv-x="477" 
d="M260 625v-613c0 -8 -4 -12 -12 -12h-19c-8 0 -12 4 -12 12v613h-185c-8 0 -12 4 -12 12v15c0 8 4 12 12 12h413c8 0 12 -4 12 -12v-15c0 -8 -4 -12 -12 -12h-185zM347 867l-87 -125c-4 -6 -8 -8 -14 -8h-18c-6 0 -10 2 -14 8l-86 125c-5 7 -2 13 7 13h15c5 0 9 -2 13 -7
l75 -106l74 106c4 5 8 7 13 7h15c9 0 12 -6 7 -13z" />
    <glyph glyph-name="tcaron" unicode="&#x165;" horiz-adv-x="349" 
d="M323 43l6 -11c3 -7 2 -12 -4 -17c-26 -18 -58 -27 -91 -27c-88 0 -135 50 -135 141v325h-68c-8 0 -12 4 -12 12v13c0 8 4 12 12 12h68v124c0 8 4 12 12 12h17c8 0 12 -4 12 -12v-124h164c8 0 12 -4 12 -12v-13c0 -8 -4 -12 -12 -12h-164v-320c0 -73 32 -109 97 -109
c25 0 47 7 70 22c6 4 12 3 16 -4zM316 719l-26 -161c-1 -7 -5 -10 -12 -10h-9c-8 0 -12 4 -11 12l21 161c1 7 5 11 12 11h14c8 0 12 -5 11 -13z" />
    <glyph glyph-name="Tbar" unicode="&#x166;" horiz-adv-x="477" 
d="M32 664h413c8 0 12 -4 12 -12v-15c0 -8 -4 -12 -12 -12h-185v-239h120c7 0 11 -4 11 -11v-14c0 -7 -4 -11 -11 -11h-120v-338c0 -8 -4 -12 -12 -12h-19c-8 0 -12 4 -12 12v338h-124c-7 0 -11 4 -11 11v14c0 7 4 11 11 11h124v239h-185c-8 0 -12 4 -12 12v15
c0 8 4 12 12 12z" />
    <glyph glyph-name="tbar" unicode="&#x167;" horiz-adv-x="362" 
d="M330 43l6 -11c3 -7 2 -12 -4 -17c-26 -18 -58 -27 -91 -27c-88 0 -135 50 -135 141v134h-58c-8 0 -12 4 -12 12v12c0 8 4 12 12 12h58v155h-68c-8 0 -12 4 -12 12v13c0 8 4 12 12 12h68v124c0 8 4 12 12 12h17c8 0 12 -4 12 -12v-124h164c8 0 12 -4 12 -12v-13
c0 -8 -4 -12 -12 -12h-164v-155h144c8 0 12 -4 12 -12v-12c0 -8 -4 -12 -12 -12h-144v-129c0 -73 32 -109 97 -109c25 0 47 7 70 22c6 4 12 3 16 -4z" />
    <glyph glyph-name="Utilde" unicode="&#x168;" horiz-adv-x="588" 
d="M512 652v-433c0 -151 -75 -231 -218 -231s-218 80 -218 231v433c0 8 4 12 12 12h19c8 0 12 -4 12 -12v-423c0 -138 56 -202 175 -202s176 64 176 202v423c0 8 4 12 12 12h18c8 0 12 -4 12 -12zM183 751h-12c-7 0 -11 4 -10 11c8 52 37 83 79 83c23 0 40 -9 65 -33
c19 -19 31 -26 45 -26c25 0 39 15 45 49c1 6 4 9 10 9h12c7 0 11 -4 10 -11c-8 -52 -37 -83 -79 -83c-23 0 -40 9 -65 33c-19 19 -31 26 -45 26c-25 0 -39 -15 -45 -49c-1 -6 -4 -9 -10 -9z" />
    <glyph glyph-name="utilde" unicode="&#x169;" horiz-adv-x="490" 
d="M418 479v-312c0 -117 -60 -179 -173 -179s-173 62 -173 179v312c0 8 4 12 12 12h17c8 0 12 -4 12 -12v-303c0 -104 42 -151 132 -151c91 0 133 47 133 151v303c0 8 4 12 12 12h16c8 0 12 -4 12 -12zM134 584h-12c-7 0 -11 4 -10 11c8 52 37 83 79 83c23 0 40 -9 65 -33
c19 -19 31 -26 45 -26c25 0 39 15 45 49c1 6 4 9 10 9h12c7 0 11 -4 10 -11c-8 -52 -37 -83 -79 -83c-23 0 -40 9 -65 33c-19 19 -31 26 -45 26c-25 0 -39 -15 -45 -49c-1 -6 -4 -9 -10 -9z" />
    <glyph glyph-name="Umacron" unicode="&#x16a;" horiz-adv-x="588" 
d="M512 652v-433c0 -151 -75 -231 -218 -231s-218 80 -218 231v433c0 8 4 12 12 12h19c8 0 12 -4 12 -12v-423c0 -138 56 -202 175 -202s176 64 176 202v423c0 8 4 12 12 12h18c8 0 12 -4 12 -12zM417 801v-12c0 -8 -4 -12 -12 -12h-223c-8 0 -12 4 -12 12v12
c0 8 4 12 12 12h223c8 0 12 -4 12 -12z" />
    <glyph glyph-name="umacron" unicode="&#x16b;" horiz-adv-x="490" 
d="M418 479v-312c0 -117 -60 -179 -173 -179s-173 62 -173 179v312c0 8 4 12 12 12h17c8 0 12 -4 12 -12v-303c0 -104 42 -151 132 -151c91 0 133 47 133 151v303c0 8 4 12 12 12h16c8 0 12 -4 12 -12zM368 634v-12c0 -8 -4 -12 -12 -12h-223c-8 0 -12 4 -12 12v12
c0 8 4 12 12 12h223c8 0 12 -4 12 -12z" />
    <glyph glyph-name="Ubreve" unicode="&#x16c;" horiz-adv-x="588" 
d="M512 652v-433c0 -151 -75 -231 -218 -231s-218 80 -218 231v433c0 8 4 12 12 12h19c8 0 12 -4 12 -12v-423c0 -138 56 -202 175 -202s176 64 176 202v423c0 8 4 12 12 12h18c8 0 12 -4 12 -12zM389 855h11c8 0 12 -4 10 -12c-12 -57 -54 -91 -116 -91s-104 34 -116 91
c-2 8 2 12 10 12h11c7 0 10 -3 12 -10c9 -36 40 -58 83 -58s74 22 83 58c2 7 5 10 12 10z" />
    <glyph glyph-name="ubreve" unicode="&#x16d;" horiz-adv-x="490" 
d="M418 479v-312c0 -117 -60 -179 -173 -179s-173 62 -173 179v312c0 8 4 12 12 12h17c8 0 12 -4 12 -12v-303c0 -104 42 -151 132 -151c91 0 133 47 133 151v303c0 8 4 12 12 12h16c8 0 12 -4 12 -12zM340 688h11c8 0 12 -4 10 -12c-12 -57 -54 -91 -116 -91
s-104 34 -116 91c-2 8 2 12 10 12h11c7 0 10 -3 12 -10c9 -36 40 -58 83 -58s74 22 83 58c2 7 5 10 12 10z" />
    <glyph glyph-name="Uring" unicode="&#x16e;" horiz-adv-x="588" 
d="M512 652v-433c0 -151 -75 -231 -218 -231s-218 80 -218 231v433c0 8 4 12 12 12h19c8 0 12 -4 12 -12v-423c0 -138 56 -202 175 -202s176 64 176 202v423c0 8 4 12 12 12h18c8 0 12 -4 12 -12zM294 731c-43 0 -76 33 -76 76s33 76 76 76s76 -33 76 -76s-33 -76 -76 -76z
M294 763c25 0 43 18 43 44s-18 44 -43 44s-43 -18 -43 -44s18 -44 43 -44z" />
    <glyph glyph-name="uring" unicode="&#x16f;" horiz-adv-x="490" 
d="M418 479v-312c0 -117 -60 -179 -173 -179s-173 62 -173 179v312c0 8 4 12 12 12h17c8 0 12 -4 12 -12v-303c0 -104 42 -151 132 -151c91 0 133 47 133 151v303c0 8 4 12 12 12h16c8 0 12 -4 12 -12zM245 564c-43 0 -76 33 -76 76s33 76 76 76s76 -33 76 -76
s-33 -76 -76 -76zM245 596c25 0 43 18 43 44s-18 44 -43 44s-43 -18 -43 -44s18 -44 43 -44z" />
    <glyph glyph-name="Uhungarumlaut" unicode="&#x170;" horiz-adv-x="588" 
d="M512 652v-433c0 -151 -75 -231 -218 -231s-218 80 -218 231v433c0 8 4 12 12 12h19c8 0 12 -4 12 -12v-423c0 -138 56 -202 175 -202s176 64 176 202v423c0 8 4 12 12 12h18c8 0 12 -4 12 -12zM322 865l-81 -124c-4 -5 -8 -7 -14 -7h-12c-8 0 -11 6 -7 13l74 125
c4 6 8 8 14 8h18c10 0 14 -6 8 -15zM458 865l-81 -124c-4 -5 -8 -7 -14 -7h-13c-8 0 -11 6 -7 13l74 125c4 6 8 8 14 8h19c10 0 14 -6 8 -15z" />
    <glyph glyph-name="uhungarumlaut" unicode="&#x171;" horiz-adv-x="490" 
d="M418 479v-312c0 -117 -60 -179 -173 -179s-173 62 -173 179v312c0 8 4 12 12 12h17c8 0 12 -4 12 -12v-303c0 -104 42 -151 132 -151c91 0 133 47 133 151v303c0 8 4 12 12 12h16c8 0 12 -4 12 -12zM273 698l-81 -124c-4 -5 -8 -7 -14 -7h-12c-8 0 -11 6 -7 13l74 125
c4 6 8 8 14 8h18c10 0 14 -6 8 -15zM409 698l-81 -124c-4 -5 -8 -7 -14 -7h-13c-8 0 -11 6 -7 13l74 125c4 6 8 8 14 8h19c10 0 14 -6 8 -15z" />
    <glyph glyph-name="Uogonek" unicode="&#x172;" horiz-adv-x="588" 
d="M482 664h18c8 0 12 -4 12 -12v-433c0 -109 -37 -176 -112 -213c-54 -26 -75 -66 -75 -101c0 -26 20 -46 46 -46c21 0 35 8 47 20c6 6 12 6 17 0l6 -7c5 -5 4 -11 -1 -16c-17 -16 -39 -28 -70 -28c-46 0 -79 28 -79 72c0 30 13 61 40 89v1c-11 -1 -24 -2 -37 -2
c-143 0 -218 80 -218 231v433c0 8 4 12 12 12h19c8 0 12 -4 12 -12v-423c0 -138 56 -202 175 -202s176 64 176 202v423c0 8 4 12 12 12z" />
    <glyph glyph-name="uogonek" unicode="&#x173;" horiz-adv-x="490" 
d="M337 6c-55 -29 -74 -67 -74 -101c0 -26 20 -46 46 -46c21 0 35 8 47 20c6 6 12 6 17 0l6 -7c5 -5 4 -11 -1 -16c-17 -16 -39 -28 -70 -28c-46 0 -79 28 -79 72c0 30 12 60 39 88v1c-7 -1 -15 -1 -23 -1c-113 0 -173 62 -173 179v312c0 8 4 12 12 12h17c8 0 12 -4 12 -12
v-303c0 -104 42 -151 132 -151c91 0 133 47 133 151v303c0 8 4 12 12 12h16c8 0 12 -4 12 -12v-312c0 -82 -28 -133 -81 -161z" />
    <glyph glyph-name="Wcircumflex" unicode="&#x174;" horiz-adv-x="848" 
d="M621 0h-23c-8 0 -13 4 -15 11l-158 568h-1l-159 -568c-2 -7 -7 -11 -15 -11h-23c-8 0 -13 4 -15 11l-179 640c-2 8 1 13 10 13h21c8 0 12 -3 14 -10l161 -584h1l162 583c2 7 7 11 15 11h15c8 0 13 -4 15 -11l163 -583h1l160 584c2 7 6 10 14 10h20c9 0 12 -5 10 -13
l-179 -640c-2 -7 -7 -11 -15 -11zM424 846l-75 -105c-4 -5 -8 -7 -13 -7h-15c-9 0 -12 6 -7 13l86 125c4 6 8 8 14 8h18c6 0 10 -2 14 -8l87 -125c5 -7 2 -13 -7 -13h-15c-5 0 -9 2 -13 7z" />
    <glyph glyph-name="wcircumflex" unicode="&#x175;" horiz-adv-x="676" 
d="M498 0h-23c-7 0 -12 4 -14 11l-122 402h-1l-123 -402c-2 -7 -7 -11 -14 -11h-23c-7 0 -12 4 -14 11l-139 466c-3 9 1 14 10 14h20c8 0 12 -3 14 -10l121 -415h1l126 414c2 7 7 11 14 11h16c7 0 12 -4 14 -11l126 -414h1l121 415c2 7 6 10 13 10h19c9 0 13 -5 10 -14
l-139 -466c-2 -7 -7 -11 -14 -11zM338 679l-75 -105c-4 -5 -8 -7 -13 -7h-15c-9 0 -12 6 -7 13l86 125c4 6 8 8 14 8h18c6 0 10 -2 14 -8l87 -125c5 -7 2 -13 -7 -13h-15c-5 0 -9 2 -13 7z" />
    <glyph glyph-name="Ycircumflex" unicode="&#x176;" horiz-adv-x="509" 
d="M264 0h-19c-8 0 -12 4 -12 12v285l-219 353c-5 8 -2 14 8 14h25c6 0 11 -2 14 -8l195 -317l193 317c4 6 8 8 14 8h24c10 0 13 -6 8 -14l-219 -353v-285c0 -8 -4 -12 -12 -12zM254 846l-75 -105c-4 -5 -8 -7 -13 -7h-15c-9 0 -12 6 -7 13l86 125c4 6 8 8 14 8h18
c6 0 10 -2 14 -8l87 -125c5 -7 2 -13 -7 -13h-15c-5 0 -9 2 -13 7z" />
    <glyph glyph-name="ycircumflex" unicode="&#x177;" horiz-adv-x="501" 
d="M424 479v-481c0 -105 -68 -170 -177 -170c-66 0 -118 19 -160 59c-5 5 -5 11 0 17l9 11c5 6 11 6 17 0c35 -32 76 -50 132 -50c90 0 138 51 138 142v65h-1c-25 -47 -73 -71 -139 -71c-112 0 -171 63 -171 182v296c0 8 4 12 12 12h17c8 0 12 -4 12 -12v-286
c0 -107 43 -155 135 -155c91 0 135 51 135 155v286c0 8 4 12 12 12h17c8 0 12 -4 12 -12zM248 679l-75 -105c-4 -5 -8 -7 -13 -7h-15c-9 0 -12 6 -7 13l86 125c4 6 8 8 14 8h18c6 0 10 -2 14 -8l87 -125c5 -7 2 -13 -7 -13h-15c-5 0 -9 2 -13 7z" />
    <glyph glyph-name="Ydieresis" unicode="&#x178;" horiz-adv-x="509" 
d="M264 0h-19c-8 0 -12 4 -12 12v285l-219 353c-5 8 -2 14 8 14h25c6 0 11 -2 14 -8l195 -317l193 317c4 6 8 8 14 8h24c10 0 13 -6 8 -14l-219 -353v-285c0 -8 -4 -12 -12 -12zM177 766c-19 0 -33 14 -33 32c0 19 14 33 33 33c18 0 32 -14 32 -33c0 -18 -14 -32 -32 -32z
M331 766c-18 0 -32 14 -32 32c0 19 14 33 32 33c19 0 33 -14 33 -33c0 -18 -14 -32 -33 -32z" />
    <glyph glyph-name="Zacute" unicode="&#x179;" horiz-adv-x="514" 
d="M461 0h-409c-8 0 -12 4 -12 12v21c0 6 1 10 4 15l373 577h-350c-8 0 -12 4 -12 12v15c0 8 4 12 12 12h389c8 0 12 -4 12 -12v-21c0 -6 -1 -10 -4 -15l-374 -577h371c8 0 12 -4 12 -12v-15c0 -8 -4 -12 -12 -12zM362 865l-88 -124c-4 -5 -8 -7 -13 -7h-16
c-9 0 -12 6 -7 13l82 125c4 6 8 8 14 8h20c10 0 14 -7 8 -15z" />
    <glyph glyph-name="zacute" unicode="&#x17a;" horiz-adv-x="418" 
d="M368 0h-318c-8 0 -12 4 -12 12v18c0 6 1 10 5 16l282 408h-260c-8 0 -12 4 -12 12v13c0 8 4 12 12 12h298c8 0 12 -4 12 -12v-19c0 -6 -1 -10 -5 -16l-284 -407h282c8 0 12 -4 12 -12v-13c0 -8 -4 -12 -12 -12zM314 698l-88 -124c-4 -5 -8 -7 -13 -7h-16
c-9 0 -12 6 -7 13l82 125c4 6 8 8 14 8h20c10 0 14 -7 8 -15z" />
    <glyph glyph-name="Zdotaccent" unicode="&#x17b;" horiz-adv-x="514" 
d="M461 0h-409c-8 0 -12 4 -12 12v21c0 6 1 10 4 15l373 577h-350c-8 0 -12 4 -12 12v15c0 8 4 12 12 12h389c8 0 12 -4 12 -12v-21c0 -6 -1 -10 -4 -15l-374 -577h371c8 0 12 -4 12 -12v-15c0 -8 -4 -12 -12 -12zM260 765c-19 0 -33 15 -33 33c0 19 14 33 33 33
s33 -14 33 -33c0 -18 -14 -33 -33 -33z" />
    <glyph glyph-name="zdotaccent" unicode="&#x17c;" horiz-adv-x="418" 
d="M368 0h-318c-8 0 -12 4 -12 12v18c0 6 1 10 5 16l282 408h-260c-8 0 -12 4 -12 12v13c0 8 4 12 12 12h298c8 0 12 -4 12 -12v-19c0 -6 -1 -10 -5 -16l-284 -407h282c8 0 12 -4 12 -12v-13c0 -8 -4 -12 -12 -12zM212 598c-19 0 -33 15 -33 33c0 19 14 33 33 33
s33 -14 33 -33c0 -18 -14 -33 -33 -33z" />
    <glyph glyph-name="Zcaron" unicode="&#x17d;" horiz-adv-x="514" 
d="M461 0h-409c-8 0 -12 4 -12 12v21c0 6 1 10 4 15l373 577h-350c-8 0 -12 4 -12 12v15c0 8 4 12 12 12h389c8 0 12 -4 12 -12v-21c0 -6 -1 -10 -4 -15l-374 -577h371c8 0 12 -4 12 -12v-15c0 -8 -4 -12 -12 -12zM369 867l-87 -125c-4 -6 -8 -8 -14 -8h-18
c-6 0 -10 2 -14 8l-86 125c-5 7 -2 13 7 13h15c5 0 9 -2 13 -7l75 -106l74 106c4 5 8 7 13 7h15c9 0 12 -6 7 -13z" />
    <glyph glyph-name="zcaron" unicode="&#x17e;" horiz-adv-x="418" 
d="M368 0h-318c-8 0 -12 4 -12 12v18c0 6 1 10 5 16l282 408h-260c-8 0 -12 4 -12 12v13c0 8 4 12 12 12h298c8 0 12 -4 12 -12v-19c0 -6 -1 -10 -5 -16l-284 -407h282c8 0 12 -4 12 -12v-13c0 -8 -4 -12 -12 -12zM321 700l-87 -125c-4 -6 -8 -8 -14 -8h-18
c-6 0 -10 2 -14 8l-86 125c-5 7 -2 13 7 13h15c5 0 9 -2 13 -7l75 -106l74 106c4 5 8 7 13 7h15c9 0 12 -6 7 -13z" />
    <glyph glyph-name="florin" unicode="&#x192;" horiz-adv-x="528" 
d="M387 599c-69 0 -106 -40 -118 -128l-9 -66h175c8 0 12 -4 12 -12v-13c0 -8 -4 -12 -12 -12h-181l-60 -427c-1 -7 -6 -11 -13 -11h-17c-8 0 -12 5 -11 13l60 425h-119c-8 0 -12 4 -12 12v13c0 8 4 12 12 12h124l10 71c16 108 66 160 157 160c38 0 68 -7 96 -24
c7 -4 7 -10 4 -16l-6 -11c-4 -8 -10 -10 -18 -5c-21 13 -44 19 -74 19z" />
    <glyph glyph-name="AEacute" unicode="&#x1fc;" horiz-adv-x="885" 
d="M479 355h303c8 0 12 -4 12 -12v-15c0 -8 -4 -12 -12 -12h-303v-277h347c8 0 12 -4 12 -12v-15c0 -8 -4 -12 -12 -12h-378c-8 0 -12 4 -12 12v142h-285l-90 -146c-3 -6 -8 -8 -14 -8h-23c-10 0 -13 6 -8 14l401 641c4 6 8 9 15 9h394c8 0 12 -4 12 -12v-15
c0 -8 -4 -12 -12 -12h-347v-270zM436 193v422h-1l-260 -422h261zM552 865l-88 -124c-4 -5 -8 -7 -13 -7h-16c-9 0 -12 6 -7 13l82 125c4 6 8 8 14 8h20c10 0 14 -7 8 -15z" />
    <glyph glyph-name="aeacute" unicode="&#x1fd;" horiz-adv-x="750" 
d="M532 503c112 0 173 -64 173 -186v-67c0 -8 -4 -12 -12 -12h-299v-53c0 -111 47 -160 150 -160c47 0 84 16 120 56c6 7 12 7 18 1l9 -9c5 -5 5 -12 0 -18c-40 -45 -89 -67 -148 -67c-89 0 -145 35 -169 103h-1c-21 -68 -74 -103 -163 -103c-105 0 -166 54 -166 144
c0 92 63 143 174 143h135v31c0 110 -44 160 -139 160c-48 0 -92 -19 -121 -51c-6 -6 -11 -6 -16 0l-10 11c-5 6 -5 12 0 17c41 41 92 60 148 60c85 0 136 -34 159 -101h1c20 67 73 101 157 101zM665 275v33c0 109 -42 158 -135 158s-136 -49 -136 -158v-33h271zM213 25
c97 0 140 50 140 159v54h-130c-89 0 -138 -36 -138 -106c0 -71 45 -107 128 -107zM476 698l-88 -124c-4 -5 -8 -7 -13 -7h-16c-9 0 -12 6 -7 13l82 125c4 6 8 8 14 8h20c10 0 14 -7 8 -15z" />
    <glyph glyph-name="Oslashacute" unicode="&#x1fe;" horiz-adv-x="582" 
d="M515 646l-35 -54c27 -39 40 -91 40 -156v-208c0 -157 -79 -240 -229 -240c-71 0 -126 19 -164 55l-29 -45c-4 -6 -9 -7 -15 -3l-13 8c-6 4 -7 9 -3 15l35 54c-27 39 -40 91 -40 156v208c0 157 79 240 229 240c71 0 126 -19 164 -55l29 45c4 6 9 7 15 3l13 -8
c6 -4 7 -9 3 -15zM105 426v-188c0 -50 8 -92 23 -124h1l303 471c-31 35 -78 52 -141 52c-126 0 -186 -68 -186 -211zM477 238v188c0 50 -8 92 -23 124h-1l-303 -471c31 -35 78 -52 141 -52c126 0 186 68 186 211zM393 865l-88 -124c-4 -5 -8 -7 -13 -7h-16c-9 0 -12 6 -7 13
l82 125c4 6 8 8 14 8h20c10 0 14 -7 8 -15z" />
    <glyph glyph-name="oslashacute" unicode="&#x1ff;" horiz-adv-x="472" 
d="M411 474l-26 -38c20 -30 30 -70 30 -119v-143c0 -122 -62 -186 -179 -186c-53 0 -95 13 -125 39l-20 -29c-4 -6 -9 -7 -15 -3l-11 7c-7 4 -8 9 -4 15l26 38c-20 30 -30 70 -30 119v143c0 123 62 186 179 186c53 0 95 -13 125 -39l20 30c4 6 9 7 15 3l12 -8
c6 -4 7 -9 3 -15zM98 308v-124c0 -36 5 -65 14 -89h1l225 335c-22 24 -56 36 -102 36c-95 0 -138 -50 -138 -158zM374 184v124c0 35 -5 65 -14 88h-1l-225 -335c22 -24 56 -36 102 -36c95 0 138 50 138 159zM338 698l-88 -124c-4 -5 -8 -7 -13 -7h-16c-9 0 -12 6 -7 13
l82 125c4 6 8 8 14 8h20c10 0 14 -7 8 -15z" />
    <glyph glyph-name="uni0218" unicode="&#x218;" horiz-adv-x="505" 
d="M256 676c89 0 155 -30 196 -88c5 -8 4 -13 -2 -18l-13 -10c-6 -4 -13 -3 -18 4c-33 48 -88 73 -162 73c-99 0 -165 -57 -165 -144c0 -80 45 -120 178 -142c152 -25 204 -75 204 -180c0 -110 -82 -183 -206 -183c-100 0 -178 35 -227 103c-4 6 -3 11 3 16l12 11
c6 5 12 4 17 -3c42 -58 108 -88 194 -88c99 0 165 57 165 144c0 80 -43 118 -176 139c-153 24 -206 77 -206 183c0 110 82 183 206 183zM262 -53c19 0 33 -14 33 -37c0 -34 -17 -60 -43 -71c-5 -2 -8 -1 -10 3l-3 5c-2 4 -1 7 3 9c12 6 18 16 21 30c-20 0 -34 12 -34 31
s14 30 33 30z" />
    <glyph glyph-name="uni0219" unicode="&#x219;" horiz-adv-x="411" 
d="M379 129c0 -86 -63 -141 -163 -141c-78 0 -135 21 -177 65c-5 5 -5 11 0 17l9 10c5 6 11 6 17 0c35 -36 85 -55 148 -55c79 0 125 39 125 105c0 60 -34 89 -136 102c-116 15 -156 52 -156 130c0 86 65 141 169 141c55 0 107 -17 143 -47c6 -5 5 -11 1 -17l-7 -10
c-5 -7 -12 -7 -19 -1c-28 24 -70 38 -115 38c-83 0 -131 -38 -131 -104c0 -55 31 -79 129 -93c78 -11 163 -26 163 -140zM212 -53c19 0 33 -14 33 -37c0 -34 -17 -60 -43 -71c-5 -2 -8 -1 -10 3l-3 5c-2 4 -1 7 3 9c12 6 18 16 21 30c-20 0 -34 12 -34 31s14 30 33 30z" />
    <glyph glyph-name="uni021A" unicode="&#x21a;" horiz-adv-x="477" 
d="M260 625v-613c0 -8 -4 -12 -12 -12h-19c-8 0 -12 4 -12 12v613h-185c-8 0 -12 4 -12 12v15c0 8 4 12 12 12h413c8 0 12 -4 12 -12v-15c0 -8 -4 -12 -12 -12h-185zM238 -53c19 0 33 -14 33 -37c0 -34 -17 -60 -43 -71c-5 -2 -8 -1 -10 3l-3 5c-2 4 -1 7 3 9
c12 6 18 16 21 30c-20 0 -34 12 -34 31s14 30 33 30z" />
    <glyph glyph-name="uni021B" unicode="&#x21b;" horiz-adv-x="349" 
d="M323 43l6 -11c3 -7 2 -12 -4 -17c-26 -18 -58 -27 -91 -27c-88 0 -135 50 -135 141v325h-68c-8 0 -12 4 -12 12v13c0 8 4 12 12 12h68v124c0 8 4 12 12 12h17c8 0 12 -4 12 -12v-124h164c8 0 12 -4 12 -12v-13c0 -8 -4 -12 -12 -12h-164v-320c0 -73 32 -109 97 -109
c25 0 47 7 70 22c6 4 12 3 16 -4zM201 -53c19 0 33 -14 33 -37c0 -34 -17 -60 -43 -71c-5 -2 -8 -1 -10 3l-3 5c-2 4 -1 7 3 9c12 6 18 16 21 30c-20 0 -34 12 -34 31s14 30 33 30z" />
    <glyph glyph-name="uni0237" unicode="&#x237;" horiz-adv-x="196" 
d="M-9 -123h1c57 0 86 31 86 94v508c0 8 4 12 12 12h17c8 0 12 -4 12 -12v-508c0 -86 -42 -131 -123 -131h-5c-8 0 -12 4 -12 12v13c0 8 4 12 12 12z" />
    <glyph glyph-name="circumflex" unicode="&#x2c6;" horiz-adv-x="500" 
d="M251 679l-75 -105c-4 -5 -8 -7 -13 -7h-15c-9 0 -12 6 -7 13l86 125c4 6 8 8 14 8h18c6 0 10 -2 14 -8l87 -125c5 -7 2 -13 -7 -13h-15c-5 0 -9 2 -13 7z" />
    <glyph glyph-name="caron" unicode="&#x2c7;" horiz-adv-x="500" 
d="M360 700l-87 -125c-4 -6 -8 -8 -14 -8h-18c-6 0 -10 2 -14 8l-86 125c-5 7 -2 13 7 13h15c5 0 9 -2 13 -7l75 -106l74 106c4 5 8 7 13 7h15c9 0 12 -6 7 -13z" />
    <glyph glyph-name="breve" unicode="&#x2d8;" horiz-adv-x="500" 
d="M345 688h11c8 0 12 -4 10 -12c-12 -57 -54 -91 -116 -91s-104 34 -116 91c-2 8 2 12 10 12h11c7 0 10 -3 12 -10c9 -36 40 -58 83 -58s74 22 83 58c2 7 5 10 12 10z" />
    <glyph glyph-name="dotaccent" unicode="&#x2d9;" horiz-adv-x="500" 
d="M250 598c-19 0 -33 15 -33 33c0 19 14 33 33 33s33 -14 33 -33c0 -18 -14 -33 -33 -33z" />
    <glyph glyph-name="ring" unicode="&#x2da;" horiz-adv-x="500" 
d="M250 564c-43 0 -76 33 -76 76s33 76 76 76s76 -33 76 -76s-33 -76 -76 -76zM250 596c25 0 43 18 43 44s-18 44 -43 44s-43 -18 -43 -44s18 -44 43 -44z" />
    <glyph glyph-name="ogonek" unicode="&#x2db;" horiz-adv-x="500" 
d="M332 -121l6 -7c5 -5 4 -11 -1 -16c-17 -16 -39 -28 -70 -28c-46 0 -79 28 -79 72s27 91 90 127l21 -18c-57 -32 -77 -68 -77 -104c0 -26 20 -46 46 -46c21 0 35 8 47 20c6 6 12 6 17 0z" />
    <glyph glyph-name="tilde" unicode="&#x2dc;" horiz-adv-x="500" 
d="M139 584h-12c-7 0 -11 4 -10 11c8 52 37 83 79 83c23 0 40 -9 65 -33c19 -19 31 -26 45 -26c25 0 39 15 45 49c1 6 4 9 10 9h12c7 0 11 -4 10 -11c-8 -52 -37 -83 -79 -83c-23 0 -40 9 -65 33c-19 19 -31 26 -45 26c-25 0 -39 -15 -45 -49c-1 -6 -4 -9 -10 -9z" />
    <glyph glyph-name="hungarumlaut" unicode="&#x2dd;" horiz-adv-x="500" 
d="M278 698l-81 -124c-4 -5 -8 -7 -14 -7h-12c-8 0 -11 6 -7 13l74 125c4 6 8 8 14 8h18c10 0 14 -6 8 -15zM414 698l-81 -124c-4 -5 -8 -7 -14 -7h-13c-8 0 -11 6 -7 13l74 125c4 6 8 8 14 8h19c10 0 14 -6 8 -15z" />
    <glyph glyph-name="uni0394" unicode="&#x394;" horiz-adv-x="576" 
d="M535 0h-493c-9 0 -13 5 -10 14l231 639c2 7 7 11 14 11h23c7 0 12 -4 14 -11l231 -639c3 -9 -1 -14 -10 -14zM85 39h405l-201 570h-1z" />
    <glyph glyph-name="uni03A9" unicode="&#x3a9;" horiz-adv-x="582" 
d="M520 436v-176c0 -106 -41 -181 -115 -218v-1h103c8 0 12 -4 12 -12v-17c0 -8 -4 -12 -12 -12h-153c-8 0 -12 4 -12 12v22c0 7 3 11 10 13c83 30 124 101 124 215v164c0 143 -60 211 -186 211s-186 -68 -186 -211v-164c0 -114 42 -185 124 -215c7 -2 10 -6 10 -13v-22
c0 -8 -4 -12 -12 -12h-153c-8 0 -12 4 -12 12v17c0 8 4 12 12 12h103v1c-74 37 -115 112 -115 218v176c0 157 79 240 229 240s229 -83 229 -240z" />
    <glyph glyph-name="uni03BC" unicode="&#x3bc;" horiz-adv-x="501" 
d="M429 479v-309c0 -119 -59 -182 -171 -182c-66 0 -113 24 -138 71h-1v-207c0 -8 -4 -12 -12 -12h-17c-8 0 -12 4 -12 12v627c0 8 4 12 12 12h17c8 0 12 -4 12 -12v-299c0 -104 44 -155 134 -155c92 0 135 48 135 155v299c0 8 4 12 12 12h17c8 0 12 -4 12 -12z" />
    <glyph glyph-name="pi" unicode="&#x3c0;" horiz-adv-x="521" 
d="M140 454v-442c0 -8 -4 -12 -12 -12h-17c-8 0 -12 4 -12 12v442h-68c-8 0 -12 4 -12 12v13c0 8 4 12 12 12h459c8 0 12 -4 12 -12v-13c0 -8 -4 -12 -12 -12h-68v-442c0 -8 -4 -12 -12 -12h-17c-8 0 -12 4 -12 12v442h-241z" />
    <glyph glyph-name="uni1E02" unicode="&#x1e02;" horiz-adv-x="561" 
d="M385 340v-1c90 -18 132 -71 132 -164c0 -120 -68 -175 -219 -175h-198c-8 0 -12 4 -12 12v640c0 8 4 12 12 12h180c151 0 219 -53 219 -170c0 -83 -36 -134 -114 -154zM131 357h149c122 0 176 41 176 134s-54 134 -176 134h-149v-268zM131 39h167c122 0 176 43 176 139
c0 97 -54 140 -176 140h-167v-279zM275 765c-19 0 -33 15 -33 33c0 19 14 33 33 33s33 -14 33 -33c0 -18 -14 -33 -33 -33z" />
    <glyph glyph-name="uni1E03" unicode="&#x1e03;" horiz-adv-x="487" 
d="M255 503c115 0 175 -63 175 -186v-142c0 -122 -62 -187 -179 -187s-179 65 -179 187v513c0 8 4 12 12 12h17c8 0 12 -4 12 -12v-259h1c25 49 73 74 141 74zM389 184v124c0 108 -43 158 -138 158c-92 0 -138 -53 -138 -158v-124c0 -109 43 -159 138 -159s138 50 138 159z
M93 796c-19 0 -33 15 -33 33c0 19 14 33 33 33s33 -14 33 -33c0 -18 -14 -33 -33 -33z" />
    <glyph glyph-name="uni1E0A" unicode="&#x1e0a;" horiz-adv-x="590" 
d="M100 664h198c151 0 229 -77 229 -226v-212c0 -149 -78 -226 -229 -226h-198c-8 0 -12 4 -12 12v640c0 8 4 12 12 12zM484 237v190c0 134 -60 198 -187 198h-166v-586h166c127 0 187 64 187 198zM281 765c-19 0 -33 15 -33 33c0 19 14 33 33 33s33 -14 33 -33
c0 -18 -14 -33 -33 -33z" />
    <glyph glyph-name="uni1E0B" unicode="&#x1e0b;" horiz-adv-x="487" 
d="M415 688v-513c0 -122 -62 -187 -179 -187s-179 65 -179 187v142c0 123 60 186 175 186c67 0 115 -24 141 -73h1v258c0 8 4 12 12 12h17c8 0 12 -4 12 -12zM374 184v124c0 105 -45 158 -138 158c-95 0 -138 -50 -138 -158v-124c0 -109 43 -159 138 -159s138 50 138 159z
M394 796c-19 0 -33 15 -33 33c0 19 14 33 33 33s33 -14 33 -33c0 -18 -14 -33 -33 -33z" />
    <glyph glyph-name="uni1E1E" unicode="&#x1e1e;" horiz-adv-x="500" 
d="M131 352h293c8 0 12 -4 12 -12v-15c0 -8 -4 -12 -12 -12h-293v-301c0 -8 -4 -12 -12 -12h-19c-8 0 -12 4 -12 12v640c0 8 4 12 12 12h368c8 0 12 -4 12 -12v-15c0 -8 -4 -12 -12 -12h-337v-273zM271 765c-19 0 -33 15 -33 33c0 19 14 33 33 33s33 -14 33 -33
c0 -18 -14 -33 -33 -33z" />
    <glyph glyph-name="uni1E1F" unicode="&#x1e1f;" horiz-adv-x="316" 
d="M246 675c-71 0 -106 -43 -106 -128v-56h164c8 0 12 -4 12 -12v-13c0 -8 -4 -12 -12 -12h-164v-442c0 -8 -4 -12 -12 -12h-17c-8 0 -12 4 -12 12v442h-68c-8 0 -12 4 -12 12v13c0 8 4 12 12 12h68v61c0 103 51 160 145 160c38 0 68 -7 96 -24c7 -4 8 -10 4 -16l-7 -12
c-4 -7 -10 -7 -15 -4c-22 14 -46 19 -76 19zM202 796c-19 0 -33 15 -33 33c0 19 14 33 33 33s33 -14 33 -33c0 -18 -14 -33 -33 -33z" />
    <glyph glyph-name="uni1E40" unicode="&#x1e40;" horiz-adv-x="808" 
d="M708 0h-19c-8 0 -12 4 -12 12v592h-1l-251 -595c-3 -6 -7 -9 -14 -9h-15c-7 0 -11 3 -14 9l-251 595h-1v-592c0 -8 -4 -12 -12 -12h-18c-8 0 -12 4 -12 12v640c0 8 4 12 12 12h42c7 0 11 -3 14 -9l248 -592l247 592c3 6 7 9 14 9h43c8 0 12 -4 12 -12v-640
c0 -8 -4 -12 -12 -12zM404 765c-19 0 -33 15 -33 33c0 19 14 33 33 33s33 -14 33 -33c0 -18 -14 -33 -33 -33z" />
    <glyph glyph-name="uni1E41" unicode="&#x1e41;" horiz-adv-x="763" 
d="M526 503c108 0 165 -62 165 -180v-311c0 -8 -4 -12 -12 -12h-17c-8 0 -12 4 -12 12v302c0 104 -39 152 -126 152c-84 0 -122 -48 -122 -152v-302c0 -8 -4 -12 -12 -12h-17c-8 0 -12 4 -12 12v302c0 104 -40 152 -126 152c-83 0 -122 -48 -122 -152v-302
c0 -8 -4 -12 -12 -12h-17c-8 0 -12 4 -12 12v311c0 118 56 180 162 180c75 0 124 -28 147 -86h1c21 58 68 86 144 86zM381 598c-19 0 -33 15 -33 33c0 19 14 33 33 33s33 -14 33 -33c0 -18 -14 -33 -33 -33z" />
    <glyph glyph-name="uni1E56" unicode="&#x1e56;" horiz-adv-x="538" 
d="M100 664h184c155 0 226 -60 226 -193c0 -132 -71 -192 -226 -192h-153v-267c0 -8 -4 -12 -12 -12h-19c-8 0 -12 4 -12 12v640c0 8 4 12 12 12zM131 318h153c126 0 183 49 183 153c0 106 -57 154 -183 154h-153v-307zM279 765c-19 0 -33 15 -33 33c0 19 14 33 33 33
s33 -14 33 -33c0 -18 -14 -33 -33 -33z" />
    <glyph glyph-name="uni1E57" unicode="&#x1e57;" horiz-adv-x="487" 
d="M251 503c117 0 179 -65 179 -187v-142c0 -122 -60 -186 -175 -186c-68 0 -116 25 -141 74h-1v-210c0 -8 -4 -12 -12 -12h-17c-8 0 -12 4 -12 12v464c0 122 62 187 179 187zM389 184v123c0 109 -43 159 -138 159s-138 -50 -138 -159v-123c0 -107 46 -159 138 -159
c95 0 138 50 138 159zM251 598c-19 0 -33 15 -33 33c0 19 14 33 33 33s33 -14 33 -33c0 -18 -14 -33 -33 -33z" />
    <glyph glyph-name="uni1E60" unicode="&#x1e60;" horiz-adv-x="505" 
d="M256 676c89 0 155 -30 196 -88c5 -8 4 -13 -2 -18l-13 -10c-6 -4 -13 -3 -18 4c-33 48 -88 73 -162 73c-99 0 -165 -57 -165 -144c0 -80 45 -120 178 -142c152 -25 204 -75 204 -180c0 -110 -82 -183 -206 -183c-100 0 -178 35 -227 103c-4 6 -3 11 3 16l12 11
c6 5 12 4 17 -3c42 -58 108 -88 194 -88c99 0 165 57 165 144c0 80 -43 118 -176 139c-153 24 -206 77 -206 183c0 110 82 183 206 183zM256 765c-19 0 -33 15 -33 33c0 19 14 33 33 33s33 -14 33 -33c0 -18 -14 -33 -33 -33z" />
    <glyph glyph-name="uni1E61" unicode="&#x1e61;" horiz-adv-x="411" 
d="M379 129c0 -86 -63 -141 -163 -141c-78 0 -135 21 -177 65c-5 5 -5 11 0 17l9 10c5 6 11 6 17 0c35 -36 85 -55 148 -55c79 0 125 39 125 105c0 60 -34 89 -136 102c-116 15 -156 52 -156 130c0 86 65 141 169 141c55 0 107 -17 143 -47c6 -5 5 -11 1 -17l-7 -10
c-5 -7 -12 -7 -19 -1c-28 24 -70 38 -115 38c-83 0 -131 -38 -131 -104c0 -55 31 -79 129 -93c78 -11 163 -26 163 -140zM206 598c-19 0 -33 15 -33 33c0 19 14 33 33 33s33 -14 33 -33c0 -18 -14 -33 -33 -33z" />
    <glyph glyph-name="uni1E6A" unicode="&#x1e6a;" horiz-adv-x="477" 
d="M260 625v-613c0 -8 -4 -12 -12 -12h-19c-8 0 -12 4 -12 12v613h-185c-8 0 -12 4 -12 12v15c0 8 4 12 12 12h413c8 0 12 -4 12 -12v-15c0 -8 -4 -12 -12 -12h-185zM238 765c-19 0 -33 15 -33 33c0 19 14 33 33 33s33 -14 33 -33c0 -18 -14 -33 -33 -33z" />
    <glyph glyph-name="uni1E6B" unicode="&#x1e6b;" horiz-adv-x="349" 
d="M323 43l6 -11c3 -7 2 -12 -4 -17c-26 -18 -58 -27 -91 -27c-88 0 -135 50 -135 141v325h-68c-8 0 -12 4 -12 12v13c0 8 4 12 12 12h68v124c0 8 4 12 12 12h17c8 0 12 -4 12 -12v-124h164c8 0 12 -4 12 -12v-13c0 -8 -4 -12 -12 -12h-164v-320c0 -73 32 -109 97 -109
c25 0 47 7 70 22c6 4 12 3 16 -4zM119 728c-19 0 -33 15 -33 33c0 19 14 33 33 33s33 -14 33 -33c0 -18 -14 -33 -33 -33z" />
    <glyph glyph-name="Wgrave" unicode="&#x1e80;" horiz-adv-x="848" 
d="M621 0h-23c-8 0 -13 4 -15 11l-158 568h-1l-159 -568c-2 -7 -7 -11 -15 -11h-23c-8 0 -13 4 -15 11l-179 640c-2 8 1 13 10 13h21c8 0 12 -3 14 -10l161 -584h1l162 583c2 7 7 11 15 11h15c8 0 13 -4 15 -11l163 -583h1l160 584c2 7 6 10 14 10h20c9 0 12 -5 10 -13
l-179 -640c-2 -7 -7 -11 -15 -11zM439 734h-16c-5 0 -9 2 -13 7l-88 124c-6 8 -2 15 8 15h20c6 0 10 -2 14 -8l82 -125c5 -7 2 -13 -7 -13z" />
    <glyph glyph-name="wgrave" unicode="&#x1e81;" horiz-adv-x="676" 
d="M498 0h-23c-7 0 -12 4 -14 11l-122 402h-1l-123 -402c-2 -7 -7 -11 -14 -11h-23c-7 0 -12 4 -14 11l-139 466c-3 9 1 14 10 14h20c8 0 12 -3 14 -10l121 -415h1l126 414c2 7 7 11 14 11h16c7 0 12 -4 14 -11l126 -414h1l121 415c2 7 6 10 13 10h19c9 0 13 -5 10 -14
l-139 -466c-2 -7 -7 -11 -14 -11zM353 567h-16c-5 0 -9 2 -13 7l-88 124c-6 8 -2 15 8 15h20c6 0 10 -2 14 -8l82 -125c5 -7 2 -13 -7 -13z" />
    <glyph glyph-name="Wacute" unicode="&#x1e82;" horiz-adv-x="848" 
d="M621 0h-23c-8 0 -13 4 -15 11l-158 568h-1l-159 -568c-2 -7 -7 -11 -15 -11h-23c-8 0 -13 4 -15 11l-179 640c-2 8 1 13 10 13h21c8 0 12 -3 14 -10l161 -584h1l162 583c2 7 7 11 15 11h15c8 0 13 -4 15 -11l163 -583h1l160 584c2 7 6 10 14 10h20c9 0 12 -5 10 -13
l-179 -640c-2 -7 -7 -11 -15 -11zM526 865l-88 -124c-4 -5 -8 -7 -13 -7h-16c-9 0 -12 6 -7 13l82 125c4 6 8 8 14 8h20c10 0 14 -7 8 -15z" />
    <glyph glyph-name="wacute" unicode="&#x1e83;" horiz-adv-x="676" 
d="M498 0h-23c-7 0 -12 4 -14 11l-122 402h-1l-123 -402c-2 -7 -7 -11 -14 -11h-23c-7 0 -12 4 -14 11l-139 466c-3 9 1 14 10 14h20c8 0 12 -3 14 -10l121 -415h1l126 414c2 7 7 11 14 11h16c7 0 12 -4 14 -11l126 -414h1l121 415c2 7 6 10 13 10h19c9 0 13 -5 10 -14
l-139 -466c-2 -7 -7 -11 -14 -11zM440 698l-88 -124c-4 -5 -8 -7 -13 -7h-16c-9 0 -12 6 -7 13l82 125c4 6 8 8 14 8h20c10 0 14 -7 8 -15z" />
    <glyph glyph-name="Wdieresis" unicode="&#x1e84;" horiz-adv-x="848" 
d="M621 0h-23c-8 0 -13 4 -15 11l-158 568h-1l-159 -568c-2 -7 -7 -11 -15 -11h-23c-8 0 -13 4 -15 11l-179 640c-2 8 1 13 10 13h21c8 0 12 -3 14 -10l161 -584h1l162 583c2 7 7 11 15 11h15c8 0 13 -4 15 -11l163 -583h1l160 584c2 7 6 10 14 10h20c9 0 12 -5 10 -13
l-179 -640c-2 -7 -7 -11 -15 -11zM347 766c-19 0 -33 14 -33 32c0 19 14 33 33 33c18 0 32 -14 32 -33c0 -18 -14 -32 -32 -32zM501 766c-18 0 -32 14 -32 32c0 19 14 33 32 33c19 0 33 -14 33 -33c0 -18 -14 -32 -33 -32z" />
    <glyph glyph-name="wdieresis" unicode="&#x1e85;" horiz-adv-x="676" 
d="M498 0h-23c-7 0 -12 4 -14 11l-122 402h-1l-123 -402c-2 -7 -7 -11 -14 -11h-23c-7 0 -12 4 -14 11l-139 466c-3 9 1 14 10 14h20c8 0 12 -3 14 -10l121 -415h1l126 414c2 7 7 11 14 11h16c7 0 12 -4 14 -11l126 -414h1l121 415c2 7 6 10 13 10h19c9 0 13 -5 10 -14
l-139 -466c-2 -7 -7 -11 -14 -11zM261 599c-19 0 -33 14 -33 32c0 19 14 33 33 33c18 0 32 -14 32 -33c0 -18 -14 -32 -32 -32zM415 599c-18 0 -32 14 -32 32c0 19 14 33 32 33c19 0 33 -14 33 -33c0 -18 -14 -32 -33 -32z" />
    <glyph glyph-name="Ygrave" unicode="&#x1ef2;" horiz-adv-x="509" 
d="M264 0h-19c-8 0 -12 4 -12 12v285l-219 353c-5 8 -2 14 8 14h25c6 0 11 -2 14 -8l195 -317l193 317c4 6 8 8 14 8h24c10 0 13 -6 8 -14l-219 -353v-285c0 -8 -4 -12 -12 -12zM269 734h-16c-5 0 -9 2 -13 7l-88 124c-6 8 -2 15 8 15h20c6 0 10 -2 14 -8l82 -125
c5 -7 2 -13 -7 -13z" />
    <glyph glyph-name="ygrave" unicode="&#x1ef3;" horiz-adv-x="501" 
d="M424 479v-481c0 -105 -68 -170 -177 -170c-66 0 -118 19 -160 59c-5 5 -5 11 0 17l9 11c5 6 11 6 17 0c35 -32 76 -50 132 -50c90 0 138 51 138 142v65h-1c-25 -47 -73 -71 -139 -71c-112 0 -171 63 -171 182v296c0 8 4 12 12 12h17c8 0 12 -4 12 -12v-286
c0 -107 43 -155 135 -155c91 0 135 51 135 155v286c0 8 4 12 12 12h17c8 0 12 -4 12 -12zM263 567h-16c-5 0 -9 2 -13 7l-88 124c-6 8 -2 15 8 15h20c6 0 10 -2 14 -8l82 -125c5 -7 2 -13 -7 -13z" />
    <glyph glyph-name="uni2007" unicode="&#x2007;" horiz-adv-x="528" 
 />
    <glyph glyph-name="figuredash" unicode="&#x2012;" horiz-adv-x="528" 
d="M486 295h-444c-8 0 -12 4 -12 12v10c0 8 4 12 12 12h444c8 0 12 -4 12 -12v-10c0 -8 -4 -12 -12 -12z" />
    <glyph glyph-name="endash" unicode="&#x2013;" horiz-adv-x="500" 
d="M458 254h-416c-8 0 -12 4 -12 12v10c0 8 4 12 12 12h416c8 0 12 -4 12 -12v-10c0 -8 -4 -12 -12 -12z" />
    <glyph glyph-name="emdash" unicode="&#x2014;" horiz-adv-x="900" 
d="M858 254h-816c-8 0 -12 4 -12 12v10c0 8 4 12 12 12h816c8 0 12 -4 12 -12v-10c0 -8 -4 -12 -12 -12z" />
    <glyph glyph-name="quoteleft" unicode="&#x2018;" horiz-adv-x="210" 
d="M105 526c-20 0 -34 14 -34 39c0 42 19 81 53 108c4 3 8 3 11 -1l4 -5c3 -4 3 -7 -1 -11c-19 -17 -29 -38 -32 -66c20 0 34 -12 34 -32s-15 -32 -35 -32z" />
    <glyph glyph-name="quoteright" unicode="&#x2019;" horiz-adv-x="210" 
d="M105 676c20 0 34 -14 34 -39c0 -42 -19 -81 -53 -108c-4 -3 -8 -3 -11 1l-4 5c-3 4 -3 7 1 11c19 17 29 38 32 66c-20 0 -34 12 -34 32s15 32 35 32z" />
    <glyph glyph-name="quotesinglbase" unicode="&#x201a;" horiz-adv-x="210" 
d="M105 57c20 0 34 -14 34 -39c0 -42 -19 -81 -53 -108c-4 -3 -8 -3 -11 1l-4 5c-3 4 -3 7 1 11c19 17 29 38 32 66c-20 0 -34 12 -34 32s15 32 35 32z" />
    <glyph glyph-name="quotedblleft" unicode="&#x201c;" horiz-adv-x="364" 
d="M105 526c-20 0 -34 14 -34 39c0 42 19 81 53 108c4 3 8 3 11 -1l4 -5c3 -4 3 -7 -1 -11c-19 -17 -29 -38 -32 -66c20 0 34 -12 34 -32s-15 -32 -35 -32zM260 526c-20 0 -34 14 -34 39c0 42 19 81 53 108c4 3 8 3 11 -1l4 -5c3 -4 3 -7 -1 -11c-19 -17 -29 -38 -32 -66
c20 0 34 -12 34 -32s-15 -32 -35 -32z" />
    <glyph glyph-name="quotedblright" unicode="&#x201d;" horiz-adv-x="364" 
d="M105 676c20 0 34 -14 34 -39c0 -42 -19 -81 -53 -108c-4 -3 -8 -3 -11 1l-4 5c-3 4 -3 7 1 11c19 17 29 38 32 66c-20 0 -34 12 -34 32s15 32 35 32zM260 676c20 0 34 -14 34 -39c0 -42 -19 -81 -53 -108c-4 -3 -8 -3 -11 1l-4 5c-3 4 -3 7 1 11c19 17 29 38 32 66
c-20 0 -34 12 -34 32s15 32 35 32z" />
    <glyph glyph-name="quotedblbase" unicode="&#x201e;" horiz-adv-x="364" 
d="M260 57c20 0 34 -14 34 -39c0 -42 -19 -81 -53 -108c-4 -3 -8 -3 -11 1l-4 5c-3 4 -3 7 1 11c19 17 29 38 32 66c-20 0 -34 12 -34 32s15 32 35 32zM105 57c20 0 34 -14 34 -39c0 -42 -19 -81 -53 -108c-4 -3 -8 -3 -11 1l-4 5c-3 4 -3 7 1 11c19 17 29 38 32 66
c-20 0 -34 12 -34 32s15 32 35 32z" />
    <glyph glyph-name="dagger" unicode="&#x2020;" horiz-adv-x="432" 
d="M234 500v-401c0 -7 -4 -11 -11 -11h-14c-7 0 -11 4 -11 11v401h-143c-7 0 -11 4 -11 11v12c0 7 4 11 11 11h143v155c0 7 4 11 11 11h14c7 0 11 -4 11 -11v-155h143c7 0 11 -4 11 -11v-12c0 -7 -4 -11 -11 -11h-143z" />
    <glyph glyph-name="daggerdbl" unicode="&#x2021;" horiz-adv-x="433" 
d="M234 288h144c7 0 11 -4 11 -11v-12c0 -7 -4 -11 -11 -11h-144v-155c0 -7 -4 -11 -11 -11h-14c-7 0 -11 4 -11 11v155h-143c-7 0 -11 4 -11 11v12c0 7 4 11 11 11h143v212h-143c-7 0 -11 4 -11 11v12c0 7 4 11 11 11h143v155c0 7 4 11 11 11h14c7 0 11 -4 11 -11v-155h144
c7 0 11 -4 11 -11v-12c0 -7 -4 -11 -11 -11h-144v-212z" />
    <glyph glyph-name="bullet" unicode="&#x2022;" horiz-adv-x="500" 
d="M250 180c-62 0 -111 49 -111 111s49 111 111 111s111 -49 111 -111s-49 -111 -111 -111z" />
    <glyph glyph-name="ellipsis" unicode="&#x2026;" horiz-adv-x="900" 
d="M728 -12c-20 0 -35 15 -35 35s15 34 35 34s34 -14 34 -34s-14 -35 -34 -35zM450 -12c-20 0 -35 15 -35 35s15 34 35 34s34 -14 34 -34s-14 -35 -34 -35zM173 -12c-20 0 -35 15 -35 35s15 34 35 34s34 -14 34 -34s-14 -35 -34 -35z" />
    <glyph glyph-name="perthousand" unicode="&#x2030;" horiz-adv-x="902" 
d="M637 110v76c0 79 41 122 116 122c74 0 115 -43 115 -122v-76c0 -80 -41 -122 -115 -122c-75 0 -116 42 -116 122zM673 183v-69c0 -65 23 -93 80 -93c56 0 79 28 79 93v69c0 64 -23 92 -79 92c-57 0 -80 -28 -80 -92zM34 438v76c0 79 41 122 116 122
c74 0 115 -43 115 -122v-76c0 -80 -41 -122 -115 -122c-75 0 -116 42 -116 122zM93 13l396 604c3 5 8 7 14 7h16c9 0 12 -6 7 -13l-395 -604c-3 -5 -8 -7 -14 -7h-17c-9 0 -12 6 -7 13zM70 511v-69c0 -65 23 -93 80 -93c56 0 79 28 79 93v69c0 64 -23 92 -79 92
c-57 0 -80 -28 -80 -92zM355 110v76c0 79 41 122 116 122c74 0 115 -43 115 -122v-76c0 -80 -41 -122 -115 -122c-75 0 -116 42 -116 122zM391 183v-69c0 -65 23 -93 80 -93c56 0 79 28 79 93v69c0 64 -23 92 -79 92c-57 0 -80 -28 -80 -92z" />
    <glyph glyph-name="guilsinglleft" unicode="&#x2039;" horiz-adv-x="227" 
d="M69 246l111 -173c5 -8 2 -14 -8 -14h-14c-6 0 -11 3 -14 8l-110 171c-3 5 -3 11 0 16l110 170c3 5 8 8 14 8h14c10 0 13 -6 8 -14z" />
    <glyph glyph-name="guilsinglright" unicode="&#x203a;" horiz-adv-x="227" 
d="M158 245l-111 173c-5 8 -2 14 8 14h14c6 0 11 -3 14 -8l110 -171c3 -5 3 -11 0 -16l-110 -170c-3 -5 -8 -8 -14 -8h-14c-10 0 -13 6 -8 14z" />
    <glyph glyph-name="fraction" unicode="&#x2044;" horiz-adv-x="130" 
d="M-151 13l396 604c3 5 8 7 14 7h15c9 0 12 -6 7 -13l-396 -604c-3 -5 -8 -7 -14 -7h-15c-9 0 -12 6 -7 13z" />
    <glyph glyph-name="zerosuperior" unicode="&#x2070;" 
d="M39 490v133c0 87 44 133 126 133s126 -46 126 -133v-133c0 -88 -44 -134 -126 -134s-126 46 -126 134zM74 619v-125c0 -73 29 -106 91 -106s91 33 91 106v125c0 72 -29 105 -91 105s-91 -33 -91 -105z" />
    <glyph glyph-name="foursuperior" unicode="&#x2074;" 
d="M264 455v-81c0 -7 -4 -11 -11 -11h-13c-7 0 -11 4 -11 11v81h-186c-7 0 -11 4 -11 11v15c0 5 1 9 5 14l186 247c4 5 7 7 13 7h17c7 0 11 -4 11 -11v-251h36c7 0 11 -4 11 -11v-10c0 -7 -4 -11 -11 -11h-36zM71 487h158v209h-1z" />
    <glyph glyph-name="fivesuperior" unicode="&#x2075;" 
d="M175 608c75 0 124 -49 124 -125c0 -78 -51 -127 -132 -127c-53 0 -95 18 -123 53c-4 5 -3 10 2 15l7 7c5 5 11 5 16 -1c24 -28 55 -42 96 -42c63 0 99 35 99 95c0 57 -37 93 -95 93c-35 0 -66 -12 -86 -32c-4 -4 -9 -5 -15 -4l-5 1c-7 1 -9 5 -9 12l11 185
c0 7 5 11 12 11h189c7 0 11 -4 11 -11v-10c0 -7 -4 -11 -11 -11h-170l-8 -136h1c23 17 53 27 86 27z" />
    <glyph glyph-name="sixsuperior" unicode="&#x2076;" 
d="M179 609c72 0 119 -50 119 -126c0 -77 -51 -127 -126 -127c-76 0 -126 50 -126 127v144c0 81 47 129 127 129c43 0 79 -14 104 -41c5 -6 5 -12 0 -17l-8 -8c-5 -5 -10 -4 -15 1c-19 21 -46 33 -79 33c-62 0 -94 -35 -94 -102v-58h1c20 29 54 45 97 45zM172 388
c55 0 91 37 91 95c0 57 -36 94 -91 94s-91 -38 -91 -94c0 -58 35 -95 91 -95z" />
    <glyph glyph-name="sevensuperior" unicode="&#x2077;" 
d="M307 738v-16c0 -5 -1 -9 -3 -13l-168 -338c-3 -6 -7 -8 -13 -8h-15c-9 0 -12 5 -8 13l171 341h-195v-57c0 -7 -4 -11 -11 -11h-11c-7 0 -11 4 -11 11v78c0 7 4 11 11 11h242c7 0 11 -4 11 -11z" />
    <glyph glyph-name="eightsuperior" unicode="&#x2078;" 
d="M227 567v-1c46 -15 73 -49 73 -97c0 -72 -51 -113 -135 -113s-135 41 -135 113c0 48 27 82 73 96v1c-39 14 -62 45 -62 86c0 65 46 104 124 104s124 -39 124 -104c0 -41 -23 -71 -62 -85zM76 651c0 -45 34 -70 89 -70s89 25 89 70c0 47 -33 73 -89 73s-89 -26 -89 -73z
M165 388c63 0 100 30 100 82c0 50 -37 79 -100 79c-62 0 -100 -29 -100 -79c0 -52 37 -82 100 -82z" />
    <glyph glyph-name="ninesuperior" unicode="&#x2079;" 
d="M158 756c76 0 126 -50 126 -127v-144c0 -81 -47 -129 -127 -129c-43 0 -79 14 -104 42c-5 5 -5 11 0 16l8 8c5 5 10 5 15 -1c19 -21 46 -33 79 -33c62 0 94 35 94 102v58h-1c-19 -29 -54 -45 -97 -45c-72 0 -119 50 -119 126c0 77 51 127 126 127zM158 535
c55 0 91 38 91 94c0 58 -35 95 -91 95c-55 0 -91 -37 -91 -95c0 -57 36 -94 91 -94z" />
    <glyph glyph-name="zeroinferior" unicode="&#x2080;" 
d="M39 -33v133c0 87 44 133 126 133s126 -46 126 -133v-133c0 -88 -44 -134 -126 -134s-126 46 -126 134zM74 96v-125c0 -73 29 -106 91 -106s91 33 91 106v125c0 72 -29 105 -91 105s-91 -33 -91 -105z" />
    <glyph glyph-name="oneinferior" unicode="&#x2081;" 
d="M240 215v-364c0 -7 -4 -11 -11 -11h-13c-7 0 -11 4 -11 11v328l-91 -68c-6 -5 -11 -4 -15 2l-6 8c-4 6 -3 11 3 16l111 84c5 4 9 5 14 5h8c7 0 11 -4 11 -11z" />
    <glyph glyph-name="twoinferior" unicode="&#x2082;" 
d="M289 -139v-10c0 -7 -4 -11 -11 -11h-219c-7 0 -11 4 -11 11v11c0 6 2 10 6 14l150 153c37 37 49 62 49 96c0 49 -31 76 -85 76c-41 0 -70 -18 -90 -52c-3 -6 -8 -8 -15 -4l-9 6c-6 4 -7 9 -4 15c25 43 68 67 119 67c75 0 119 -40 119 -108c0 -43 -13 -72 -57 -117
l-134 -136h181c7 0 11 -4 11 -11z" />
    <glyph glyph-name="threeinferior" unicode="&#x2083;" 
d="M230 44v-1c45 -13 72 -48 72 -97c0 -72 -48 -113 -129 -113c-56 0 -97 18 -126 54c-4 5 -4 10 1 15l8 8c6 6 11 4 16 -2c22 -28 55 -43 99 -43c61 0 96 30 96 82s-35 79 -103 79h-29c-7 0 -11 4 -11 11v10c0 7 4 11 11 11h26c64 0 97 24 97 70c0 47 -33 73 -90 73
c-41 0 -71 -15 -92 -42c-5 -6 -10 -7 -16 -1l-7 6c-5 5 -6 10 -2 15c28 35 71 54 119 54c76 0 123 -39 123 -104c0 -43 -23 -72 -63 -85z" />
    <glyph glyph-name="fourinferior" unicode="&#x2084;" 
d="M264 -68v-81c0 -7 -4 -11 -11 -11h-13c-7 0 -11 4 -11 11v81h-186c-7 0 -11 4 -11 11v15c0 5 1 9 5 14l186 247c4 5 7 7 13 7h17c7 0 11 -4 11 -11v-251h36c7 0 11 -4 11 -11v-10c0 -7 -4 -11 -11 -11h-36zM71 -36h158v209h-1z" />
    <glyph glyph-name="fiveinferior" unicode="&#x2085;" 
d="M175 85c75 0 124 -49 124 -125c0 -78 -51 -127 -132 -127c-53 0 -95 18 -123 53c-4 5 -3 10 2 15l7 7c5 5 11 5 16 -1c24 -28 55 -42 96 -42c63 0 99 35 99 95c0 57 -37 93 -95 93c-35 0 -66 -12 -86 -32c-4 -4 -9 -5 -15 -4l-5 1c-7 1 -9 5 -9 12l11 185c0 7 5 11 12 11
h189c7 0 11 -4 11 -11v-10c0 -7 -4 -11 -11 -11h-170l-8 -136h1c23 17 53 27 86 27z" />
    <glyph glyph-name="sixinferior" unicode="&#x2086;" 
d="M179 86c72 0 119 -50 119 -126c0 -77 -51 -127 -126 -127c-76 0 -126 50 -126 127v144c0 81 47 129 127 129c43 0 79 -14 104 -41c5 -6 5 -12 0 -17l-8 -8c-5 -5 -10 -4 -15 1c-19 21 -46 33 -79 33c-62 0 -94 -35 -94 -102v-58h1c20 29 54 45 97 45zM172 -135
c55 0 91 37 91 95c0 57 -36 94 -91 94s-91 -38 -91 -94c0 -58 35 -95 91 -95z" />
    <glyph glyph-name="seveninferior" unicode="&#x2087;" 
d="M307 215v-16c0 -5 -1 -9 -3 -13l-168 -338c-3 -6 -7 -8 -13 -8h-15c-9 0 -12 5 -8 13l171 341h-195v-57c0 -7 -4 -11 -11 -11h-11c-7 0 -11 4 -11 11v78c0 7 4 11 11 11h242c7 0 11 -4 11 -11z" />
    <glyph glyph-name="eightinferior" unicode="&#x2088;" 
d="M227 44v-1c46 -15 73 -49 73 -97c0 -72 -51 -113 -135 -113s-135 41 -135 113c0 48 27 82 73 96v1c-39 14 -62 45 -62 86c0 65 46 104 124 104s124 -39 124 -104c0 -41 -23 -71 -62 -85zM76 128c0 -45 34 -70 89 -70s89 25 89 70c0 47 -33 73 -89 73s-89 -26 -89 -73z
M165 -135c63 0 100 30 100 82c0 50 -37 79 -100 79c-62 0 -100 -29 -100 -79c0 -52 37 -82 100 -82z" />
    <glyph glyph-name="nineinferior" unicode="&#x2089;" 
d="M158 233c76 0 126 -50 126 -127v-144c0 -81 -47 -129 -127 -129c-43 0 -79 14 -104 42c-5 5 -5 11 0 16l8 8c5 5 10 5 15 -1c19 -21 46 -33 79 -33c62 0 94 35 94 102v58h-1c-19 -29 -54 -45 -97 -45c-72 0 -119 50 -119 126c0 77 51 127 126 127zM158 12
c55 0 91 38 91 94c0 58 -35 95 -91 95c-55 0 -91 -37 -91 -95c0 -57 36 -94 91 -94z" />
    <glyph glyph-name="Euro" unicode="&#x20ac;" horiz-adv-x="528" 
d="M292 26c71 0 124 29 154 87c4 7 10 9 17 5l15 -8c6 -3 7 -9 4 -16c-37 -69 -102 -106 -191 -106c-131 0 -203 76 -203 216v21h-40c-8 0 -12 4 -12 12v13c0 8 4 12 12 12h40v108h-40c-8 0 -12 4 -12 12v13c0 8 4 12 12 12h40v13c0 140 72 216 203 216
c89 0 155 -37 191 -106c3 -7 2 -13 -4 -16l-15 -8c-7 -4 -13 -2 -17 6c-30 57 -83 86 -154 86c-108 0 -162 -61 -162 -186v-5h242c8 0 12 -5 10 -13l-3 -13c-1 -7 -6 -11 -13 -11h-236v-108h213c8 0 12 -5 10 -13l-3 -13c-1 -7 -6 -11 -13 -11h-207v-13
c0 -125 54 -186 162 -186z" />
    <glyph glyph-name="uni20B9" unicode="&#x20b9;" horiz-adv-x="528" 
d="M483 425h-42c-7 -111 -81 -162 -238 -162h-73v-1l296 -247c9 -7 6 -15 -5 -15h-29c-6 0 -10 2 -14 5l-309 261c-5 4 -6 9 -5 15l2 10c2 7 6 10 14 10h123c130 0 188 38 194 124h-327c-7 0 -11 4 -10 12l3 14c1 7 5 10 12 10h322c-6 87 -64 125 -194 125h-133
c-8 0 -12 5 -10 13l3 14c1 7 6 11 13 11h411c8 0 12 -5 10 -12l-4 -14c-1 -7 -5 -10 -12 -10h-116v-1c47 -25 71 -67 75 -126h49c7 0 11 -5 9 -12l-3 -14c-1 -7 -5 -10 -12 -10z" />
    <glyph glyph-name="uni2113" unicode="&#x2113;" horiz-adv-x="405" 
d="M343 54l9 -12c4 -6 2 -12 -3 -17c-28 -26 -62 -37 -101 -37c-85 0 -134 55 -134 149v24c-16 -12 -32 -22 -49 -33c-7 -4 -13 -3 -17 4l-7 13c-4 6 -2 12 4 16c24 15 48 30 69 47v294c0 86 42 134 118 134c70 0 110 -47 110 -129c0 -106 -66 -217 -186 -314v-50
c0 -78 32 -117 94 -117c29 0 51 9 75 30c7 6 13 5 18 -2zM156 243h1c93 81 144 174 144 264c0 60 -23 91 -69 91c-50 0 -76 -34 -76 -100v-255z" />
    <glyph glyph-name="uni2117" unicode="&#x2117;" horiz-adv-x="776" 
d="M388 676c196 0 344 -148 344 -344s-148 -344 -344 -344s-344 148 -344 344s148 344 344 344zM388 19c176 0 310 135 310 313s-134 313 -310 313s-310 -135 -310 -313s134 -313 310 -313zM301 516h100c87 0 127 -34 127 -108c0 -76 -40 -110 -127 -110h-76v-139
c0 -7 -4 -11 -11 -11h-13c-7 0 -11 4 -11 11v346c0 7 4 11 11 11zM325 329h76c63 0 92 24 92 78s-29 78 -92 78h-76v-156z" />
    <glyph glyph-name="trademark" unicode="&#x2122;" horiz-adv-x="758" 
d="M263 653v-9c0 -7 -4 -11 -11 -11h-96v-312c0 -7 -4 -11 -11 -11h-13c-7 0 -11 4 -11 11v312h-95c-7 0 -11 4 -11 11v9c0 7 4 11 11 11h226c7 0 11 -4 11 -11zM515 359l128 292c4 10 9 13 21 13h23c7 0 11 -4 11 -11v-332c0 -7 -4 -11 -11 -11h-13c-7 0 -11 4 -11 11v297
h-1l-130 -300c-2 -5 -7 -8 -13 -8h-10c-6 0 -11 3 -13 8l-129 298h-1v-295c0 -7 -4 -11 -11 -11h-11c-7 0 -11 4 -11 11v332c0 7 4 11 11 11h22c12 0 17 -3 21 -13z" />
    <glyph glyph-name="uni2126" unicode="&#x2126;" horiz-adv-x="576" 
d="M517 436v-176c0 -106 -41 -181 -115 -218v-1h103c8 0 12 -4 12 -12v-17c0 -8 -4 -12 -12 -12h-153c-8 0 -12 4 -12 12v22c0 7 3 11 10 13c83 30 124 101 124 215v164c0 143 -60 211 -186 211s-186 -68 -186 -211v-164c0 -114 42 -185 124 -215c7 -2 10 -6 10 -13v-22
c0 -8 -4 -12 -12 -12h-153c-8 0 -12 4 -12 12v17c0 8 4 12 12 12h103v1c-74 37 -115 112 -115 218v176c0 157 79 240 229 240s229 -83 229 -240z" />
    <glyph glyph-name="estimated" unicode="&#x212e;" horiz-adv-x="820" 
d="M189 111c55 -64 136 -103 223 -103c93 0 176 45 233 115h54c-68 -82 -172 -135 -289 -135c-200 0 -362 154 -362 344c0 191 162 344 362 344s362 -153 362 -344v-8h-587c-2 0 -4 -2 -4 -4v-189c0 -8 4 -14 8 -20zM185 342h450c4 0 6 2 6 6v189c0 8 -4 16 -10 22
c-57 60 -136 97 -219 97c-87 0 -166 -39 -223 -101c-4 -6 -8 -14 -8 -22v-185c0 -4 2 -6 4 -6z" />
    <glyph glyph-name="onethird" unicode="&#x2153;" horiz-adv-x="790" 
d="M179 13l396 604c3 5 8 7 14 7h15c9 0 12 -6 7 -13l-396 -604c-3 -5 -8 -7 -14 -7h-15c-9 0 -12 6 -7 13zM690 204v-1c45 -13 72 -48 72 -97c0 -72 -48 -113 -129 -113c-56 0 -97 18 -126 54c-4 5 -4 10 1 15l8 8c6 6 11 4 16 -2c22 -28 55 -43 99 -43c61 0 96 30 96 82
s-35 79 -103 79h-29c-7 0 -11 4 -11 11v10c0 7 4 11 11 11h26c64 0 97 24 97 70c0 47 -33 73 -90 73c-41 0 -71 -15 -92 -42c-5 -6 -10 -7 -16 -1l-7 6c-5 5 -6 10 -2 15c28 35 71 54 119 54c76 0 123 -39 123 -104c0 -43 -23 -72 -63 -85zM240 613v-364
c0 -7 -4 -11 -11 -11h-13c-7 0 -11 4 -11 11v328l-91 -68c-6 -5 -11 -4 -15 2l-6 8c-4 6 -3 11 3 16l111 84c5 4 9 5 14 5h8c7 0 11 -4 11 -11z" />
    <glyph glyph-name="twothirds" unicode="&#x2154;" horiz-adv-x="790" 
d="M206 13l396 604c3 5 8 7 14 7h15c9 0 12 -6 7 -13l-396 -604c-3 -5 -8 -7 -14 -7h-15c-9 0 -12 6 -7 13zM690 204v-1c45 -13 72 -48 72 -97c0 -72 -48 -113 -129 -113c-56 0 -97 18 -126 54c-4 5 -4 10 1 15l8 8c6 6 11 4 16 -2c22 -28 55 -43 99 -43c61 0 96 30 96 82
s-35 79 -103 79h-29c-7 0 -11 4 -11 11v10c0 7 4 11 11 11h26c64 0 97 24 97 70c0 47 -33 73 -90 73c-41 0 -71 -15 -92 -42c-5 -6 -10 -7 -16 -1l-7 6c-5 5 -6 10 -2 15c28 35 71 54 119 54c76 0 123 -39 123 -104c0 -43 -23 -72 -63 -85zM289 259v-10c0 -7 -4 -11 -11 -11
h-219c-7 0 -11 4 -11 11v11c0 6 2 10 6 14l150 153c37 37 49 62 49 96c0 49 -31 76 -85 76c-41 0 -70 -18 -90 -52c-3 -6 -8 -8 -15 -4l-9 6c-6 4 -7 9 -4 15c25 43 68 67 119 67c75 0 119 -40 119 -108c0 -43 -13 -72 -57 -117l-134 -136h181c7 0 11 -4 11 -11z" />
    <glyph glyph-name="oneeighth" unicode="&#x215b;" horiz-adv-x="790" 
d="M179 13l396 604c3 5 8 7 14 7h15c9 0 12 -6 7 -13l-396 -604c-3 -5 -8 -7 -14 -7h-15c-9 0 -12 6 -7 13zM687 204v-1c46 -15 73 -49 73 -97c0 -72 -51 -113 -135 -113s-135 41 -135 113c0 48 27 82 73 96v1c-39 14 -62 45 -62 86c0 65 46 104 124 104s124 -39 124 -104
c0 -41 -23 -71 -62 -85zM536 288c0 -45 34 -70 89 -70s89 25 89 70c0 47 -33 73 -89 73s-89 -26 -89 -73zM625 25c63 0 100 30 100 82c0 50 -37 79 -100 79c-62 0 -100 -29 -100 -79c0 -52 37 -82 100 -82zM240 613v-364c0 -7 -4 -11 -11 -11h-13c-7 0 -11 4 -11 11v328
l-91 -68c-6 -5 -11 -4 -15 2l-6 8c-4 6 -3 11 3 16l111 84c5 4 9 5 14 5h8c7 0 11 -4 11 -11z" />
    <glyph glyph-name="threeeighths" unicode="&#x215c;" horiz-adv-x="790" 
d="M184 13l396 604c3 5 8 7 14 7h15c9 0 12 -6 7 -13l-396 -604c-3 -5 -8 -7 -14 -7h-15c-9 0 -12 6 -7 13zM687 204v-1c46 -15 73 -49 73 -97c0 -72 -51 -113 -135 -113s-135 41 -135 113c0 48 27 82 73 96v1c-39 14 -62 45 -62 86c0 65 46 104 124 104s124 -39 124 -104
c0 -41 -23 -71 -62 -85zM536 288c0 -45 34 -70 89 -70s89 25 89 70c0 47 -33 73 -89 73s-89 -26 -89 -73zM625 25c63 0 100 30 100 82c0 50 -37 79 -100 79c-62 0 -100 -29 -100 -79c0 -52 37 -82 100 -82zM230 442v-1c45 -13 72 -48 72 -97c0 -72 -48 -113 -129 -113
c-56 0 -97 18 -126 54c-4 5 -4 10 1 15l8 8c6 6 11 4 16 -2c22 -28 55 -43 99 -43c61 0 96 30 96 82s-35 79 -103 79h-29c-7 0 -11 4 -11 11v10c0 7 4 11 11 11h26c64 0 97 24 97 70c0 47 -33 73 -90 73c-41 0 -71 -15 -92 -42c-5 -6 -10 -7 -16 -1l-7 6c-5 5 -6 10 -2 15
c28 35 71 54 119 54c76 0 123 -39 123 -104c0 -43 -23 -72 -63 -85z" />
    <glyph glyph-name="fiveeighths" unicode="&#x215d;" horiz-adv-x="790" 
d="M184 13l396 604c3 5 8 7 14 7h15c9 0 12 -6 7 -13l-396 -604c-3 -5 -8 -7 -14 -7h-15c-9 0 -12 6 -7 13zM687 204v-1c46 -15 73 -49 73 -97c0 -72 -51 -113 -135 -113s-135 41 -135 113c0 48 27 82 73 96v1c-39 14 -62 45 -62 86c0 65 46 104 124 104s124 -39 124 -104
c0 -41 -23 -71 -62 -85zM536 288c0 -45 34 -70 89 -70s89 25 89 70c0 47 -33 73 -89 73s-89 -26 -89 -73zM625 25c63 0 100 30 100 82c0 50 -37 79 -100 79c-62 0 -100 -29 -100 -79c0 -52 37 -82 100 -82zM175 483c75 0 124 -49 124 -125c0 -78 -51 -127 -132 -127
c-53 0 -95 18 -123 53c-4 5 -3 10 2 15l7 7c5 5 11 5 16 -1c24 -28 55 -42 96 -42c63 0 99 35 99 95c0 57 -37 93 -95 93c-35 0 -66 -12 -86 -32c-4 -4 -9 -5 -15 -4l-5 1c-7 1 -9 5 -9 12l11 185c0 7 5 11 12 11h189c7 0 11 -4 11 -11v-10c0 -7 -4 -11 -11 -11h-170
l-8 -136h1c23 17 53 27 86 27z" />
    <glyph glyph-name="seveneighths" unicode="&#x215e;" horiz-adv-x="790" 
d="M140 13l396 604c3 5 8 7 14 7h15c9 0 12 -6 7 -13l-396 -604c-3 -5 -8 -7 -14 -7h-15c-9 0 -12 6 -7 13zM687 204v-1c46 -15 73 -49 73 -97c0 -72 -51 -113 -135 -113s-135 41 -135 113c0 48 27 82 73 96v1c-39 14 -62 45 -62 86c0 65 46 104 124 104s124 -39 124 -104
c0 -41 -23 -71 -62 -85zM536 288c0 -45 34 -70 89 -70s89 25 89 70c0 47 -33 73 -89 73s-89 -26 -89 -73zM625 25c63 0 100 30 100 82c0 50 -37 79 -100 79c-62 0 -100 -29 -100 -79c0 -52 37 -82 100 -82zM307 613v-16c0 -5 -1 -9 -3 -13l-168 -338c-3 -6 -7 -8 -13 -8h-15
c-9 0 -12 5 -8 13l171 341h-195v-57c0 -7 -4 -11 -11 -11h-11c-7 0 -11 4 -11 11v78c0 7 4 11 11 11h242c7 0 11 -4 11 -11z" />
    <glyph glyph-name="partialdiff" unicode="&#x2202;" horiz-adv-x="538" 
d="M280 676c134 0 205 -93 205 -268c0 -265 -94 -420 -255 -420c-107 0 -180 77 -180 190c0 146 94 248 229 248c76 0 134 -34 160 -90h1c2 24 3 50 3 76c0 148 -56 226 -168 226c-48 0 -94 -19 -131 -54c-6 -6 -13 -5 -17 1l-9 13c-4 6 -4 12 1 17c42 40 101 61 161 61z
M232 26c101 0 169 81 197 224c-2 84 -58 138 -146 138c-111 0 -191 -85 -191 -205c0 -98 54 -157 140 -157z" />
    <glyph glyph-name="uni2206" unicode="&#x2206;" horiz-adv-x="570" 
d="M532 0h-493c-9 0 -13 5 -10 14l231 639c2 7 7 11 14 11h23c7 0 12 -4 14 -11l231 -639c3 -9 -1 -14 -10 -14zM82 39h405l-201 570h-1z" />
    <glyph glyph-name="product" unicode="&#x220f;" horiz-adv-x="606" 
d="M537 652v-720c0 -8 -4 -12 -12 -12h-19c-8 0 -12 4 -12 12v693h-382v-693c0 -8 -4 -12 -12 -12h-19c-8 0 -12 4 -12 12v720c0 8 4 12 12 12h444c8 0 12 -4 12 -12z" />
    <glyph glyph-name="summation" unicode="&#x2211;" horiz-adv-x="476" 
d="M73 625l228 -325c4 -5 4 -11 0 -16l-228 -325h380c8 0 12 -4 12 -12v-15c0 -8 -4 -12 -12 -12h-419c-8 0 -12 4 -12 12v21c0 6 1 10 5 15l229 324l-229 324c-4 5 -5 9 -5 15v21c0 8 4 12 12 12h419c8 0 12 -4 12 -12v-15c0 -8 -4 -12 -12 -12h-380z" />
    <glyph glyph-name="minus" unicode="&#x2212;" horiz-adv-x="528" 
d="M495 260h-462c-8 0 -12 4 -12 12v14c0 8 4 12 12 12h462c8 0 12 -4 12 -12v-14c0 -8 -4 -12 -12 -12z" />
    <glyph glyph-name="uni2219" unicode="&#x2219;" horiz-adv-x="210" 
d="M105 277c-20 0 -35 15 -35 35s15 34 35 34s34 -14 34 -34s-14 -35 -34 -35z" />
    <glyph glyph-name="radical" unicode="&#x221a;" horiz-adv-x="502" 
d="M464 664h15c9 0 12 -5 10 -13l-190 -721c-2 -7 -6 -10 -14 -10h-27c-7 0 -11 3 -14 10l-110 295l-87 -24c-8 -2 -13 1 -15 9l-2 11c-2 7 1 12 8 14l110 30c7 2 12 -1 15 -8l106 -292h1l180 689c2 7 6 10 14 10z" />
    <glyph glyph-name="infinity" unicode="&#x221e;" horiz-adv-x="640" 
d="M470 451c78 0 130 -55 130 -139s-53 -139 -132 -139c-59 0 -104 31 -150 107c-46 -75 -91 -107 -148 -107c-78 0 -130 55 -130 139s53 139 132 139c58 0 101 -30 150 -107c47 76 91 107 148 107zM175 207c46 0 81 28 125 102c-48 80 -83 108 -132 108
c-56 0 -91 -41 -91 -105s39 -105 98 -105zM472 207c56 0 91 41 91 105s-39 105 -98 105c-46 0 -81 -28 -125 -102c49 -80 84 -108 132 -108z" />
    <glyph glyph-name="integral" unicode="&#x222b;" horiz-adv-x="312" 
d="M120 530c0 114 58 177 148 182c8 0 12 -4 12 -12v-13c0 -9 -4 -12 -12 -12c-65 -6 -106 -55 -106 -149c0 -81 8 -165 15 -250c8 -87 15 -177 15 -266c0 -114 -58 -177 -148 -182c-8 0 -12 4 -12 12v13c0 9 4 12 12 12c65 6 106 55 106 149c0 81 -8 165 -15 250
c-8 87 -15 177 -15 266z" />
    <glyph glyph-name="approxequal" unicode="&#x2248;" horiz-adv-x="528" 
d="M157 409c-42 0 -71 -20 -102 -69c-4 -7 -10 -9 -16 -5l-13 8c-6 4 -8 10 -4 16c38 61 79 88 133 88c40 0 74 -12 119 -42c42 -28 67 -36 97 -36c43 0 71 19 103 69c4 6 10 8 16 4l12 -7c6 -4 8 -10 4 -17c-38 -60 -79 -87 -133 -87c-40 0 -75 12 -119 42
c-45 30 -67 36 -97 36zM157 187c-42 0 -71 -20 -102 -69c-4 -7 -10 -9 -16 -5l-13 8c-6 4 -8 10 -4 16c38 61 79 88 133 88c40 0 74 -12 119 -42c42 -28 67 -36 97 -36c43 0 71 19 103 69c4 6 10 8 16 4l12 -7c6 -4 8 -10 4 -17c-38 -60 -79 -87 -133 -87
c-40 0 -75 12 -119 42c-45 30 -67 36 -97 36z" />
    <glyph glyph-name="notequal" unicode="&#x2260;" horiz-adv-x="528" 
d="M225 187h252c8 0 12 -4 12 -12v-14c0 -8 -4 -12 -12 -12h-275l-74 -124c-4 -6 -8 -8 -14 -8h-14c-10 0 -13 6 -8 14l70 118h-110c-8 0 -12 4 -12 12v14c0 8 4 12 12 12h133l109 184h-242c-8 0 -12 4 -12 12v14c0 8 4 12 12 12h265l74 124c4 6 8 8 14 8h15
c10 0 13 -6 8 -14l-70 -118h119c8 0 12 -4 12 -12v-14c0 -8 -4 -12 -12 -12h-142z" />
    <glyph glyph-name="lessequal" unicode="&#x2264;" horiz-adv-x="528" 
d="M90 326l387 -173c6 -3 9 -7 9 -14v-17c0 -9 -6 -13 -14 -9l-421 192c-6 3 -9 7 -9 14v15c0 7 3 11 9 14l421 191c8 4 14 0 14 -9v-16c0 -7 -3 -11 -9 -14zM54 38h420c8 0 12 -4 12 -12v-14c0 -8 -4 -12 -12 -12h-420c-8 0 -12 4 -12 12v14c0 8 4 12 12 12z" />
    <glyph glyph-name="greaterequal" unicode="&#x2265;" horiz-adv-x="528" 
d="M486 334v-15c0 -7 -3 -11 -9 -14l-421 -192c-8 -4 -14 0 -14 9v17c0 7 3 11 9 14l386 173l-386 174c-6 3 -9 7 -9 14v16c0 9 6 13 14 9l421 -191c6 -3 9 -7 9 -14zM54 38h420c8 0 12 -4 12 -12v-14c0 -8 -4 -12 -12 -12h-420c-8 0 -12 4 -12 12v14c0 8 4 12 12 12z" />
    <glyph glyph-name="lozenge" unicode="&#x25ca;" horiz-adv-x="516" 
d="M469 324l-189 -324c-4 -7 -9 -10 -16 -10h-13c-7 0 -12 3 -16 10l-188 324c-3 6 -3 10 0 16l188 324c4 7 9 10 16 10h13c7 0 12 -3 16 -10l189 -324c3 -6 3 -10 0 -16zM86 332l172 -296h1l170 296l-171 296h-1z" />
    <glyph glyph-name="uniE069" unicode="&#xe069;" horiz-adv-x="196" 
d="M98 598c-19 0 -33 15 -33 33c0 19 14 33 33 33s33 -14 33 -33c0 -18 -14 -33 -33 -33zM107 0h-17c-8 0 -12 4 -12 12v467c0 8 4 12 12 12h17c8 0 12 -4 12 -12v-467c0 -8 -4 -12 -12 -12z" />
    <glyph glyph-name="uniEF01" unicode="&#xef01;" horiz-adv-x="500" 
d="M250 -53c19 0 33 -14 33 -37c0 -34 -17 -60 -43 -71c-5 -2 -8 -1 -10 3l-3 5c-2 4 -1 7 3 9c12 6 18 16 21 30c-20 0 -34 12 -34 31s14 30 33 30z" />
    <glyph glyph-name="uniEF02" unicode="&#xef02;" horiz-adv-x="500" 
d="M279 687l-26 -161c-1 -7 -5 -10 -12 -10h-9c-8 0 -12 4 -11 12l21 161c1 7 5 11 12 11h14c8 0 12 -5 11 -13z" />
    <glyph glyph-name="uniF8FF" unicode="&#xf8ff;" horiz-adv-x="1000" 
d="M439 210v52h-1l-17 -78h-23l28 126h27v-66h1l28 66h31l-28 -126h-24l17 78h-1l-22 -52h-16zM140 285l-17 -77c-5 -17 -12 -24 -25 -24h-46l28 126h43c11 0 18 -5 18 -15c0 -3 0 -4 -1 -10zM293 184h-24l6 26h-17l-7 -26h-24l23 103c3 15 13 23 26 23h22
c11 0 18 -5 18 -15c0 -3 0 -4 -1 -10zM570 184h-24l6 26h-17l-7 -26h-24l23 103c3 15 13 23 26 23h22c11 0 18 -5 18 -15c0 -3 0 -4 -1 -10zM401 285l-11 -52c-3 -12 -7 -18 -13 -20l6 -29h-23l-4 26h-13l-6 -26h-24l28 126h43c11 0 18 -5 18 -15c0 -3 0 -4 -1 -10zM845 285
l-12 -53c-3 -15 -11 -22 -24 -22h-22l-6 -26h-24l28 126h43c11 0 18 -5 18 -15c0 -3 0 -4 -1 -10zM233 310l-28 -126h-24l6 26h-18l-6 -26h-24l28 126h24l-18 -81h18l18 81h24zM703 310h24l-17 -75c-1 -5 0 -6 4 -6h7c4 0 5 1 6 4l17 77h24l-17 -78c-3 -15 -12 -22 -24 -22
l-14 -26h-24l14 26c-9 0 -18 4 -18 15c0 2 0 5 1 10zM901 242l-4 -19h-26l-4 -20h33l-5 -19h-56l28 126h57l-5 -19h-32l-11 -49h25zM671 291l-24 -107h-24l24 107h-19l4 19h61l-4 -19h-18zM100 291l-20 -88h13c4 0 5 2 6 5l17 77c1 5 0 6 -3 6h-13zM810 233l11 52
c1 5 0 6 -4 6h-12l-14 -62h13c4 0 5 1 6 4zM366 233l11 52c1 5 0 6 -4 6h-12l-14 -62h13c3 0 5 1 6 4zM564 291h-7c-4 0 -5 -1 -6 -5l-13 -57h18l12 56c1 5 0 6 -4 6zM287 291h-7c-4 0 -5 -1 -6 -5l-13 -57h18l12 56c1 5 0 6 -4 6zM987 333v-30h-6v25h-1l-7 -20h-4l-7 20h-1
v-25h-5v30h10l5 -16h1l5 16h10zM952 333v-5h-9v-25h-6v25h-8v5h23z" />
    <glyph glyph-name="zero.numr" 
d="M39 365v133c0 87 44 133 126 133s126 -46 126 -133v-133c0 -88 -44 -134 -126 -134s-126 46 -126 134zM74 494v-125c0 -73 29 -106 91 -106s91 33 91 106v125c0 72 -29 105 -91 105s-91 -33 -91 -105z" />
    <glyph glyph-name="one.numr" 
d="M240 613v-364c0 -7 -4 -11 -11 -11h-13c-7 0 -11 4 -11 11v328l-91 -68c-6 -5 -11 -4 -15 2l-6 8c-4 6 -3 11 3 16l111 84c5 4 9 5 14 5h8c7 0 11 -4 11 -11z" />
    <glyph glyph-name="two.numr" 
d="M289 259v-10c0 -7 -4 -11 -11 -11h-219c-7 0 -11 4 -11 11v11c0 6 2 10 6 14l150 153c37 37 49 62 49 96c0 49 -31 76 -85 76c-41 0 -70 -18 -90 -52c-3 -6 -8 -8 -15 -4l-9 6c-6 4 -7 9 -4 15c25 43 68 67 119 67c75 0 119 -40 119 -108c0 -43 -13 -72 -57 -117
l-134 -136h181c7 0 11 -4 11 -11z" />
    <glyph glyph-name="three.numr" 
d="M230 442v-1c45 -13 72 -48 72 -97c0 -72 -48 -113 -129 -113c-56 0 -97 18 -126 54c-4 5 -4 10 1 15l8 8c6 6 11 4 16 -2c22 -28 55 -43 99 -43c61 0 96 30 96 82s-35 79 -103 79h-29c-7 0 -11 4 -11 11v10c0 7 4 11 11 11h26c64 0 97 24 97 70c0 47 -33 73 -90 73
c-41 0 -71 -15 -92 -42c-5 -6 -10 -7 -16 -1l-7 6c-5 5 -6 10 -2 15c28 35 71 54 119 54c76 0 123 -39 123 -104c0 -43 -23 -72 -63 -85z" />
    <glyph glyph-name="four.numr" 
d="M264 330v-81c0 -7 -4 -11 -11 -11h-13c-7 0 -11 4 -11 11v81h-186c-7 0 -11 4 -11 11v15c0 5 1 9 5 14l186 247c4 5 7 7 13 7h17c7 0 11 -4 11 -11v-251h36c7 0 11 -4 11 -11v-10c0 -7 -4 -11 -11 -11h-36zM71 362h158v209h-1z" />
    <glyph glyph-name="five.numr" 
d="M175 483c75 0 124 -49 124 -125c0 -78 -51 -127 -132 -127c-53 0 -95 18 -123 53c-4 5 -3 10 2 15l7 7c5 5 11 5 16 -1c24 -28 55 -42 96 -42c63 0 99 35 99 95c0 57 -37 93 -95 93c-35 0 -66 -12 -86 -32c-4 -4 -9 -5 -15 -4l-5 1c-7 1 -9 5 -9 12l11 185
c0 7 5 11 12 11h189c7 0 11 -4 11 -11v-10c0 -7 -4 -11 -11 -11h-170l-8 -136h1c23 17 53 27 86 27z" />
    <glyph glyph-name="six.numr" 
d="M179 484c72 0 119 -50 119 -126c0 -77 -51 -127 -126 -127c-76 0 -126 50 -126 127v144c0 81 47 129 127 129c43 0 79 -14 104 -41c5 -6 5 -12 0 -17l-8 -8c-5 -5 -10 -4 -15 1c-19 21 -46 33 -79 33c-62 0 -94 -35 -94 -102v-58h1c20 29 54 45 97 45zM172 263
c55 0 91 37 91 95c0 57 -36 94 -91 94s-91 -38 -91 -94c0 -58 35 -95 91 -95z" />
    <glyph glyph-name="seven.numr" 
d="M307 613v-16c0 -5 -1 -9 -3 -13l-168 -338c-3 -6 -7 -8 -13 -8h-15c-9 0 -12 5 -8 13l171 341h-195v-57c0 -7 -4 -11 -11 -11h-11c-7 0 -11 4 -11 11v78c0 7 4 11 11 11h242c7 0 11 -4 11 -11z" />
    <glyph glyph-name="eight.numr" 
d="M227 442v-1c46 -15 73 -49 73 -97c0 -72 -51 -113 -135 -113s-135 41 -135 113c0 48 27 82 73 96v1c-39 14 -62 45 -62 86c0 65 46 104 124 104s124 -39 124 -104c0 -41 -23 -71 -62 -85zM76 526c0 -45 34 -70 89 -70s89 25 89 70c0 47 -33 73 -89 73s-89 -26 -89 -73z
M165 263c63 0 100 30 100 82c0 50 -37 79 -100 79c-62 0 -100 -29 -100 -79c0 -52 37 -82 100 -82z" />
    <glyph glyph-name="nine.numr" 
d="M158 631c76 0 126 -50 126 -127v-144c0 -81 -47 -129 -127 -129c-43 0 -79 14 -104 42c-5 5 -5 11 0 16l8 8c5 5 10 5 15 -1c19 -21 46 -33 79 -33c62 0 94 35 94 102v58h-1c-19 -29 -54 -45 -97 -45c-72 0 -119 50 -119 126c0 77 51 127 126 127zM158 410
c55 0 91 38 91 94c0 58 -35 95 -91 95c-55 0 -91 -37 -91 -95c0 -57 36 -94 91 -94z" />
    <glyph glyph-name="zero.dnom" 
d="M39 127v133c0 87 44 133 126 133s126 -46 126 -133v-133c0 -88 -44 -134 -126 -134s-126 46 -126 134zM74 256v-125c0 -73 29 -106 91 -106s91 33 91 106v125c0 72 -29 105 -91 105s-91 -33 -91 -105z" />
    <glyph glyph-name="one.dnom" 
d="M240 375v-364c0 -7 -4 -11 -11 -11h-13c-7 0 -11 4 -11 11v328l-91 -68c-6 -5 -11 -4 -15 2l-6 8c-4 6 -3 11 3 16l111 84c5 4 9 5 14 5h8c7 0 11 -4 11 -11z" />
    <glyph glyph-name="two.dnom" 
d="M289 21v-10c0 -7 -4 -11 -11 -11h-219c-7 0 -11 4 -11 11v11c0 6 2 10 6 14l150 153c37 37 49 62 49 96c0 49 -31 76 -85 76c-41 0 -70 -18 -90 -52c-3 -6 -8 -8 -15 -4l-9 6c-6 4 -7 9 -4 15c25 43 68 67 119 67c75 0 119 -40 119 -108c0 -43 -13 -72 -57 -117
l-134 -136h181c7 0 11 -4 11 -11z" />
    <glyph glyph-name="three.dnom" 
d="M230 204v-1c45 -13 72 -48 72 -97c0 -72 -48 -113 -129 -113c-56 0 -97 18 -126 54c-4 5 -4 10 1 15l8 8c6 6 11 4 16 -2c22 -28 55 -43 99 -43c61 0 96 30 96 82s-35 79 -103 79h-29c-7 0 -11 4 -11 11v10c0 7 4 11 11 11h26c64 0 97 24 97 70c0 47 -33 73 -90 73
c-41 0 -71 -15 -92 -42c-5 -6 -10 -7 -16 -1l-7 6c-5 5 -6 10 -2 15c28 35 71 54 119 54c76 0 123 -39 123 -104c0 -43 -23 -72 -63 -85z" />
    <glyph glyph-name="four.dnom" 
d="M264 92v-81c0 -7 -4 -11 -11 -11h-13c-7 0 -11 4 -11 11v81h-186c-7 0 -11 4 -11 11v15c0 5 1 9 5 14l186 247c4 5 7 7 13 7h17c7 0 11 -4 11 -11v-251h36c7 0 11 -4 11 -11v-10c0 -7 -4 -11 -11 -11h-36zM71 124h158v209h-1z" />
    <glyph glyph-name="five.dnom" 
d="M175 245c75 0 124 -49 124 -125c0 -78 -51 -127 -132 -127c-53 0 -95 18 -123 53c-4 5 -3 10 2 15l7 7c5 5 11 5 16 -1c24 -28 55 -42 96 -42c63 0 99 35 99 95c0 57 -37 93 -95 93c-35 0 -66 -12 -86 -32c-4 -4 -9 -5 -15 -4l-5 1c-7 1 -9 5 -9 12l11 185
c0 7 5 11 12 11h189c7 0 11 -4 11 -11v-10c0 -7 -4 -11 -11 -11h-170l-8 -136h1c23 17 53 27 86 27z" />
    <glyph glyph-name="six.dnom" 
d="M179 246c72 0 119 -50 119 -126c0 -77 -51 -127 -126 -127c-76 0 -126 50 -126 127v144c0 81 47 129 127 129c43 0 79 -14 104 -41c5 -6 5 -12 0 -17l-8 -8c-5 -5 -10 -4 -15 1c-19 21 -46 33 -79 33c-62 0 -94 -35 -94 -102v-58h1c20 29 54 45 97 45zM172 25
c55 0 91 37 91 95c0 57 -36 94 -91 94s-91 -38 -91 -94c0 -58 35 -95 91 -95z" />
    <glyph glyph-name="seven.dnom" 
d="M307 375v-16c0 -5 -1 -9 -3 -13l-168 -338c-3 -6 -7 -8 -13 -8h-15c-9 0 -12 5 -8 13l171 341h-195v-57c0 -7 -4 -11 -11 -11h-11c-7 0 -11 4 -11 11v78c0 7 4 11 11 11h242c7 0 11 -4 11 -11z" />
    <glyph glyph-name="eight.dnom" 
d="M227 204v-1c46 -15 73 -49 73 -97c0 -72 -51 -113 -135 -113s-135 41 -135 113c0 48 27 82 73 96v1c-39 14 -62 45 -62 86c0 65 46 104 124 104s124 -39 124 -104c0 -41 -23 -71 -62 -85zM76 288c0 -45 34 -70 89 -70s89 25 89 70c0 47 -33 73 -89 73s-89 -26 -89 -73z
M165 25c63 0 100 30 100 82c0 50 -37 79 -100 79c-62 0 -100 -29 -100 -79c0 -52 37 -82 100 -82z" />
    <glyph glyph-name="nine.dnom" 
d="M158 393c76 0 126 -50 126 -127v-144c0 -81 -47 -129 -127 -129c-43 0 -79 14 -104 42c-5 5 -5 11 0 16l8 8c5 5 10 5 15 -1c19 -21 46 -33 79 -33c62 0 94 35 94 102v58h-1c-19 -29 -54 -45 -97 -45c-72 0 -119 50 -119 126c0 77 51 127 126 127zM158 172
c55 0 91 38 91 94c0 58 -35 95 -91 95c-55 0 -91 -37 -91 -95c0 -57 36 -94 91 -94z" />
    </font>
</defs>
</svg>
